G04 #@! TF.GenerationSoftware,KiCad,Pcbnew,7.0.2-0*
G04 #@! TF.CreationDate,2023-04-20T01:12:48+09:00*
G04 #@! TF.ProjectId,MEZ6809RAMI,4d455a36-3830-4395-9241-4d492e6b6963,A*
G04 #@! TF.SameCoordinates,PX5f5e100PY8f0d180*
G04 #@! TF.FileFunction,Copper,L1,Top*
G04 #@! TF.FilePolarity,Positive*
%FSLAX46Y46*%
G04 Gerber Fmt 4.6, Leading zero omitted, Abs format (unit mm)*
G04 Created by KiCad (PCBNEW 7.0.2-0) date 2023-04-20 01:12:48*
%MOMM*%
%LPD*%
G01*
G04 APERTURE LIST*
G04 #@! TA.AperFunction,ComponentPad*
%ADD10C,1.600000*%
G04 #@! TD*
G04 #@! TA.AperFunction,ComponentPad*
%ADD11R,1.600000X1.600000*%
G04 #@! TD*
G04 #@! TA.AperFunction,ComponentPad*
%ADD12O,1.600000X1.600000*%
G04 #@! TD*
G04 #@! TA.AperFunction,ComponentPad*
%ADD13R,1.700000X1.700000*%
G04 #@! TD*
G04 #@! TA.AperFunction,ComponentPad*
%ADD14O,1.700000X1.700000*%
G04 #@! TD*
G04 #@! TA.AperFunction,ViaPad*
%ADD15C,0.605000*%
G04 #@! TD*
G04 #@! TA.AperFunction,Conductor*
%ADD16C,0.400000*%
G04 #@! TD*
G04 #@! TA.AperFunction,Conductor*
%ADD17C,0.600000*%
G04 #@! TD*
G04 #@! TA.AperFunction,Conductor*
%ADD18C,1.000000*%
G04 #@! TD*
G04 #@! TA.AperFunction,Conductor*
%ADD19C,0.152400*%
G04 #@! TD*
G04 APERTURE END LIST*
D10*
X6332500Y55245000D03*
X3832500Y55245000D03*
D11*
X6347500Y51435000D03*
D12*
X6347500Y48895000D03*
X6347500Y46355000D03*
X6347500Y43815000D03*
X6347500Y41275000D03*
X6347500Y38735000D03*
X6347500Y36195000D03*
X6347500Y33655000D03*
X6347500Y31115000D03*
X6347500Y28575000D03*
X6347500Y26035000D03*
X6347500Y23495000D03*
X6347500Y20955000D03*
X6347500Y18415000D03*
X6347500Y15875000D03*
X6347500Y13335000D03*
X6347500Y10795000D03*
X6347500Y8255000D03*
X6347500Y5715000D03*
X6347500Y3175000D03*
X21587500Y3175000D03*
X21587500Y5715000D03*
X21587500Y8255000D03*
X21587500Y10795000D03*
X21587500Y13335000D03*
X21587500Y15875000D03*
X21587500Y18415000D03*
X21587500Y20955000D03*
X21587500Y23495000D03*
X21587500Y26035000D03*
X21587500Y28575000D03*
X21587500Y31115000D03*
X21587500Y33655000D03*
X21587500Y36195000D03*
X21587500Y38735000D03*
X21587500Y41275000D03*
X21587500Y43815000D03*
X21587500Y46355000D03*
X21587500Y48895000D03*
X21587500Y51435000D03*
D10*
X27940000Y55245000D03*
D12*
X38100000Y55245000D03*
D10*
X40662500Y55245000D03*
X43162500Y55245000D03*
D11*
X27937500Y51440000D03*
D12*
X27937500Y48900000D03*
X27937500Y46360000D03*
X27937500Y43820000D03*
X27937500Y41280000D03*
X27937500Y38740000D03*
X27937500Y36200000D03*
X27937500Y33660000D03*
X27937500Y31120000D03*
X27937500Y28580000D03*
X27937500Y26040000D03*
X27937500Y23500000D03*
X27937500Y20960000D03*
X27937500Y18420000D03*
X27937500Y15880000D03*
X27937500Y13340000D03*
X43177500Y13340000D03*
X43177500Y15880000D03*
X43177500Y18420000D03*
X43177500Y20960000D03*
X43177500Y23500000D03*
X43177500Y26040000D03*
X43177500Y28580000D03*
X43177500Y31120000D03*
X43177500Y33660000D03*
X43177500Y36200000D03*
X43177500Y38740000D03*
X43177500Y41280000D03*
X43177500Y43820000D03*
X43177500Y46360000D03*
X43177500Y48900000D03*
X43177500Y51440000D03*
D13*
X24132500Y51440000D03*
D14*
X24132500Y48900000D03*
X24132500Y46360000D03*
X24132500Y43820000D03*
X24132500Y41280000D03*
X24132500Y38740000D03*
X24132500Y36200000D03*
X24132500Y33660000D03*
X24132500Y31120000D03*
X24132500Y28580000D03*
X24132500Y26040000D03*
X24132500Y23500000D03*
X24132500Y20960000D03*
X24132500Y18420000D03*
X24132500Y15880000D03*
X24132500Y13340000D03*
X24132500Y10800000D03*
X24132500Y8260000D03*
X24132500Y5720000D03*
X24132500Y3180000D03*
D13*
X3812500Y51440000D03*
D14*
X3812500Y48900000D03*
X3812500Y46360000D03*
X3812500Y43820000D03*
X3812500Y41280000D03*
X3812500Y38740000D03*
X3812500Y36200000D03*
X3812500Y33660000D03*
X3812500Y31120000D03*
X3812500Y28580000D03*
X3812500Y26040000D03*
X3812500Y23500000D03*
X3812500Y20960000D03*
X3812500Y18420000D03*
X3812500Y15880000D03*
X3812500Y13340000D03*
X3812500Y10800000D03*
X3812500Y8260000D03*
X3812500Y5720000D03*
X3812500Y3180000D03*
D15*
X29845000Y22225000D03*
X18415000Y28575000D03*
X40640000Y31115000D03*
X9525000Y18415000D03*
X17780000Y41275000D03*
X41275000Y50800000D03*
X26289000Y27305000D03*
X17780000Y8255000D03*
X26035000Y22225000D03*
X10160000Y52070000D03*
X17780000Y52070000D03*
X43180000Y10160000D03*
X18415000Y31115000D03*
X18415000Y26035000D03*
X18415000Y27305000D03*
X17780000Y38735000D03*
X17780000Y35560000D03*
X26670000Y10160000D03*
X26035000Y45085000D03*
X10160000Y40005000D03*
X40640000Y33655000D03*
X1905000Y1905000D03*
X10160000Y8255000D03*
X10160000Y38735000D03*
X45085000Y8255000D03*
X26035000Y1905000D03*
X17780000Y40005000D03*
X40640000Y17145000D03*
X13970000Y35560000D03*
X40005000Y52070000D03*
X8890000Y33655000D03*
X41275000Y52070000D03*
X19685000Y31115000D03*
X26038000Y19688000D03*
X26035000Y38100000D03*
X17767500Y50152500D03*
X31115000Y33655000D03*
X33020000Y10160000D03*
X29845000Y19685000D03*
X17145000Y31115000D03*
X10160000Y41275000D03*
X31115000Y38119400D03*
X40640000Y38100000D03*
X7813400Y29330100D03*
X19710059Y19417559D03*
X18265400Y17548600D03*
X19418700Y17018000D03*
X29718000Y35814000D03*
X35560000Y17780000D03*
X20193000Y37718500D03*
X8516300Y23495000D03*
X7380459Y27305000D03*
X18288000Y16487400D03*
X31242000Y14305300D03*
D16*
X29845000Y22225000D02*
X26035000Y22225000D01*
X24630551Y47562400D02*
X26035000Y46157951D01*
X26035000Y46157951D02*
X26035000Y45085000D01*
X20357600Y47562400D02*
X24630551Y47562400D01*
D17*
X29842000Y19688000D02*
X29845000Y19685000D01*
X26038000Y19688000D02*
X29842000Y19688000D01*
D16*
X17767500Y50152500D02*
X20357600Y47562400D01*
D18*
X6332000Y55245000D02*
X6332000Y53995000D01*
X36045996Y55245000D02*
X37498396Y53792600D01*
X3812000Y26040000D02*
X1912000Y27940000D01*
X37498396Y53792600D02*
X39209600Y53792600D01*
D19*
X6347500Y43815000D02*
X6347500Y46355000D01*
X43177500Y46360000D02*
X43177500Y47388900D01*
X44216800Y50401200D02*
X43178000Y51440000D01*
X40662500Y55245000D02*
X40662000Y55245000D01*
D18*
X4880000Y53792600D02*
X6332000Y55245000D01*
X39209600Y53792600D02*
X40662000Y55245000D01*
X1908000Y53340000D02*
X2360000Y53792600D01*
X40662000Y55245000D02*
X40662300Y55244800D01*
X43182000Y52705000D02*
X43178000Y52700000D01*
X8258000Y38105000D02*
X6348000Y36195000D01*
X6332000Y55245000D02*
X6332500Y55245000D01*
X40662300Y55244800D02*
X43182000Y52725000D01*
D19*
X8134000Y48895000D02*
X8258000Y49019000D01*
D18*
X8258000Y52070000D02*
X8258000Y49019000D01*
X8258000Y46344900D02*
X8258000Y44238000D01*
D19*
X3812500Y26040000D02*
X3812000Y26040000D01*
X43177500Y51440000D02*
X43178000Y51440000D01*
X6347500Y36195000D02*
X6348000Y36195000D01*
X8247900Y46355000D02*
X8258000Y46344900D01*
X43177500Y51440000D02*
X43178000Y51440000D01*
X21587500Y55242500D02*
X21590000Y55245000D01*
D18*
X8258000Y44238000D02*
X8258000Y38105000D01*
X6332000Y53995000D02*
X8258000Y52070000D01*
D19*
X6347500Y36195000D02*
X6348000Y36195000D01*
X3812500Y26040000D02*
X3812000Y26040000D01*
D18*
X27940000Y55245000D02*
X36045996Y55245000D01*
D19*
X44216800Y48428200D02*
X44216800Y50401200D01*
X6347500Y46355000D02*
X8247900Y46355000D01*
D18*
X2360000Y53792600D02*
X4880000Y53792600D01*
D19*
X40662500Y55245000D02*
X40662300Y55244800D01*
D18*
X8258000Y48451800D02*
X8258000Y46344900D01*
X8258000Y49019000D02*
X8258000Y48451800D01*
X43178000Y52700000D02*
X43178000Y51440000D01*
D19*
X21587500Y51435000D02*
X21587500Y55242500D01*
D18*
X43182000Y52725000D02*
X43182000Y52705000D01*
X1912000Y27940000D02*
X1908000Y27940000D01*
D19*
X43177500Y47388900D02*
X44216800Y48428200D01*
D18*
X1908000Y27940000D02*
X1908000Y53340000D01*
X6332500Y55245000D02*
X27940000Y55245000D01*
D19*
X3812500Y48900000D02*
X3812500Y47956000D01*
X4136500Y32390000D02*
X4891500Y31635000D01*
X4891500Y25593000D02*
X4068500Y24770000D01*
X4891100Y13786771D02*
X4891100Y4631400D01*
X2732500Y46876000D02*
X2732500Y33206700D01*
X2732500Y33206700D02*
X3549200Y32390000D01*
X4259271Y14418600D02*
X4891100Y13786771D01*
X3812500Y47956000D02*
X2732500Y46876000D01*
X2693500Y15340500D02*
X3615400Y14418600D01*
X3549200Y32390000D02*
X4136500Y32390000D01*
X3615400Y14418600D02*
X4259271Y14418600D01*
X4068500Y24770000D02*
X3484400Y24770000D01*
X4891100Y4631400D02*
X6347500Y3175000D01*
X2693500Y23979100D02*
X2693500Y15340500D01*
X4891500Y31635000D02*
X4891500Y25593000D01*
X3484400Y24770000D02*
X2693500Y23979100D01*
X23260348Y30041400D02*
X22674700Y29455752D01*
X18569359Y20684676D02*
X18569359Y18514641D01*
X21940300Y27411100D02*
X21508939Y27411100D01*
X27937500Y45331100D02*
X28982800Y44285800D01*
X22674700Y28145500D02*
X21940300Y27411100D01*
X28982800Y44285800D02*
X28982800Y33204300D01*
X19935200Y15750411D02*
X19935200Y13101587D01*
X20254100Y11347313D02*
X20254100Y7048400D01*
X19935200Y13101587D02*
X20269200Y12767587D01*
X24961400Y30041400D02*
X23260348Y30041400D01*
X28168500Y32390000D02*
X27310000Y32390000D01*
X18887600Y18196400D02*
X18887600Y16798011D01*
X27937500Y46360000D02*
X27937500Y45331100D01*
X20254100Y7048400D02*
X21587500Y5715000D01*
X21508939Y27411100D02*
X19949300Y25851461D01*
X19949300Y25851461D02*
X19949300Y22064617D01*
X18569359Y18514641D02*
X18887600Y18196400D01*
X27310000Y32390000D02*
X24961400Y30041400D01*
X19949300Y22064617D02*
X18569359Y20684676D01*
X22674700Y29455752D02*
X22674700Y28145500D01*
X28982800Y33204300D02*
X28168500Y32390000D01*
X20269200Y11362413D02*
X20254100Y11347313D01*
X20269200Y12767587D02*
X20269200Y11362413D01*
X18887600Y16798011D02*
X19935200Y15750411D01*
X41539300Y30540352D02*
X41539300Y42612852D01*
X21587500Y9283900D02*
X20558900Y10312500D01*
X22616100Y27655848D02*
X22979500Y28019248D01*
X23368000Y29718000D02*
X25069052Y29718000D01*
X25442452Y30091400D02*
X41090348Y30091400D01*
X20574000Y11236161D02*
X20574000Y12893839D01*
X21741000Y24659800D02*
X22616100Y25534900D01*
X21587500Y8255000D02*
X21587500Y9283900D01*
X21297639Y24659800D02*
X21741000Y24659800D01*
X20558900Y11221061D02*
X20574000Y11236161D01*
X20574000Y12893839D02*
X20240000Y13227839D01*
X42148900Y43222452D02*
X42148900Y47871400D01*
X20240000Y18136529D02*
X19178959Y19197570D01*
X41539300Y42612852D02*
X42148900Y43222452D01*
X22616100Y25534900D02*
X22616100Y27655848D01*
X19178959Y20432172D02*
X20558900Y21812113D01*
X25069052Y29718000D02*
X25442452Y30091400D01*
X42148900Y47871400D02*
X43177500Y48900000D01*
X20240000Y13227839D02*
X20240000Y18136529D01*
X41090348Y30091400D02*
X41539300Y30540352D01*
X22979500Y28019248D02*
X22979500Y29329500D01*
X22979500Y29329500D02*
X23368000Y29718000D01*
X20558900Y23921061D02*
X21297639Y24659800D01*
X20558900Y21812113D02*
X20558900Y23921061D01*
X20558900Y10312500D02*
X20558900Y11221061D01*
X19178959Y19197570D02*
X19178959Y20432172D01*
X25211100Y16326771D02*
X24579271Y16958600D01*
X28363561Y14851400D02*
X26677600Y14851400D01*
X25211100Y16317900D02*
X25211100Y16326771D01*
X7057100Y30086400D02*
X7813400Y29330100D01*
X26677600Y14851400D02*
X25211100Y16317900D01*
X21590000Y18415000D02*
X21587500Y18415000D01*
X24579271Y16958600D02*
X23046400Y16958600D01*
X3812500Y36200000D02*
X3812500Y35256100D01*
X5207000Y33861600D02*
X5207000Y30800839D01*
X23046400Y16958600D02*
X21590000Y18415000D01*
X5921439Y30086400D02*
X7057100Y30086400D01*
X5207000Y30800839D02*
X5921439Y30086400D01*
X43177500Y15880000D02*
X29392161Y15880000D01*
X3812500Y35256100D02*
X5207000Y33861600D01*
X29392161Y15880000D02*
X28363561Y14851400D01*
X20544800Y15454000D02*
X21393800Y14605000D01*
X21587500Y19926100D02*
X20544800Y18883400D01*
X25515900Y2994900D02*
X25515900Y5984796D01*
X22835000Y2952129D02*
X23685729Y2101400D01*
X25515900Y5984796D02*
X32871104Y13340000D01*
X21587500Y20955000D02*
X21587500Y19926100D01*
X24622400Y2101400D02*
X25515900Y2994900D01*
X21773500Y14605000D02*
X22835000Y13543500D01*
X22835000Y13543500D02*
X22835000Y2952129D01*
X32871104Y13340000D02*
X43177500Y13340000D01*
X21393800Y14605000D02*
X21773500Y14605000D01*
X23685729Y2101400D02*
X24622400Y2101400D01*
X20544800Y18883400D02*
X20544800Y15454000D01*
X25515900Y16444152D02*
X25515900Y16453023D01*
X23298600Y17341400D02*
X22616100Y18023900D01*
X19483759Y20305920D02*
X21587500Y22409661D01*
X24627523Y17341400D02*
X23298600Y17341400D01*
X22225000Y21772161D02*
X22225000Y22857500D01*
X19483759Y19643859D02*
X19483759Y20305920D01*
X22616100Y18023900D02*
X22616100Y21381061D01*
X26080052Y15880000D02*
X25515900Y16444152D01*
X27937500Y15880000D02*
X26080052Y15880000D01*
X22225000Y22857500D02*
X21587500Y23495000D01*
X21587500Y22409661D02*
X21587500Y23495000D01*
X25515900Y16453023D02*
X24627523Y17341400D01*
X19710059Y19417559D02*
X19483759Y19643859D01*
X22616100Y21381061D02*
X22225000Y21772161D01*
X18265400Y17548600D02*
X18264559Y17549441D01*
X19644500Y25977713D02*
X21587500Y27920713D01*
X18264559Y20810928D02*
X19644500Y22190869D01*
X19644500Y22190869D02*
X19644500Y25977713D01*
X18264559Y17549441D02*
X18264559Y20810928D01*
X21587500Y27920713D02*
X21587500Y28575000D01*
X20254100Y24699100D02*
X21587500Y26032500D01*
X18874159Y20558424D02*
X20254100Y21938365D01*
X21587500Y26032500D02*
X21587500Y26035000D01*
X19418700Y17018000D02*
X19418700Y18427300D01*
X20254100Y21938365D02*
X20254100Y24699100D01*
X19418700Y18427300D02*
X18874159Y18971841D01*
X18874159Y18971841D02*
X18874159Y20558424D01*
X3812500Y41280000D02*
X5318900Y42786400D01*
X5318900Y47866400D02*
X6347500Y48895000D01*
X5318900Y42786400D02*
X5318900Y47866400D01*
D16*
X5080000Y35687000D02*
X5842000Y34925000D01*
X8255000Y34925000D02*
X19685000Y46355000D01*
X3812500Y38740000D02*
X5080000Y37472500D01*
X5842000Y34925000D02*
X8255000Y34925000D01*
X19685000Y46355000D02*
X21587500Y46355000D01*
X5080000Y37472500D02*
X5080000Y35687000D01*
D19*
X25211100Y50361400D02*
X24132500Y51440000D01*
X29718000Y35814000D02*
X29287600Y36244400D01*
X29287600Y36244400D02*
X29287600Y46464561D01*
X28363561Y47388600D02*
X26271400Y47388600D01*
X29287600Y46464561D02*
X28363561Y47388600D01*
X26271400Y47388600D02*
X25211100Y48448900D01*
X25211100Y48448900D02*
X25211100Y50361400D01*
X35560000Y17780000D02*
X35560000Y28575000D01*
X41342852Y29481800D02*
X42148900Y30287848D01*
X35560000Y28575000D02*
X36466800Y29481800D01*
X36466800Y29481800D02*
X41342852Y29481800D01*
X42148900Y30287848D02*
X42148900Y35171400D01*
X42148900Y35171400D02*
X43177500Y36200000D01*
X6274600Y27457500D02*
X5196700Y26379600D01*
X7160470Y27836100D02*
X6781870Y27457500D01*
X23126600Y44843600D02*
X21161439Y44843600D01*
X8344500Y28664500D02*
X7516100Y27836100D01*
X20254100Y39785204D02*
X19034900Y38566004D01*
X6781870Y27457500D02*
X6274600Y27457500D01*
X5002100Y14680400D02*
X6347500Y13335000D01*
X24132500Y45849500D02*
X23126600Y44843600D01*
X21161439Y44843600D02*
X20254100Y43936261D01*
X7516100Y27836100D02*
X7160470Y27836100D01*
X5196700Y26379600D02*
X5196700Y25311400D01*
X19034900Y34271160D02*
X18799740Y34036000D01*
X24132500Y46360000D02*
X24132500Y45849500D01*
X5196700Y25311400D02*
X5002100Y25116800D01*
X18799740Y34036000D02*
X11002688Y34036000D01*
X5002100Y25116800D02*
X5002100Y14680400D01*
X11002688Y34036000D02*
X8344500Y31377812D01*
X8344500Y31377812D02*
X8344500Y28664500D01*
X20254100Y43936261D02*
X20254100Y39785204D01*
X19034900Y38566004D02*
X19034900Y34271160D01*
X8825959Y25131326D02*
X7985700Y24291067D01*
X11633948Y32512000D02*
X9868500Y30746552D01*
X24132500Y42805371D02*
X24132500Y43820000D01*
X7985700Y24291067D02*
X7985700Y17513200D01*
X20558900Y33639900D02*
X19431000Y32512000D01*
X23053900Y39186771D02*
X23053900Y38309248D01*
X7985700Y17513200D02*
X6347500Y15875000D01*
X19431000Y32512000D02*
X11633948Y32512000D01*
X27937500Y41280000D02*
X25211100Y41280000D01*
X25211100Y41280000D02*
X25211100Y40833229D01*
X25211100Y41726771D02*
X24132500Y42805371D01*
X25211100Y40833229D02*
X24196471Y39818600D01*
X9868500Y28033240D02*
X8825959Y26990699D01*
X21968252Y37223600D02*
X21161439Y37223600D01*
X23685729Y39818600D02*
X23053900Y39186771D01*
X23053900Y38309248D02*
X21968252Y37223600D01*
X8825959Y26990699D02*
X8825959Y25131326D01*
X20558900Y36621061D02*
X20558900Y33639900D01*
X9868500Y30746552D02*
X9868500Y28033240D01*
X25211100Y41280000D02*
X25211100Y41726771D01*
X21161439Y37223600D02*
X20558900Y36621061D01*
X24196471Y39818600D02*
X23685729Y39818600D01*
X21035187Y37528400D02*
X20254100Y36747313D01*
X8521159Y25257578D02*
X7680900Y24417319D01*
X7680900Y24417319D02*
X7680900Y19748400D01*
X19304748Y32816800D02*
X11507696Y32816800D01*
X24132500Y41280000D02*
X23881000Y41280000D01*
X22616100Y40015100D02*
X22616100Y38302500D01*
X9563700Y28159492D02*
X8521159Y27116951D01*
X23881000Y41280000D02*
X22616100Y40015100D01*
X20254100Y33766152D02*
X19304748Y32816800D01*
X7680900Y19748400D02*
X6347500Y18415000D01*
X9563700Y30872804D02*
X9563700Y28159492D01*
X11507696Y32816800D02*
X9563700Y30872804D01*
X8521159Y27116951D02*
X8521159Y25257578D01*
X20254100Y36747313D02*
X20254100Y33766152D01*
X21842000Y37528400D02*
X21035187Y37528400D01*
X22616100Y38302500D02*
X21842000Y37528400D01*
X6350000Y20955000D02*
X6347500Y20955000D01*
X11381444Y33121600D02*
X9258900Y30999056D01*
X9258900Y30999056D02*
X9258900Y28285744D01*
X7376100Y21981100D02*
X6350000Y20955000D01*
X19949300Y33892404D02*
X19178496Y33121600D01*
X8216359Y27243203D02*
X8216359Y25383830D01*
X19178496Y33121600D02*
X11381444Y33121600D01*
X20193000Y37718500D02*
X19949300Y37474800D01*
X7376100Y24543571D02*
X7376100Y21981100D01*
X9258900Y28285744D02*
X8216359Y27243203D01*
X19949300Y37474800D02*
X19949300Y33892404D01*
X8216359Y25383830D02*
X7376100Y24543571D01*
X9130759Y26864447D02*
X10173300Y27906988D01*
X8516300Y23495000D02*
X8516300Y24390615D01*
X22860000Y32207200D02*
X22860000Y34927500D01*
X10173300Y27906988D02*
X10173300Y30620300D01*
X22860000Y34927500D02*
X24132500Y36200000D01*
X11760200Y32207200D02*
X22860000Y32207200D01*
X9130759Y25005074D02*
X9130759Y26864447D01*
X10173300Y30620300D02*
X11760200Y32207200D01*
X27937500Y33660000D02*
X27937500Y33525500D01*
X27937500Y33525500D02*
X26619200Y32207200D01*
X8516300Y24390615D02*
X9130759Y25005074D01*
X26619200Y32207200D02*
X22860000Y32207200D01*
X8649300Y28538248D02*
X8649300Y31251560D01*
X11128940Y33731200D02*
X18925992Y33731200D01*
X19339700Y34144908D02*
X19339700Y38439752D01*
X19339700Y38439752D02*
X20558900Y39658952D01*
X20558900Y39658952D02*
X20558900Y42786400D01*
X8649300Y31251560D02*
X11128940Y33731200D01*
X18925992Y33731200D02*
X19339700Y34144908D01*
X20558900Y42786400D02*
X21587500Y43815000D01*
X7380459Y27305000D02*
X7416052Y27305000D01*
X7416052Y27305000D02*
X8649300Y28538248D01*
X19339700Y26103965D02*
X20558900Y27323165D01*
X17734300Y18242300D02*
X17959759Y18467759D01*
X17734300Y17041100D02*
X17734300Y18242300D01*
X20558900Y27323165D02*
X20558900Y30086400D01*
X18288000Y16487400D02*
X17734300Y17041100D01*
X20558900Y30086400D02*
X21587500Y31115000D01*
X17959759Y18467759D02*
X17959759Y20937180D01*
X19339700Y22317121D02*
X19339700Y26103965D01*
X17959759Y20937180D02*
X19339700Y22317121D01*
X43177500Y43820000D02*
X41844100Y42486600D01*
X41844100Y30414100D02*
X41216600Y29786600D01*
X41844100Y42486600D02*
X41844100Y30414100D01*
X23437400Y27501400D02*
X22920900Y26984900D01*
X22920900Y22171600D02*
X24132500Y20960000D01*
X25273000Y29490896D02*
X25273000Y28067000D01*
X41216600Y29786600D02*
X25568704Y29786600D01*
X25568704Y29786600D02*
X25273000Y29490896D01*
X22920900Y26984900D02*
X22920900Y22171600D01*
X25273000Y28067000D02*
X24707400Y27501400D01*
X24707400Y27501400D02*
X23437400Y27501400D01*
X42987839Y14605000D02*
X42027639Y13644800D01*
X25211100Y6111048D02*
X25211100Y4256100D01*
X43177500Y31120000D02*
X43177500Y30091100D01*
X44249800Y29018800D02*
X44249800Y15497639D01*
X44249800Y15497639D02*
X43357161Y14605000D01*
X42027639Y13644800D02*
X32744852Y13644800D01*
X43177500Y30091100D02*
X44249800Y29018800D01*
X32744852Y13644800D02*
X25211100Y6111048D01*
X43357161Y14605000D02*
X42987839Y14605000D01*
X25211100Y4256100D02*
X24135000Y3180000D01*
X24135000Y3180000D02*
X24132500Y3180000D01*
X19644500Y34018656D02*
X19052244Y33426400D01*
X7911559Y27369455D02*
X7911559Y25510082D01*
X6106300Y14605100D02*
X6557400Y14605100D01*
X5310100Y15401300D02*
X6106300Y14605100D01*
X5810700Y2133700D02*
X4764400Y3180000D01*
X5310100Y23977900D02*
X5310100Y15401300D01*
X8954100Y31125308D02*
X8954100Y28411996D01*
X6097200Y24765000D02*
X5310100Y23977900D01*
X19052244Y33426400D02*
X11255192Y33426400D01*
X7911559Y25510082D02*
X7166477Y24765000D01*
X8954100Y28411996D02*
X7911559Y27369455D01*
X7419000Y13743500D02*
X7419000Y2751900D01*
X6557400Y14605100D02*
X7419000Y13743500D01*
X7419000Y2751900D02*
X6800800Y2133700D01*
X7166477Y24765000D02*
X6097200Y24765000D01*
X21587500Y41275000D02*
X21587500Y40256500D01*
X11255192Y33426400D02*
X8954100Y31125308D01*
X6800800Y2133700D02*
X5810700Y2133700D01*
X4764400Y3180000D02*
X3812500Y3180000D01*
X21587500Y40256500D02*
X19644500Y38313500D01*
X19644500Y38313500D02*
X19644500Y34018656D01*
X31242000Y12573000D02*
X24389000Y5720000D01*
X24389000Y5720000D02*
X24132500Y5720000D01*
X31242000Y14305300D02*
X31242000Y12573000D01*
G04 #@! TA.AperFunction,Conductor*
G36*
X25437684Y15484974D02*
G01*
X25455136Y15470419D01*
X26353921Y14571634D01*
X26363337Y14561099D01*
X26384092Y14535073D01*
X26428705Y14504656D01*
X26432509Y14501958D01*
X26475964Y14469886D01*
X26475966Y14469886D01*
X26481266Y14465974D01*
X26484070Y14464558D01*
X26490367Y14462616D01*
X26490370Y14462614D01*
X26541990Y14446692D01*
X26546391Y14445243D01*
X26588081Y14430655D01*
X26603596Y14425226D01*
X26606692Y14424700D01*
X26613285Y14424700D01*
X26667265Y14424700D01*
X26671976Y14424612D01*
X26725915Y14422594D01*
X26725915Y14422595D01*
X26732495Y14422348D01*
X26750363Y14424700D01*
X26868218Y14424700D01*
X26936339Y14404698D01*
X26982832Y14351042D01*
X26992936Y14280768D01*
X26963442Y14216188D01*
X26957313Y14209605D01*
X26931689Y14183982D01*
X26800412Y13996499D01*
X26703686Y13789071D01*
X26651417Y13594000D01*
X27625814Y13594000D01*
X27609859Y13578045D01*
X27552335Y13465148D01*
X27532514Y13340000D01*
X27552335Y13214852D01*
X27609859Y13101955D01*
X27625814Y13086000D01*
X26651418Y13086000D01*
X26703686Y12890930D01*
X26800412Y12683502D01*
X26931689Y12496019D01*
X27093518Y12334190D01*
X27281001Y12202913D01*
X27488429Y12106187D01*
X27683500Y12053918D01*
X27683500Y13028314D01*
X27699455Y13012359D01*
X27812352Y12954835D01*
X27906019Y12940000D01*
X27968981Y12940000D01*
X28062648Y12954835D01*
X28175545Y13012359D01*
X28191500Y13028314D01*
X28191500Y12053919D01*
X28386570Y12106187D01*
X28593998Y12202913D01*
X28781481Y12334190D01*
X28943310Y12496019D01*
X29074587Y12683502D01*
X29171313Y12890930D01*
X29223582Y13086000D01*
X28249186Y13086000D01*
X28265141Y13101955D01*
X28322665Y13214852D01*
X28342486Y13340000D01*
X28322665Y13465148D01*
X28265141Y13578045D01*
X28249186Y13594000D01*
X29223582Y13594000D01*
X29171313Y13789071D01*
X29074587Y13996499D01*
X28943310Y14183982D01*
X28781481Y14345811D01*
X28718071Y14390211D01*
X28673743Y14445668D01*
X28666434Y14516287D01*
X28691493Y14565859D01*
X28691436Y14565892D01*
X28692039Y14566938D01*
X28698465Y14579648D01*
X28704643Y14585791D01*
X28705767Y14586835D01*
X28716735Y14601131D01*
X29532001Y15416396D01*
X29594314Y15450421D01*
X29621097Y15453300D01*
X42026715Y15453300D01*
X42094836Y15433298D01*
X42139504Y15383465D01*
X42168932Y15324367D01*
X42195135Y15271743D01*
X42239265Y15213307D01*
X42323628Y15101593D01*
X42481198Y14957948D01*
X42504144Y14943740D01*
X42551532Y14890874D01*
X42562815Y14820779D01*
X42534411Y14755712D01*
X42526910Y14747518D01*
X41887799Y14108405D01*
X41825486Y14074380D01*
X41798703Y14071500D01*
X32775893Y14071500D01*
X32761786Y14072292D01*
X32728713Y14076019D01*
X32675660Y14065982D01*
X32671023Y14065194D01*
X32611169Y14056171D01*
X32608132Y14055172D01*
X32554604Y14026882D01*
X32550401Y14024761D01*
X32495843Y13998487D01*
X32493260Y13996654D01*
X32450436Y13953831D01*
X32447046Y13950565D01*
X32402650Y13909371D01*
X32391680Y13895075D01*
X31883796Y13387190D01*
X31821483Y13353165D01*
X31750668Y13358229D01*
X31693832Y13400776D01*
X31669021Y13467296D01*
X31668700Y13476285D01*
X31668700Y13594000D01*
X31668699Y13754222D01*
X31688701Y13822338D01*
X31711139Y13848524D01*
X31734367Y13869101D01*
X31824449Y13999607D01*
X31824502Y13999745D01*
X31853428Y14076018D01*
X31880682Y14147879D01*
X31899796Y14305300D01*
X31880682Y14462721D01*
X31851184Y14540500D01*
X31824450Y14610992D01*
X31807220Y14635954D01*
X31734367Y14741499D01*
X31615671Y14846655D01*
X31541975Y14885334D01*
X31475259Y14920350D01*
X31423935Y14933000D01*
X31321289Y14958300D01*
X31162711Y14958300D01*
X31103643Y14943741D01*
X31008740Y14920350D01*
X30868329Y14846655D01*
X30842745Y14823989D01*
X30749633Y14741499D01*
X30739965Y14727492D01*
X30659549Y14610992D01*
X30603317Y14462720D01*
X30584203Y14305300D01*
X30603317Y14147881D01*
X30659549Y13999609D01*
X30691148Y13953831D01*
X30749633Y13869101D01*
X30772853Y13848529D01*
X30810578Y13788386D01*
X30815299Y13754218D01*
X30815299Y12801935D01*
X30795297Y12733814D01*
X30778394Y12712840D01*
X24860842Y6795289D01*
X24798530Y6761263D01*
X24727715Y6766328D01*
X24705416Y6777257D01*
X24669902Y6799247D01*
X24591187Y6829741D01*
X24480788Y6872510D01*
X24424496Y6915768D01*
X24400525Y6982595D01*
X24416489Y7051774D01*
X24467319Y7101339D01*
X24480779Y7107487D01*
X24669901Y7180753D01*
X24669902Y7180755D01*
X24669905Y7180755D01*
X24827875Y7278566D01*
X24859062Y7297876D01*
X25023481Y7447764D01*
X25157558Y7625311D01*
X25256729Y7824472D01*
X25317615Y8038464D01*
X25338143Y8260000D01*
X25317615Y8481536D01*
X25256729Y8695528D01*
X25157558Y8894689D01*
X25023481Y9072236D01*
X24859062Y9222124D01*
X24859059Y9222126D01*
X24859058Y9222127D01*
X24669905Y9339246D01*
X24591066Y9369788D01*
X24480788Y9412510D01*
X24424496Y9455768D01*
X24400525Y9522595D01*
X24416489Y9591774D01*
X24467319Y9641339D01*
X24480779Y9647487D01*
X24669901Y9720753D01*
X24669902Y9720755D01*
X24669905Y9720755D01*
X24823062Y9815586D01*
X24859062Y9837876D01*
X25023481Y9987764D01*
X25157558Y10165311D01*
X25256729Y10364472D01*
X25317615Y10578464D01*
X25338143Y10800000D01*
X25317615Y11021536D01*
X25256729Y11235528D01*
X25157558Y11434689D01*
X25023481Y11612236D01*
X24859062Y11762124D01*
X24859059Y11762126D01*
X24859058Y11762127D01*
X24669905Y11879246D01*
X24591066Y11909788D01*
X24480788Y11952510D01*
X24424496Y11995768D01*
X24400525Y12062595D01*
X24416489Y12131774D01*
X24467319Y12181339D01*
X24480779Y12187487D01*
X24669901Y12260753D01*
X24669902Y12260755D01*
X24669905Y12260755D01*
X24823062Y12355586D01*
X24859062Y12377876D01*
X25023481Y12527764D01*
X25157558Y12705311D01*
X25256729Y12904472D01*
X25317615Y13118464D01*
X25338143Y13340000D01*
X25317615Y13561536D01*
X25256729Y13775528D01*
X25157558Y13974689D01*
X25023481Y14152236D01*
X24859062Y14302124D01*
X24859059Y14302126D01*
X24859058Y14302127D01*
X24669905Y14419246D01*
X24557958Y14462614D01*
X24480788Y14492510D01*
X24424496Y14535768D01*
X24400525Y14602595D01*
X24416489Y14671774D01*
X24467319Y14721339D01*
X24480779Y14727487D01*
X24669901Y14800753D01*
X24669902Y14800755D01*
X24669905Y14800755D01*
X24773160Y14864688D01*
X24859062Y14917876D01*
X25023481Y15067764D01*
X25157558Y15245311D01*
X25253251Y15437490D01*
X25301520Y15489551D01*
X25370274Y15507253D01*
X25437684Y15484974D01*
G37*
G04 #@! TD.AperFunction*
G04 #@! TA.AperFunction,Conductor*
G36*
X42651063Y30088561D02*
G01*
X42651591Y30089921D01*
X42662478Y30085704D01*
X42662481Y30085702D01*
X42683841Y30077428D01*
X42740136Y30034171D01*
X42762919Y29978717D01*
X42766130Y29957413D01*
X42767127Y29954382D01*
X42795417Y29900853D01*
X42797538Y29896651D01*
X42829201Y29830904D01*
X42826192Y29829455D01*
X42843948Y29793833D01*
X42836239Y29723256D01*
X42791597Y29668051D01*
X42765429Y29654181D01*
X42662481Y29614299D01*
X42481198Y29502053D01*
X42360736Y29392236D01*
X42328613Y29362951D01*
X42323627Y29358406D01*
X42195135Y29188258D01*
X42100094Y28997388D01*
X42041744Y28792313D01*
X42022071Y28580001D01*
X42041744Y28367688D01*
X42100094Y28162613D01*
X42195135Y27971743D01*
X42225650Y27931335D01*
X42323628Y27801593D01*
X42481198Y27657948D01*
X42662481Y27545702D01*
X42744603Y27513888D01*
X42800898Y27470630D01*
X42824869Y27403803D01*
X42808906Y27334624D01*
X42758076Y27285058D01*
X42731706Y27274692D01*
X42728432Y27273815D01*
X42521001Y27177088D01*
X42333518Y27045811D01*
X42171689Y26883982D01*
X42040412Y26696499D01*
X41943686Y26489071D01*
X41891417Y26294000D01*
X42865814Y26294000D01*
X42849859Y26278045D01*
X42792335Y26165148D01*
X42772514Y26040000D01*
X42792335Y25914852D01*
X42849859Y25801955D01*
X42865814Y25786000D01*
X41891418Y25786000D01*
X41943686Y25590930D01*
X42040412Y25383502D01*
X42171689Y25196019D01*
X42333518Y25034190D01*
X42521001Y24902913D01*
X42728428Y24806187D01*
X42731698Y24805311D01*
X42736226Y24802552D01*
X42738420Y24801528D01*
X42738305Y24801284D01*
X42792321Y24768360D01*
X42823342Y24704499D01*
X42814914Y24634004D01*
X42769711Y24579257D01*
X42744603Y24566112D01*
X42662479Y24534298D01*
X42481198Y24422053D01*
X42323627Y24278406D01*
X42195135Y24108258D01*
X42100094Y23917388D01*
X42041744Y23712313D01*
X42022071Y23500000D01*
X42041744Y23287688D01*
X42100094Y23082613D01*
X42195135Y22891743D01*
X42204040Y22879951D01*
X42323628Y22721593D01*
X42481198Y22577948D01*
X42662478Y22465703D01*
X42676825Y22460145D01*
X42861302Y22388679D01*
X43047597Y22353855D01*
X43110880Y22321677D01*
X43146722Y22260392D01*
X43143741Y22189458D01*
X43102884Y22131396D01*
X43047595Y22106147D01*
X42861306Y22071323D01*
X42662478Y21994298D01*
X42481198Y21882053D01*
X42323627Y21738406D01*
X42195135Y21568258D01*
X42100094Y21377388D01*
X42041744Y21172313D01*
X42022071Y20960000D01*
X42041744Y20747688D01*
X42100094Y20542613D01*
X42195135Y20351743D01*
X42198911Y20346743D01*
X42323628Y20181593D01*
X42471327Y20046947D01*
X42481198Y20037948D01*
X42662478Y19925703D01*
X42676825Y19920145D01*
X42861302Y19848679D01*
X43047596Y19813855D01*
X43110880Y19781676D01*
X43146722Y19720391D01*
X43143741Y19649457D01*
X43102883Y19591395D01*
X43047596Y19566146D01*
X42929364Y19544044D01*
X42861301Y19531321D01*
X42662478Y19454298D01*
X42481198Y19342053D01*
X42323627Y19198406D01*
X42195135Y19028258D01*
X42100094Y18837388D01*
X42041744Y18632313D01*
X42022071Y18420001D01*
X42041744Y18207688D01*
X42100094Y18002613D01*
X42195135Y17811743D01*
X42215094Y17785314D01*
X42323628Y17641593D01*
X42470665Y17507550D01*
X42481198Y17497948D01*
X42662478Y17385703D01*
X42688041Y17375800D01*
X42861302Y17308679D01*
X43047596Y17273855D01*
X43110880Y17241676D01*
X43146722Y17180391D01*
X43143741Y17109457D01*
X43102883Y17051395D01*
X43047596Y17026146D01*
X42922066Y17002680D01*
X42861301Y16991321D01*
X42662478Y16914298D01*
X42481198Y16802053D01*
X42323627Y16658406D01*
X42195135Y16488258D01*
X42188910Y16475756D01*
X42139504Y16376536D01*
X42091237Y16324474D01*
X42026715Y16306700D01*
X29423202Y16306700D01*
X29409095Y16307492D01*
X29376022Y16311219D01*
X29322969Y16301182D01*
X29318332Y16300394D01*
X29258478Y16291371D01*
X29255441Y16290372D01*
X29201913Y16262082D01*
X29197711Y16259961D01*
X29177331Y16250146D01*
X29107278Y16238609D01*
X29042108Y16266778D01*
X29009868Y16307504D01*
X29008019Y16311218D01*
X28919866Y16488255D01*
X28914497Y16495364D01*
X28858275Y16569814D01*
X28791372Y16658407D01*
X28633802Y16802052D01*
X28633801Y16802053D01*
X28452521Y16914298D01*
X28253698Y16991321D01*
X28244898Y16992966D01*
X28067402Y17026146D01*
X28004119Y17058324D01*
X27968277Y17119609D01*
X27971258Y17190543D01*
X28012116Y17248605D01*
X28067401Y17273855D01*
X28253698Y17308679D01*
X28452519Y17385702D01*
X28633802Y17497948D01*
X28791372Y17641593D01*
X28919866Y17811745D01*
X29014905Y18002611D01*
X29073256Y18207690D01*
X29092929Y18420000D01*
X29073256Y18632310D01*
X29014905Y18837389D01*
X28919866Y19028255D01*
X28791372Y19198407D01*
X28633802Y19342052D01*
X28633801Y19342053D01*
X28452521Y19454298D01*
X28253698Y19531321D01*
X28244898Y19532966D01*
X28067402Y19566146D01*
X28004119Y19598324D01*
X27968277Y19659609D01*
X27971258Y19730543D01*
X28012116Y19788605D01*
X28067401Y19813855D01*
X28253698Y19848679D01*
X28452519Y19925702D01*
X28633802Y20037948D01*
X28791372Y20181593D01*
X28919866Y20351745D01*
X29014905Y20542611D01*
X29073256Y20747690D01*
X29092929Y20960000D01*
X29073256Y21172310D01*
X29014905Y21377389D01*
X28919866Y21568255D01*
X28791372Y21738407D01*
X28633802Y21882052D01*
X28633801Y21882053D01*
X28452521Y21994298D01*
X28253693Y22071323D01*
X28067404Y22106147D01*
X28004118Y22138326D01*
X27968277Y22199611D01*
X27971258Y22270545D01*
X28012116Y22328606D01*
X28067399Y22353854D01*
X28253698Y22388679D01*
X28452519Y22465702D01*
X28633802Y22577948D01*
X28791372Y22721593D01*
X28919866Y22891745D01*
X29014905Y23082611D01*
X29073256Y23287690D01*
X29092929Y23500000D01*
X29073256Y23712310D01*
X29014905Y23917389D01*
X28919866Y24108255D01*
X28791372Y24278407D01*
X28633802Y24422052D01*
X28633801Y24422053D01*
X28452521Y24534298D01*
X28253698Y24611321D01*
X28253697Y24611321D01*
X28067402Y24646146D01*
X28004119Y24678324D01*
X27968277Y24739609D01*
X27971258Y24810543D01*
X28012116Y24868605D01*
X28067401Y24893855D01*
X28253698Y24928679D01*
X28452519Y25005702D01*
X28472207Y25017892D01*
X28569022Y25077838D01*
X28633802Y25117948D01*
X28791372Y25261593D01*
X28919866Y25431745D01*
X29014905Y25622611D01*
X29073256Y25827690D01*
X29092929Y26040000D01*
X29073256Y26252310D01*
X29014905Y26457389D01*
X28919866Y26648255D01*
X28912363Y26658190D01*
X28862207Y26724607D01*
X28791372Y26818407D01*
X28633802Y26962052D01*
X28633801Y26962053D01*
X28452521Y27074298D01*
X28253698Y27151321D01*
X28238297Y27154200D01*
X28067402Y27186146D01*
X28004119Y27218324D01*
X27968277Y27279609D01*
X27971258Y27350543D01*
X28012116Y27408605D01*
X28067401Y27433855D01*
X28253698Y27468679D01*
X28452519Y27545702D01*
X28633802Y27657948D01*
X28791372Y27801593D01*
X28919866Y27971745D01*
X29014905Y28162611D01*
X29073256Y28367690D01*
X29092929Y28580000D01*
X29073256Y28792310D01*
X29014905Y28997389D01*
X28925102Y29177738D01*
X28912645Y29247632D01*
X28939952Y29313167D01*
X28998355Y29353536D01*
X29037894Y29359900D01*
X35437264Y29359900D01*
X35505385Y29339898D01*
X35551878Y29286242D01*
X35561982Y29215968D01*
X35532488Y29151388D01*
X35526365Y29144811D01*
X35456049Y29074495D01*
X35280226Y28898673D01*
X35269693Y28889260D01*
X35243672Y28868509D01*
X35213260Y28823903D01*
X35210536Y28820064D01*
X35174584Y28771350D01*
X35173151Y28768511D01*
X35155300Y28710645D01*
X35153830Y28706177D01*
X35133833Y28649026D01*
X35133300Y28645883D01*
X35133300Y28585353D01*
X35133212Y28580642D01*
X35130946Y28520104D01*
X35133300Y28502234D01*
X35133300Y18331084D01*
X35113298Y18262963D01*
X35090855Y18236773D01*
X35067635Y18216202D01*
X34977549Y18085692D01*
X34921317Y17937420D01*
X34902203Y17780001D01*
X34921317Y17622581D01*
X34977549Y17474309D01*
X35003801Y17436277D01*
X35067633Y17343801D01*
X35186329Y17238645D01*
X35326742Y17164950D01*
X35480711Y17127000D01*
X35480713Y17127000D01*
X35639287Y17127000D01*
X35639289Y17127000D01*
X35793258Y17164950D01*
X35933671Y17238645D01*
X36052367Y17343801D01*
X36142449Y17474307D01*
X36198682Y17622579D01*
X36217796Y17780000D01*
X36198682Y17937421D01*
X36173958Y18002613D01*
X36142450Y18085692D01*
X36119928Y18118320D01*
X36052367Y18216199D01*
X36052364Y18216202D01*
X36029145Y18236773D01*
X35991421Y18296918D01*
X35986700Y18331084D01*
X35986700Y28346065D01*
X36006702Y28414186D01*
X36023605Y28435160D01*
X36606640Y29018195D01*
X36668952Y29052221D01*
X36695735Y29055100D01*
X41311811Y29055100D01*
X41325918Y29054308D01*
X41358987Y29050582D01*
X41412052Y29060623D01*
X41416630Y29061401D01*
X41470045Y29069451D01*
X41470048Y29069453D01*
X41476559Y29070434D01*
X41479550Y29071418D01*
X41485370Y29074495D01*
X41485374Y29074495D01*
X41533131Y29099737D01*
X41537268Y29101825D01*
X41585936Y29125261D01*
X41585937Y29125263D01*
X41591888Y29128128D01*
X41594423Y29129927D01*
X41599094Y29134599D01*
X41599097Y29134600D01*
X41637289Y29172794D01*
X41640627Y29176009D01*
X41680228Y29212752D01*
X41680229Y29212755D01*
X41685056Y29217233D01*
X41696027Y29231532D01*
X42428677Y29964182D01*
X42439192Y29973580D01*
X42465227Y29994340D01*
X42495671Y30038996D01*
X42498321Y30042730D01*
X42502618Y30048553D01*
X42559165Y30091478D01*
X42629945Y30097019D01*
X42651063Y30088561D01*
G37*
G04 #@! TD.AperFunction*
G04 #@! TA.AperFunction,Conductor*
G36*
X26905227Y29339898D02*
G01*
X26951720Y29286242D01*
X26961824Y29215968D01*
X26949897Y29177739D01*
X26941723Y29161322D01*
X26860094Y28997388D01*
X26801744Y28792313D01*
X26782071Y28580001D01*
X26801744Y28367688D01*
X26860094Y28162613D01*
X26955135Y27971743D01*
X26985650Y27931335D01*
X27083628Y27801593D01*
X27205737Y27690275D01*
X27241198Y27657948D01*
X27422478Y27545703D01*
X27422481Y27545702D01*
X27621302Y27468679D01*
X27807596Y27433855D01*
X27870880Y27401676D01*
X27906722Y27340391D01*
X27903741Y27269457D01*
X27862883Y27211395D01*
X27807596Y27186146D01*
X27682066Y27162680D01*
X27621301Y27151321D01*
X27422478Y27074298D01*
X27241198Y26962053D01*
X27083627Y26818406D01*
X26955135Y26648258D01*
X26860094Y26457388D01*
X26801744Y26252313D01*
X26782071Y26040000D01*
X26801744Y25827688D01*
X26860094Y25622613D01*
X26955135Y25431743D01*
X26975096Y25405311D01*
X27083628Y25261593D01*
X27226816Y25131059D01*
X27241198Y25117948D01*
X27422478Y25005703D01*
X27450777Y24994740D01*
X27621302Y24928679D01*
X27807596Y24893855D01*
X27870880Y24861676D01*
X27906722Y24800391D01*
X27903741Y24729457D01*
X27862883Y24671395D01*
X27807596Y24646146D01*
X27682066Y24622680D01*
X27621301Y24611321D01*
X27422478Y24534298D01*
X27241198Y24422053D01*
X27083627Y24278406D01*
X26955135Y24108258D01*
X26860094Y23917388D01*
X26801744Y23712313D01*
X26782071Y23500000D01*
X26801744Y23287688D01*
X26860094Y23082613D01*
X26955135Y22891743D01*
X26964040Y22879951D01*
X27083628Y22721593D01*
X27241197Y22577949D01*
X27241198Y22577948D01*
X27422478Y22465703D01*
X27436825Y22460145D01*
X27621302Y22388679D01*
X27807597Y22353855D01*
X27870880Y22321677D01*
X27906722Y22260392D01*
X27903741Y22189458D01*
X27862884Y22131396D01*
X27807595Y22106147D01*
X27621306Y22071323D01*
X27422478Y21994298D01*
X27241198Y21882053D01*
X27083627Y21738406D01*
X26955135Y21568258D01*
X26860094Y21377388D01*
X26801744Y21172313D01*
X26782071Y20960000D01*
X26801744Y20747688D01*
X26860094Y20542613D01*
X26955135Y20351743D01*
X26958911Y20346743D01*
X27083628Y20181593D01*
X27231327Y20046947D01*
X27241198Y20037948D01*
X27422478Y19925703D01*
X27436825Y19920145D01*
X27621302Y19848679D01*
X27807596Y19813855D01*
X27870880Y19781676D01*
X27906722Y19720391D01*
X27903741Y19649457D01*
X27862883Y19591395D01*
X27807596Y19566146D01*
X27689364Y19544044D01*
X27621301Y19531321D01*
X27422478Y19454298D01*
X27241198Y19342053D01*
X27083627Y19198406D01*
X26955135Y19028258D01*
X26860094Y18837388D01*
X26801744Y18632313D01*
X26782071Y18420001D01*
X26801744Y18207688D01*
X26860094Y18002613D01*
X26955135Y17811743D01*
X26975094Y17785314D01*
X27083628Y17641593D01*
X27230665Y17507550D01*
X27241198Y17497948D01*
X27422478Y17385703D01*
X27448041Y17375800D01*
X27621302Y17308679D01*
X27807596Y17273855D01*
X27870880Y17241676D01*
X27906722Y17180391D01*
X27903741Y17109457D01*
X27862883Y17051395D01*
X27807596Y17026146D01*
X27682066Y17002680D01*
X27621301Y16991321D01*
X27422478Y16914298D01*
X27241198Y16802053D01*
X27083627Y16658406D01*
X26955135Y16488258D01*
X26948910Y16475756D01*
X26899504Y16376536D01*
X26851237Y16324474D01*
X26786715Y16306700D01*
X26308987Y16306700D01*
X26240866Y16326702D01*
X26219892Y16343605D01*
X25892268Y16671229D01*
X25881686Y16686142D01*
X25878187Y16689913D01*
X25867761Y16704607D01*
X25824944Y16747424D01*
X25821675Y16750817D01*
X25780472Y16795223D01*
X25766169Y16806199D01*
X25075678Y17496690D01*
X25041652Y17559002D01*
X25046717Y17629817D01*
X25064217Y17661708D01*
X25157558Y17785311D01*
X25256729Y17984472D01*
X25317615Y18198464D01*
X25338143Y18420000D01*
X25317615Y18641536D01*
X25256729Y18855528D01*
X25157558Y19054689D01*
X25023481Y19232236D01*
X24859062Y19382124D01*
X24859059Y19382126D01*
X24859058Y19382127D01*
X24669905Y19499246D01*
X24591066Y19529788D01*
X24480788Y19572510D01*
X24424496Y19615768D01*
X24400525Y19682595D01*
X24416489Y19751774D01*
X24467319Y19801339D01*
X24480779Y19807487D01*
X24669901Y19880753D01*
X24669902Y19880755D01*
X24669905Y19880755D01*
X24796136Y19958914D01*
X24859062Y19997876D01*
X25023481Y20147764D01*
X25157558Y20325311D01*
X25256729Y20524472D01*
X25317615Y20738464D01*
X25338143Y20960000D01*
X25317615Y21181536D01*
X25256729Y21395528D01*
X25157558Y21594689D01*
X25023481Y21772236D01*
X24859062Y21922124D01*
X24859059Y21922126D01*
X24859058Y21922127D01*
X24675954Y22035500D01*
X24628566Y22088367D01*
X24617283Y22158461D01*
X24645687Y22223528D01*
X24682315Y22253441D01*
X24877799Y22359232D01*
X25055403Y22497467D01*
X25207821Y22663038D01*
X25330919Y22851452D01*
X25421322Y23057549D01*
X25469044Y23246000D01*
X24563616Y23246000D01*
X24591993Y23290156D01*
X24632500Y23428111D01*
X24632500Y23571889D01*
X24591993Y23709844D01*
X24563616Y23754000D01*
X25469044Y23754000D01*
X25469044Y23754001D01*
X25421322Y23942452D01*
X25330919Y24148549D01*
X25207821Y24336963D01*
X25055403Y24502534D01*
X24877802Y24640767D01*
X24682314Y24746560D01*
X24631924Y24796574D01*
X24616572Y24865891D01*
X24641133Y24932504D01*
X24675950Y24964499D01*
X24859062Y25077876D01*
X25023481Y25227764D01*
X25157558Y25405311D01*
X25256729Y25604472D01*
X25317615Y25818464D01*
X25338143Y26040000D01*
X25317615Y26261536D01*
X25256729Y26475528D01*
X25157558Y26674689D01*
X25023481Y26852236D01*
X24926083Y26941026D01*
X24889217Y27001699D01*
X24891006Y27072673D01*
X24930882Y27131413D01*
X24956306Y27147665D01*
X24956438Y27147729D01*
X24958971Y27149527D01*
X24963642Y27154199D01*
X24963645Y27154200D01*
X25001837Y27192394D01*
X25005175Y27195609D01*
X25044776Y27232352D01*
X25044777Y27232355D01*
X25049604Y27236833D01*
X25060575Y27251132D01*
X25552777Y27743334D01*
X25563292Y27752732D01*
X25589327Y27773492D01*
X25619771Y27818148D01*
X25622417Y27821877D01*
X25654514Y27865364D01*
X25654515Y27865367D01*
X25658435Y27870678D01*
X25659840Y27873463D01*
X25661784Y27879769D01*
X25661786Y27879770D01*
X25677709Y27931394D01*
X25679145Y27935760D01*
X25696997Y27986775D01*
X25696997Y27986777D01*
X25699175Y27993000D01*
X25699700Y27996088D01*
X25699700Y28056666D01*
X25699788Y28061377D01*
X25702052Y28121898D01*
X25699700Y28139764D01*
X25699700Y29233900D01*
X25719702Y29302021D01*
X25773358Y29348514D01*
X25825700Y29359900D01*
X26837106Y29359900D01*
X26905227Y29339898D01*
G37*
G04 #@! TD.AperFunction*
G04 #@! TA.AperFunction,Conductor*
G36*
X21102921Y54374498D02*
G01*
X21149414Y54320842D01*
X21160799Y54268501D01*
X21160799Y53417037D01*
X21160799Y52589825D01*
X21140797Y52521704D01*
X21087141Y52475211D01*
X21080316Y52472334D01*
X21072481Y52469300D01*
X20891198Y52357053D01*
X20733627Y52213406D01*
X20605135Y52043258D01*
X20510094Y51852388D01*
X20451744Y51647313D01*
X20432071Y51435001D01*
X20451744Y51222688D01*
X20510094Y51017613D01*
X20605135Y50826743D01*
X20659785Y50754376D01*
X20733628Y50656593D01*
X20857441Y50543722D01*
X20891198Y50512948D01*
X21072478Y50400703D01*
X21072481Y50400702D01*
X21271302Y50323679D01*
X21457596Y50288855D01*
X21520880Y50256676D01*
X21556722Y50195391D01*
X21553741Y50124457D01*
X21512883Y50066395D01*
X21457596Y50041146D01*
X21332066Y50017680D01*
X21271301Y50006321D01*
X21072478Y49929298D01*
X20891198Y49817053D01*
X20733627Y49673406D01*
X20605135Y49503258D01*
X20510094Y49312388D01*
X20451744Y49107313D01*
X20432071Y48895001D01*
X20451744Y48682688D01*
X20510094Y48477613D01*
X20605135Y48286743D01*
X20669380Y48201669D01*
X20733628Y48116593D01*
X20878815Y47984237D01*
X20891198Y47972948D01*
X21072478Y47860703D01*
X21072481Y47860702D01*
X21271302Y47783679D01*
X21457596Y47748855D01*
X21520880Y47716676D01*
X21556722Y47655391D01*
X21553741Y47584457D01*
X21512883Y47526395D01*
X21457596Y47501146D01*
X21332066Y47477680D01*
X21271301Y47466321D01*
X21072478Y47389298D01*
X20891198Y47277053D01*
X20776221Y47172236D01*
X20733628Y47133407D01*
X20605134Y46963255D01*
X20605132Y46963252D01*
X20599330Y46955568D01*
X20542316Y46913260D01*
X20498780Y46905500D01*
X19696561Y46905500D01*
X19692260Y46905573D01*
X19687233Y46905745D01*
X19628174Y46907762D01*
X19628173Y46907762D01*
X19628172Y46907762D01*
X19588353Y46898059D01*
X19575681Y46895651D01*
X19535079Y46890071D01*
X19518771Y46882987D01*
X19498411Y46876140D01*
X19481149Y46871934D01*
X19445416Y46851843D01*
X19433873Y46846111D01*
X19413036Y46837059D01*
X19396277Y46829779D01*
X19382493Y46818565D01*
X19364738Y46806481D01*
X19349242Y46797768D01*
X19320255Y46768782D01*
X19310683Y46760143D01*
X19278889Y46734276D01*
X19268637Y46719753D01*
X19254798Y46703325D01*
X8063880Y35512405D01*
X8001568Y35478379D01*
X7974785Y35475500D01*
X7477969Y35475500D01*
X7409848Y35495502D01*
X7363355Y35549158D01*
X7353251Y35619432D01*
X7365176Y35657660D01*
X7424905Y35777611D01*
X7483256Y35982690D01*
X7493843Y36096957D01*
X7520045Y36162939D01*
X7530203Y36174416D01*
X8831331Y37475545D01*
X8838831Y37482460D01*
X8879100Y37516663D01*
X8927095Y37579802D01*
X8929124Y37582397D01*
X8978842Y37644246D01*
X8978844Y37644252D01*
X8979010Y37644457D01*
X8990939Y37663689D01*
X8991052Y37663934D01*
X8991054Y37663936D01*
X9024352Y37735911D01*
X9025796Y37738925D01*
X9061036Y37809979D01*
X9061036Y37809983D01*
X9061163Y37810237D01*
X9068671Y37831562D01*
X9068729Y37831828D01*
X9068732Y37831833D01*
X9085787Y37909320D01*
X9086549Y37912568D01*
X9105684Y37989505D01*
X9105684Y37989507D01*
X9105748Y37989764D01*
X9108500Y38012235D01*
X9108500Y38091756D01*
X9108546Y38095168D01*
X9110700Y38174698D01*
X9108500Y38197842D01*
X9108500Y52030440D01*
X9108913Y52040634D01*
X9113195Y52093390D01*
X9102491Y52171799D01*
X9102078Y52175161D01*
X9093514Y52253910D01*
X9093513Y52253913D01*
X9093495Y52254079D01*
X9088234Y52276516D01*
X9088173Y52276681D01*
X9088173Y52276684D01*
X9060843Y52351015D01*
X9059729Y52354177D01*
X9034444Y52429221D01*
X9034440Y52429227D01*
X9034388Y52429383D01*
X9024425Y52450171D01*
X9012191Y52469300D01*
X8981679Y52517007D01*
X8979895Y52519883D01*
X8939070Y52587736D01*
X8938984Y52587879D01*
X8924786Y52606036D01*
X8868704Y52662089D01*
X8866301Y52664558D01*
X8811740Y52722157D01*
X8793663Y52737092D01*
X7591696Y53938435D01*
X7350624Y54179382D01*
X7316583Y54241685D01*
X7321630Y54312502D01*
X7364162Y54369349D01*
X7430676Y54394177D01*
X7439697Y54394500D01*
X21034800Y54394500D01*
X21102921Y54374498D01*
G37*
G04 #@! TD.AperFunction*
G04 #@! TA.AperFunction,Conductor*
G36*
X20566901Y45784498D02*
G01*
X20599330Y45754432D01*
X20605132Y45746749D01*
X20605134Y45746745D01*
X20733628Y45576593D01*
X20765250Y45547766D01*
X20891196Y45432949D01*
X20919226Y45415594D01*
X20966614Y45362727D01*
X20977897Y45292633D01*
X20949494Y45227566D01*
X20931670Y45213697D01*
X20932270Y45213050D01*
X20924539Y45205878D01*
X20909847Y45195454D01*
X20867023Y45152631D01*
X20863633Y45149365D01*
X20819239Y45108172D01*
X20808264Y45093872D01*
X19974331Y44259939D01*
X19963798Y44250525D01*
X19937772Y44229770D01*
X19907360Y44185164D01*
X19904636Y44181325D01*
X19868684Y44132611D01*
X19867251Y44129772D01*
X19849400Y44071906D01*
X19847930Y44067438D01*
X19827933Y44010287D01*
X19827400Y44007144D01*
X19827400Y43946614D01*
X19827312Y43941903D01*
X19825046Y43881365D01*
X19827400Y43863495D01*
X19827400Y40014140D01*
X19807398Y39946019D01*
X19790495Y39925045D01*
X18755131Y38889682D01*
X18744598Y38880268D01*
X18718572Y38859513D01*
X18688160Y38814907D01*
X18685436Y38811068D01*
X18649484Y38762354D01*
X18648051Y38759515D01*
X18630200Y38701649D01*
X18628730Y38697181D01*
X18608733Y38640030D01*
X18608200Y38636887D01*
X18608200Y38576357D01*
X18608112Y38571646D01*
X18605846Y38511107D01*
X18608199Y38493238D01*
X18608200Y34588700D01*
X18588198Y34520579D01*
X18534542Y34474086D01*
X18482200Y34462700D01*
X11033737Y34462700D01*
X11019630Y34463492D01*
X10986554Y34467219D01*
X10986553Y34467219D01*
X10933509Y34457183D01*
X10928886Y34456398D01*
X10868994Y34447370D01*
X10865977Y34446377D01*
X10812457Y34418091D01*
X10808254Y34415969D01*
X10753679Y34389687D01*
X10751096Y34387854D01*
X10708272Y34345031D01*
X10704882Y34341765D01*
X10660488Y34300572D01*
X10649513Y34286272D01*
X8064731Y31701490D01*
X8054198Y31692076D01*
X8028172Y31671321D01*
X7997760Y31626715D01*
X7995036Y31622876D01*
X7959084Y31574162D01*
X7957651Y31571323D01*
X7939800Y31513457D01*
X7938330Y31508989D01*
X7918333Y31451838D01*
X7917800Y31448695D01*
X7917800Y31388165D01*
X7917712Y31383454D01*
X7915446Y31322916D01*
X7917800Y31305046D01*
X7917800Y30133335D01*
X7897798Y30065214D01*
X7844142Y30018721D01*
X7773868Y30008617D01*
X7709288Y30038111D01*
X7702705Y30044240D01*
X7380774Y30366171D01*
X7371358Y30376707D01*
X7356041Y30395914D01*
X7329207Y30461644D01*
X7341760Y30530633D01*
X7424905Y30697611D01*
X7483256Y30902690D01*
X7502929Y31115000D01*
X7483256Y31327310D01*
X7424905Y31532389D01*
X7329866Y31723255D01*
X7321928Y31733766D01*
X7286636Y31780500D01*
X7201372Y31893407D01*
X7043802Y32037052D01*
X7043801Y32037053D01*
X6862521Y32149298D01*
X6663698Y32226321D01*
X6662403Y32226563D01*
X6477402Y32261146D01*
X6414119Y32293324D01*
X6378277Y32354609D01*
X6381258Y32425543D01*
X6422116Y32483605D01*
X6477401Y32508855D01*
X6663698Y32543679D01*
X6862519Y32620702D01*
X6868967Y32624694D01*
X6957476Y32679497D01*
X7043802Y32732948D01*
X7201372Y32876593D01*
X7329866Y33046745D01*
X7424905Y33237611D01*
X7483256Y33442690D01*
X7502929Y33655000D01*
X7483256Y33867310D01*
X7424905Y34072389D01*
X7365177Y34192339D01*
X7352720Y34262232D01*
X7380027Y34327767D01*
X7438430Y34368135D01*
X7477969Y34374500D01*
X8243439Y34374500D01*
X8247740Y34374427D01*
X8311826Y34372238D01*
X8351642Y34381942D01*
X8364295Y34384348D01*
X8404920Y34389930D01*
X8421225Y34397014D01*
X8441586Y34403861D01*
X8458852Y34408067D01*
X8494584Y34428159D01*
X8506122Y34433890D01*
X8543720Y34450220D01*
X8557501Y34461433D01*
X8575264Y34473523D01*
X8590759Y34482234D01*
X8619742Y34511219D01*
X8629311Y34519855D01*
X8661108Y34545722D01*
X8671359Y34560246D01*
X8685197Y34576674D01*
X19876119Y45767596D01*
X19938431Y45801621D01*
X19965214Y45804500D01*
X20498780Y45804500D01*
X20566901Y45784498D01*
G37*
G04 #@! TD.AperFunction*
G04 #@! TA.AperFunction,Conductor*
G36*
X27184518Y54374498D02*
G01*
X27201283Y54361615D01*
X27216855Y54347419D01*
X27243698Y54322948D01*
X27424978Y54210703D01*
X27424981Y54210702D01*
X27623802Y54133679D01*
X27833390Y54094500D01*
X27833392Y54094500D01*
X28046608Y54094500D01*
X28046610Y54094500D01*
X28256198Y54133679D01*
X28455019Y54210702D01*
X28636302Y54322948D01*
X28678716Y54361615D01*
X28742533Y54392726D01*
X28763603Y54394500D01*
X35641517Y54394500D01*
X35709638Y54374498D01*
X35730612Y54357595D01*
X36868929Y53219279D01*
X36875856Y53211767D01*
X36910059Y53171500D01*
X36910062Y53171498D01*
X36973159Y53123533D01*
X36975849Y53121430D01*
X37037847Y53071593D01*
X37057087Y53059660D01*
X37057329Y53059548D01*
X37057332Y53059546D01*
X37129315Y53026244D01*
X37132341Y53024793D01*
X37137662Y53022154D01*
X37203064Y52989717D01*
X37203621Y52989441D01*
X37224960Y52981928D01*
X37225225Y52981870D01*
X37225229Y52981868D01*
X37302748Y52964806D01*
X37305884Y52964070D01*
X37382902Y52944916D01*
X37383160Y52944852D01*
X37405632Y52942100D01*
X37405899Y52942100D01*
X37485151Y52942100D01*
X37488563Y52942054D01*
X37567828Y52939907D01*
X37567828Y52939908D01*
X37568093Y52939900D01*
X37591238Y52942100D01*
X39169917Y52942100D01*
X39180143Y52941685D01*
X39232767Y52937399D01*
X39311278Y52948097D01*
X39314656Y52948511D01*
X39314748Y52948521D01*
X39393510Y52957086D01*
X39393512Y52957087D01*
X39393781Y52957116D01*
X39415814Y52962280D01*
X39416066Y52962373D01*
X39416068Y52962373D01*
X39490528Y52989729D01*
X39493622Y52990819D01*
X39568821Y53016156D01*
X39568825Y53016159D01*
X39569082Y53016245D01*
X39589485Y53026022D01*
X39589709Y53026166D01*
X39589716Y53026168D01*
X39656588Y53068913D01*
X39659374Y53070641D01*
X39727336Y53111530D01*
X39727339Y53111534D01*
X39727565Y53111669D01*
X39745394Y53125606D01*
X39745586Y53125799D01*
X39745589Y53125800D01*
X39801687Y53181899D01*
X39804040Y53184190D01*
X39861641Y53238751D01*
X39861643Y53238755D01*
X39861836Y53238937D01*
X39876638Y53256851D01*
X40572941Y53953155D01*
X40635252Y53987178D01*
X40706067Y53982114D01*
X40751130Y53953153D01*
X42290597Y52413626D01*
X42324621Y52351314D01*
X42327500Y52324533D01*
X42327500Y52265766D01*
X42307498Y52197645D01*
X42302050Y52189834D01*
X42195135Y52048258D01*
X42100094Y51857388D01*
X42041744Y51652313D01*
X42022071Y51440000D01*
X42041744Y51227688D01*
X42100094Y51022613D01*
X42195135Y50831743D01*
X42253561Y50754376D01*
X42323628Y50661593D01*
X42481197Y50517948D01*
X42481198Y50517948D01*
X42662478Y50405703D01*
X42676655Y50400211D01*
X42861302Y50328679D01*
X43047596Y50293855D01*
X43110880Y50261676D01*
X43146722Y50200391D01*
X43143741Y50129457D01*
X43102883Y50071395D01*
X43047596Y50046146D01*
X42966511Y50030988D01*
X42861301Y50011321D01*
X42662478Y49934298D01*
X42481198Y49822053D01*
X42323627Y49678406D01*
X42195135Y49508258D01*
X42100094Y49317388D01*
X42041744Y49112313D01*
X42033667Y49025148D01*
X42022071Y48900000D01*
X42041744Y48687690D01*
X42041744Y48687687D01*
X42041745Y48687686D01*
X42092361Y48509789D01*
X42091765Y48438795D01*
X42060266Y48386213D01*
X41869131Y48195078D01*
X41858598Y48185664D01*
X41832572Y48164909D01*
X41802160Y48120303D01*
X41799436Y48116464D01*
X41763484Y48067750D01*
X41762051Y48064911D01*
X41744200Y48007045D01*
X41742730Y48002577D01*
X41722733Y47945426D01*
X41722200Y47942283D01*
X41722200Y47881753D01*
X41722112Y47877042D01*
X41719846Y47816504D01*
X41722200Y47798634D01*
X41722200Y43451389D01*
X41702198Y43383268D01*
X41685295Y43362293D01*
X41259526Y42936525D01*
X41248993Y42927112D01*
X41222972Y42906361D01*
X41192560Y42861755D01*
X41189836Y42857916D01*
X41153884Y42809202D01*
X41152451Y42806363D01*
X41134600Y42748497D01*
X41133130Y42744029D01*
X41113133Y42686878D01*
X41112600Y42683735D01*
X41112600Y42623205D01*
X41112512Y42618494D01*
X41110246Y42557956D01*
X41112600Y42540086D01*
X41112600Y30769288D01*
X41092598Y30701167D01*
X41075696Y30680193D01*
X40950506Y30555004D01*
X40888197Y30520980D01*
X40861413Y30518100D01*
X29126527Y30518100D01*
X29058406Y30538102D01*
X29011913Y30591758D01*
X29001809Y30662032D01*
X29013736Y30700262D01*
X29014397Y30701592D01*
X29014905Y30702611D01*
X29073256Y30907690D01*
X29092929Y31120000D01*
X29073256Y31332310D01*
X29014905Y31537389D01*
X28919866Y31728255D01*
X28791372Y31898407D01*
X28633802Y32042052D01*
X28633803Y32042052D01*
X28625174Y32049918D01*
X28627242Y32052188D01*
X28592088Y32091400D01*
X28580800Y32161494D01*
X28609199Y32226563D01*
X28616696Y32234753D01*
X29262577Y32880634D01*
X29273092Y32890032D01*
X29299127Y32910792D01*
X29329571Y32955448D01*
X29332217Y32959177D01*
X29364314Y33002664D01*
X29364315Y33002667D01*
X29368235Y33007978D01*
X29369640Y33010763D01*
X29371584Y33017069D01*
X29371586Y33017070D01*
X29387509Y33068694D01*
X29388945Y33073060D01*
X29406797Y33124075D01*
X29406797Y33124077D01*
X29408975Y33130300D01*
X29409500Y33133388D01*
X29409500Y33193966D01*
X29409588Y33198677D01*
X29410553Y33224473D01*
X29411606Y33252615D01*
X29411605Y33252616D01*
X29411852Y33259198D01*
X29409500Y33277064D01*
X29409500Y34095528D01*
X29409500Y35056673D01*
X29429501Y35124790D01*
X29483157Y35171283D01*
X29553431Y35181387D01*
X29565637Y35179011D01*
X29638711Y35161000D01*
X29638713Y35161000D01*
X29797287Y35161000D01*
X29797289Y35161000D01*
X29951258Y35198950D01*
X30091671Y35272645D01*
X30210367Y35377801D01*
X30300449Y35508307D01*
X30356682Y35656579D01*
X30375796Y35814000D01*
X30356682Y35971421D01*
X30309073Y36096954D01*
X30300450Y36119692D01*
X30270598Y36162939D01*
X30210367Y36250199D01*
X30091671Y36355355D01*
X29983805Y36411968D01*
X29951259Y36429050D01*
X29810146Y36463831D01*
X29748791Y36499555D01*
X29716490Y36562778D01*
X29714300Y36586170D01*
X29714300Y46433521D01*
X29715092Y46447628D01*
X29715140Y46448063D01*
X29718818Y46480697D01*
X29708784Y46533724D01*
X29707994Y46538372D01*
X29706777Y46546449D01*
X29699949Y46591754D01*
X29699947Y46591758D01*
X29698966Y46598269D01*
X29697983Y46601256D01*
X29694904Y46607082D01*
X29694904Y46607083D01*
X29669671Y46654826D01*
X29667579Y46658971D01*
X29644139Y46707645D01*
X29641281Y46713580D01*
X29639462Y46716144D01*
X29596644Y46758962D01*
X29593375Y46762355D01*
X29552172Y46806761D01*
X29537869Y46817737D01*
X28699410Y47656196D01*
X28665384Y47718508D01*
X28670449Y47789323D01*
X28712996Y47846159D01*
X28716236Y47848505D01*
X28781480Y47894189D01*
X28943310Y48056019D01*
X29074587Y48243502D01*
X29171313Y48450930D01*
X29223582Y48646000D01*
X28249186Y48646000D01*
X28265141Y48661955D01*
X28322665Y48774852D01*
X28342486Y48900000D01*
X28322665Y49025148D01*
X28265141Y49138045D01*
X28249186Y49154000D01*
X29223582Y49154000D01*
X29171313Y49349071D01*
X29074587Y49556499D01*
X28943310Y49743982D01*
X28781481Y49905811D01*
X28593999Y50037088D01*
X28567798Y50049305D01*
X28514513Y50096222D01*
X28495052Y50164499D01*
X28515594Y50232459D01*
X28569616Y50278525D01*
X28621048Y50289500D01*
X28770757Y50289500D01*
X28770760Y50289500D01*
X28838893Y50299427D01*
X28943983Y50350802D01*
X29026698Y50433517D01*
X29078073Y50538607D01*
X29088000Y50606740D01*
X29088000Y52273260D01*
X29078073Y52341393D01*
X29026698Y52446483D01*
X29026697Y52446484D01*
X29026697Y52446485D01*
X28943984Y52529198D01*
X28838894Y52580573D01*
X28821859Y52583055D01*
X28770760Y52590500D01*
X27104240Y52590500D01*
X27063360Y52584544D01*
X27036105Y52580573D01*
X26931015Y52529198D01*
X26848302Y52446485D01*
X26796927Y52341395D01*
X26796926Y52341393D01*
X26796927Y52341393D01*
X26787000Y52273260D01*
X26787000Y50606740D01*
X26794285Y50556743D01*
X26796927Y50538606D01*
X26848302Y50433516D01*
X26931015Y50350803D01*
X26931016Y50350803D01*
X26931017Y50350802D01*
X27036107Y50299427D01*
X27104240Y50289500D01*
X27104243Y50289500D01*
X27253952Y50289500D01*
X27322073Y50269498D01*
X27368566Y50215842D01*
X27378670Y50145568D01*
X27349176Y50080988D01*
X27307202Y50049305D01*
X27281000Y50037088D01*
X27093518Y49905811D01*
X26931689Y49743982D01*
X26800412Y49556499D01*
X26703686Y49349071D01*
X26651417Y49154000D01*
X27625814Y49154000D01*
X27609859Y49138045D01*
X27552335Y49025148D01*
X27532514Y48900000D01*
X27552335Y48774852D01*
X27609859Y48661955D01*
X27625814Y48646000D01*
X26651418Y48646000D01*
X26703686Y48450930D01*
X26800412Y48243502D01*
X26931689Y48056019D01*
X26957313Y48030395D01*
X26991339Y47968083D01*
X26986274Y47897268D01*
X26943727Y47840432D01*
X26877207Y47815621D01*
X26868218Y47815300D01*
X26500335Y47815300D01*
X26432214Y47835302D01*
X26411240Y47852205D01*
X25674705Y48588740D01*
X25640679Y48651052D01*
X25637800Y48677835D01*
X25637800Y50330352D01*
X25638592Y50344459D01*
X25639509Y50352601D01*
X25642319Y50377535D01*
X25632275Y50430614D01*
X25631492Y50435224D01*
X25623449Y50488593D01*
X25623447Y50488596D01*
X25622465Y50495117D01*
X25621489Y50498085D01*
X25618405Y50503921D01*
X25593167Y50551674D01*
X25591088Y50555792D01*
X25567639Y50604484D01*
X25567637Y50604487D01*
X25564779Y50610421D01*
X25562962Y50612983D01*
X25520144Y50655801D01*
X25516875Y50659194D01*
X25475672Y50703600D01*
X25461369Y50714576D01*
X25369905Y50806040D01*
X25335879Y50868352D01*
X25333000Y50895135D01*
X25333000Y52323258D01*
X25333000Y52323260D01*
X25323073Y52391393D01*
X25271698Y52496483D01*
X25271697Y52496484D01*
X25271697Y52496485D01*
X25188984Y52579198D01*
X25083894Y52630573D01*
X25066859Y52633055D01*
X25015760Y52640500D01*
X23249240Y52640500D01*
X23208360Y52634544D01*
X23181105Y52630573D01*
X23076015Y52579198D01*
X22993302Y52496485D01*
X22941927Y52391395D01*
X22941926Y52391393D01*
X22941927Y52391393D01*
X22932186Y52324533D01*
X22932000Y52323258D01*
X22932000Y51816913D01*
X22911998Y51748792D01*
X22858342Y51702299D01*
X22788068Y51692195D01*
X22723488Y51721689D01*
X22685104Y51781415D01*
X22684810Y51782431D01*
X22674999Y51816913D01*
X22664905Y51852389D01*
X22569866Y52043255D01*
X22441372Y52213407D01*
X22296595Y52345390D01*
X22283801Y52357053D01*
X22102519Y52469299D01*
X22094681Y52472335D01*
X22038386Y52515595D01*
X22014417Y52582423D01*
X22014199Y52589826D01*
X22014200Y54268500D01*
X22034202Y54336621D01*
X22087858Y54383114D01*
X22140200Y54394500D01*
X27116397Y54394500D01*
X27184518Y54374498D01*
G37*
G04 #@! TD.AperFunction*
G04 #@! TA.AperFunction,Conductor*
G36*
X26854836Y40833298D02*
G01*
X26899504Y40783465D01*
X26940046Y40702047D01*
X26955135Y40671743D01*
X27018249Y40588168D01*
X27083628Y40501593D01*
X27192528Y40402317D01*
X27241198Y40357948D01*
X27422478Y40245703D01*
X27464099Y40229579D01*
X27621302Y40168679D01*
X27807596Y40133855D01*
X27870880Y40101676D01*
X27906722Y40040391D01*
X27903741Y39969457D01*
X27862883Y39911395D01*
X27807596Y39886146D01*
X27698126Y39865682D01*
X27621301Y39851321D01*
X27422478Y39774298D01*
X27241198Y39662053D01*
X27083627Y39518406D01*
X26955135Y39348258D01*
X26860094Y39157388D01*
X26801744Y38952313D01*
X26782071Y38740001D01*
X26801744Y38527688D01*
X26860094Y38322613D01*
X26955135Y38131743D01*
X27019380Y38046670D01*
X27083628Y37961593D01*
X27207020Y37849106D01*
X27241198Y37817948D01*
X27422478Y37705703D01*
X27464099Y37689579D01*
X27621302Y37628679D01*
X27807596Y37593855D01*
X27870880Y37561676D01*
X27906722Y37500391D01*
X27903741Y37429457D01*
X27862883Y37371395D01*
X27807596Y37346146D01*
X27682066Y37322680D01*
X27621301Y37311321D01*
X27422478Y37234298D01*
X27241198Y37122053D01*
X27083627Y36978406D01*
X26955135Y36808258D01*
X26860094Y36617388D01*
X26801744Y36412313D01*
X26782071Y36200000D01*
X26801744Y35987688D01*
X26860094Y35782613D01*
X26955135Y35591743D01*
X27006290Y35524004D01*
X27083628Y35421593D01*
X27221816Y35295617D01*
X27241198Y35277948D01*
X27422478Y35165703D01*
X27464017Y35149611D01*
X27621302Y35088679D01*
X27807596Y35053855D01*
X27870880Y35021676D01*
X27906722Y34960391D01*
X27903741Y34889457D01*
X27862883Y34831395D01*
X27807596Y34806146D01*
X27682066Y34782680D01*
X27621301Y34771321D01*
X27422478Y34694298D01*
X27241198Y34582053D01*
X27116999Y34468829D01*
X27090661Y34444818D01*
X27083627Y34438406D01*
X26955135Y34268258D01*
X26860094Y34077388D01*
X26801744Y33872313D01*
X26782071Y33660000D01*
X26801744Y33447688D01*
X26860095Y33242611D01*
X26883200Y33196209D01*
X26895658Y33126314D01*
X26868351Y33060779D01*
X26859505Y33050952D01*
X26479360Y32670805D01*
X26417048Y32636780D01*
X26390264Y32633900D01*
X25114126Y32633900D01*
X25046005Y32653902D01*
X24999512Y32707558D01*
X24989408Y32777832D01*
X25016925Y32838085D01*
X25016445Y32838447D01*
X25018079Y32840612D01*
X25018902Y32842412D01*
X25021283Y32844855D01*
X25023477Y32847761D01*
X25023481Y32847764D01*
X25157558Y33025311D01*
X25256729Y33224472D01*
X25317615Y33438464D01*
X25338143Y33660000D01*
X25317615Y33881536D01*
X25256729Y34095528D01*
X25157558Y34294689D01*
X25023481Y34472236D01*
X24859062Y34622124D01*
X24859059Y34622126D01*
X24859058Y34622127D01*
X24669905Y34739246D01*
X24587109Y34771321D01*
X24480788Y34812510D01*
X24424496Y34855768D01*
X24400525Y34922595D01*
X24416489Y34991774D01*
X24467319Y35041339D01*
X24480779Y35047487D01*
X24669901Y35120753D01*
X24669902Y35120755D01*
X24669905Y35120755D01*
X24796194Y35198950D01*
X24859062Y35237876D01*
X25023481Y35387764D01*
X25157558Y35565311D01*
X25256729Y35764472D01*
X25317615Y35978464D01*
X25338143Y36200000D01*
X25317615Y36421536D01*
X25256729Y36635528D01*
X25157558Y36834689D01*
X25023481Y37012236D01*
X24859062Y37162124D01*
X24859059Y37162126D01*
X24859058Y37162127D01*
X24669905Y37279246D01*
X24587109Y37311321D01*
X24480788Y37352510D01*
X24424496Y37395768D01*
X24400525Y37462595D01*
X24416489Y37531774D01*
X24467319Y37581339D01*
X24480779Y37587487D01*
X24669901Y37660753D01*
X24669902Y37660755D01*
X24669905Y37660755D01*
X24764481Y37719315D01*
X24859062Y37777876D01*
X25023481Y37927764D01*
X25157558Y38105311D01*
X25256729Y38304472D01*
X25317615Y38518464D01*
X25338143Y38740000D01*
X25317615Y38961536D01*
X25256729Y39175528D01*
X25157558Y39374689D01*
X25023481Y39552236D01*
X24864708Y39696977D01*
X24827843Y39757651D01*
X24829632Y39828625D01*
X24860498Y39879184D01*
X25490877Y40509563D01*
X25501392Y40518961D01*
X25527427Y40539721D01*
X25557871Y40584377D01*
X25560517Y40588106D01*
X25592614Y40631593D01*
X25592615Y40631596D01*
X25596535Y40636907D01*
X25597940Y40639692D01*
X25599884Y40645998D01*
X25599886Y40645999D01*
X25615809Y40697623D01*
X25617245Y40701989D01*
X25635097Y40753004D01*
X25635096Y40753004D01*
X25640666Y40768918D01*
X25682046Y40826609D01*
X25748047Y40852770D01*
X25759594Y40853300D01*
X26786715Y40853300D01*
X26854836Y40833298D01*
G37*
G04 #@! TD.AperFunction*
G04 #@! TA.AperFunction,Conductor*
G36*
X22886097Y48729073D02*
G01*
X22940141Y48683033D01*
X22955909Y48648505D01*
X23008270Y48464473D01*
X23091654Y48297018D01*
X23107442Y48265311D01*
X23241519Y48087764D01*
X23405938Y47937876D01*
X23405940Y47937875D01*
X23405941Y47937874D01*
X23595094Y47820755D01*
X23595098Y47820754D01*
X23595099Y47820753D01*
X23784209Y47747492D01*
X23840503Y47704232D01*
X23864474Y47637405D01*
X23848510Y47568226D01*
X23797679Y47518660D01*
X23784213Y47512511D01*
X23754876Y47501145D01*
X23595094Y47439246D01*
X23405941Y47322127D01*
X23241518Y47172235D01*
X23107442Y46994690D01*
X23008271Y46795530D01*
X22954486Y46606495D01*
X22916605Y46546449D01*
X22852274Y46516414D01*
X22781918Y46525928D01*
X22727874Y46571968D01*
X22712107Y46606491D01*
X22664905Y46772389D01*
X22569866Y46963255D01*
X22569078Y46964298D01*
X22512565Y47039133D01*
X22441372Y47133407D01*
X22283802Y47277052D01*
X22283801Y47277053D01*
X22102521Y47389298D01*
X21903698Y47466321D01*
X21888698Y47469125D01*
X21717402Y47501146D01*
X21654119Y47533324D01*
X21618277Y47594609D01*
X21621258Y47665543D01*
X21662116Y47723605D01*
X21717401Y47748855D01*
X21903698Y47783679D01*
X22102519Y47860702D01*
X22136518Y47881753D01*
X22191883Y47916034D01*
X22283802Y47972948D01*
X22441372Y48116593D01*
X22569866Y48286745D01*
X22664905Y48477611D01*
X22713530Y48648508D01*
X22751410Y48708552D01*
X22815741Y48738587D01*
X22886097Y48729073D01*
G37*
G04 #@! TD.AperFunction*
G04 #@! TA.AperFunction,Conductor*
G36*
X25040284Y48003414D02*
G01*
X25079943Y47976612D01*
X25947721Y47108834D01*
X25957137Y47098299D01*
X25977892Y47072273D01*
X26022520Y47041847D01*
X26026317Y47039152D01*
X26055361Y47017717D01*
X26075073Y47003168D01*
X26077861Y47001761D01*
X26084167Y46999816D01*
X26084170Y46999814D01*
X26135781Y46983894D01*
X26140179Y46982447D01*
X26191175Y46964602D01*
X26191177Y46964602D01*
X26197396Y46962426D01*
X26200488Y46961900D01*
X26207085Y46961900D01*
X26261038Y46961900D01*
X26265749Y46961812D01*
X26319715Y46959793D01*
X26319715Y46959794D01*
X26326294Y46959547D01*
X26344167Y46961900D01*
X26748473Y46961900D01*
X26816594Y46941898D01*
X26863087Y46888242D01*
X26873191Y46817968D01*
X26861264Y46779738D01*
X26860095Y46777391D01*
X26801744Y46572313D01*
X26782071Y46360000D01*
X26801744Y46147688D01*
X26860094Y45942613D01*
X26955135Y45751743D01*
X26958911Y45746743D01*
X27083628Y45581593D01*
X27184742Y45489415D01*
X27241200Y45437946D01*
X27422476Y45325705D01*
X27422481Y45325702D01*
X27443841Y45317428D01*
X27500136Y45274171D01*
X27522918Y45218719D01*
X27524308Y45209500D01*
X27526130Y45197413D01*
X27527127Y45194382D01*
X27555417Y45140853D01*
X27557538Y45136651D01*
X27589201Y45070904D01*
X27586192Y45069455D01*
X27603948Y45033833D01*
X27596239Y44963256D01*
X27551597Y44908051D01*
X27525429Y44894181D01*
X27422481Y44854299D01*
X27241198Y44742053D01*
X27083627Y44598406D01*
X26955135Y44428258D01*
X26860094Y44237388D01*
X26801744Y44032313D01*
X26782071Y43820000D01*
X26801744Y43607688D01*
X26860094Y43402613D01*
X26955135Y43211743D01*
X26958911Y43206743D01*
X27083628Y43041593D01*
X27231971Y42906360D01*
X27241198Y42897948D01*
X27422478Y42785703D01*
X27441268Y42778424D01*
X27621302Y42708679D01*
X27807597Y42673855D01*
X27870880Y42641677D01*
X27906722Y42580392D01*
X27903741Y42509458D01*
X27862884Y42451396D01*
X27807595Y42426147D01*
X27621306Y42391323D01*
X27422478Y42314298D01*
X27241198Y42202053D01*
X27083627Y42058406D01*
X26955135Y41888258D01*
X26941308Y41860488D01*
X26899504Y41776536D01*
X26851237Y41724474D01*
X26786715Y41706700D01*
X25754077Y41706700D01*
X25685956Y41726702D01*
X25639463Y41780358D01*
X25629484Y41813922D01*
X25626419Y41834259D01*
X25623449Y41853964D01*
X25623448Y41853966D01*
X25622465Y41860488D01*
X25621489Y41863456D01*
X25611025Y41883255D01*
X25593167Y41917045D01*
X25591088Y41921163D01*
X25567639Y41969855D01*
X25567637Y41969858D01*
X25564779Y41975792D01*
X25562962Y41978354D01*
X25520144Y42021172D01*
X25516875Y42024565D01*
X25475672Y42068971D01*
X25461369Y42079947D01*
X24860500Y42680816D01*
X24826474Y42743128D01*
X24831539Y42813943D01*
X24864707Y42863023D01*
X25023481Y43007764D01*
X25157558Y43185311D01*
X25256729Y43384472D01*
X25317615Y43598464D01*
X25338143Y43820000D01*
X25317615Y44041536D01*
X25256729Y44255528D01*
X25157558Y44454689D01*
X25023481Y44632236D01*
X24859062Y44782124D01*
X24859059Y44782126D01*
X24859058Y44782127D01*
X24669905Y44899246D01*
X24587109Y44931321D01*
X24480788Y44972510D01*
X24424496Y45015768D01*
X24400525Y45082595D01*
X24416489Y45151774D01*
X24467319Y45201339D01*
X24480779Y45207487D01*
X24669901Y45280753D01*
X24669902Y45280755D01*
X24669905Y45280755D01*
X24821303Y45374497D01*
X24859062Y45397876D01*
X25023481Y45547764D01*
X25157558Y45725311D01*
X25256729Y45924472D01*
X25317615Y46138464D01*
X25338143Y46360000D01*
X25317615Y46581536D01*
X25256729Y46795528D01*
X25157558Y46994689D01*
X25023481Y47172236D01*
X24859062Y47322124D01*
X24859059Y47322126D01*
X24859058Y47322127D01*
X24669905Y47439246D01*
X24588972Y47470599D01*
X24480788Y47512510D01*
X24424496Y47555768D01*
X24400525Y47622595D01*
X24416489Y47691774D01*
X24467319Y47741339D01*
X24480779Y47747487D01*
X24669901Y47820753D01*
X24669902Y47820755D01*
X24669905Y47820755D01*
X24859059Y47937874D01*
X24859059Y47937875D01*
X24859062Y47937876D01*
X24905961Y47980632D01*
X24969778Y48011743D01*
X25040284Y48003414D01*
G37*
G04 #@! TD.AperFunction*
G04 #@! TA.AperFunction,Conductor*
G36*
X45018198Y56979998D02*
G01*
X45036373Y56965810D01*
X45554453Y56478814D01*
X45960299Y56097319D01*
X45996234Y56036088D01*
X46000000Y56005512D01*
X46000000Y8052191D01*
X45979998Y7984070D01*
X45963095Y7963096D01*
X45037089Y7037090D01*
X44974777Y7003064D01*
X44947549Y7000186D01*
X28000000Y7060000D01*
X27000000Y6000001D01*
X26999999Y6000000D01*
X27000000Y1612191D01*
X26979998Y1544070D01*
X26963096Y1523096D01*
X26036777Y596776D01*
X25974464Y562751D01*
X25947990Y559871D01*
X1554536Y500134D01*
X1486366Y519970D01*
X1462575Y539670D01*
X1443517Y559871D01*
X1126260Y896164D01*
X534348Y1523592D01*
X502152Y1586869D01*
X500000Y1610056D01*
X500000Y27986317D01*
X1053739Y27986317D01*
X1056761Y27930586D01*
X1056574Y27916791D01*
X1057500Y27903143D01*
X1057500Y27893887D01*
X1057866Y27890513D01*
X1057867Y27890510D01*
X1059626Y27874328D01*
X1060178Y27867539D01*
X1063755Y27801591D01*
X1067229Y27789076D01*
X1071081Y27769004D01*
X1072486Y27756089D01*
X1093574Y27693502D01*
X1095571Y27686999D01*
X1105026Y27652948D01*
X1113247Y27623337D01*
X1119331Y27611861D01*
X1127409Y27593083D01*
X1131554Y27580782D01*
X1165610Y27524178D01*
X1168966Y27518242D01*
X1199901Y27459893D01*
X1208301Y27450004D01*
X1220228Y27433401D01*
X1226928Y27422266D01*
X1226930Y27422264D01*
X1272352Y27374313D01*
X1276900Y27369244D01*
X1319664Y27318899D01*
X1329997Y27311044D01*
X1345217Y27297390D01*
X1354150Y27287960D01*
X1354151Y27287959D01*
X1358430Y27285058D01*
X1366289Y27279730D01*
X1384678Y27264534D01*
X2574446Y26074765D01*
X2608472Y26012453D01*
X2610813Y25997296D01*
X2627384Y25818466D01*
X2688270Y25604473D01*
X2695014Y25590930D01*
X2787442Y25405311D01*
X2921519Y25227764D01*
X3014204Y25143270D01*
X3042243Y25117709D01*
X3079109Y25057034D01*
X3077320Y24986060D01*
X3046452Y24935499D01*
X2413731Y24302778D01*
X2403198Y24293364D01*
X2377172Y24272609D01*
X2346760Y24228003D01*
X2344036Y24224164D01*
X2308084Y24175450D01*
X2306651Y24172611D01*
X2288800Y24114745D01*
X2287330Y24110277D01*
X2267333Y24053126D01*
X2266800Y24049983D01*
X2266800Y23989453D01*
X2266712Y23984742D01*
X2264446Y23924204D01*
X2266800Y23906334D01*
X2266799Y15371542D01*
X2266007Y15357438D01*
X2262281Y15324367D01*
X2272315Y15271332D01*
X2273103Y15266691D01*
X2282128Y15206819D01*
X2283127Y15203782D01*
X2311417Y15150253D01*
X2313538Y15146051D01*
X2339815Y15091486D01*
X2341640Y15088915D01*
X2346299Y15084256D01*
X2346300Y15084255D01*
X2384480Y15046075D01*
X2387723Y15042708D01*
X2428931Y14998297D01*
X2443231Y14987324D01*
X3014857Y14415698D01*
X3048883Y14353386D01*
X3043818Y14282571D01*
X3010648Y14233488D01*
X2921518Y14152235D01*
X2787442Y13974690D01*
X2688270Y13775528D01*
X2632082Y13578045D01*
X2627385Y13561536D01*
X2606857Y13340000D01*
X2627385Y13118464D01*
X2627385Y13118461D01*
X2627386Y13118460D01*
X2688270Y12904473D01*
X2758113Y12764211D01*
X2787442Y12705311D01*
X2921519Y12527764D01*
X3085938Y12377876D01*
X3085940Y12377875D01*
X3085941Y12377874D01*
X3275094Y12260755D01*
X3275098Y12260754D01*
X3275099Y12260753D01*
X3464209Y12187492D01*
X3520503Y12144232D01*
X3544474Y12077405D01*
X3528510Y12008226D01*
X3477679Y11958660D01*
X3464213Y11952511D01*
X3434876Y11941145D01*
X3275094Y11879246D01*
X3085941Y11762127D01*
X2921518Y11612235D01*
X2787442Y11434690D01*
X2688270Y11235528D01*
X2627386Y11021541D01*
X2627385Y11021536D01*
X2606857Y10800000D01*
X2627385Y10578464D01*
X2627385Y10578461D01*
X2627386Y10578460D01*
X2688270Y10364473D01*
X2729434Y10281806D01*
X2787442Y10165311D01*
X2921519Y9987764D01*
X3085938Y9837876D01*
X3085940Y9837875D01*
X3085941Y9837874D01*
X3275094Y9720755D01*
X3275098Y9720754D01*
X3275099Y9720753D01*
X3464209Y9647492D01*
X3520503Y9604232D01*
X3544474Y9537405D01*
X3528510Y9468226D01*
X3477679Y9418660D01*
X3464213Y9412511D01*
X3434876Y9401145D01*
X3275094Y9339246D01*
X3085941Y9222127D01*
X2921518Y9072235D01*
X2787442Y8894690D01*
X2688270Y8695528D01*
X2627386Y8481541D01*
X2627385Y8481536D01*
X2606857Y8260000D01*
X2627385Y8038464D01*
X2627385Y8038461D01*
X2627386Y8038460D01*
X2688270Y7824473D01*
X2729434Y7741806D01*
X2787442Y7625311D01*
X2921519Y7447764D01*
X3085938Y7297876D01*
X3085940Y7297875D01*
X3085941Y7297874D01*
X3275094Y7180755D01*
X3275098Y7180754D01*
X3275099Y7180753D01*
X3464211Y7107491D01*
X3520503Y7064234D01*
X3544474Y6997406D01*
X3528510Y6928228D01*
X3477680Y6878662D01*
X3464209Y6872510D01*
X3275097Y6799248D01*
X3085941Y6682127D01*
X2921518Y6532235D01*
X2787442Y6354690D01*
X2688270Y6155528D01*
X2644019Y6000000D01*
X2627385Y5941536D01*
X2606857Y5720000D01*
X2627385Y5498464D01*
X2627385Y5498461D01*
X2627386Y5498460D01*
X2688270Y5284473D01*
X2729434Y5201806D01*
X2787442Y5085311D01*
X2921519Y4907764D01*
X3085938Y4757876D01*
X3085940Y4757875D01*
X3085941Y4757874D01*
X3275094Y4640755D01*
X3275098Y4640754D01*
X3275099Y4640753D01*
X3464209Y4567492D01*
X3520503Y4524232D01*
X3544474Y4457405D01*
X3528510Y4388226D01*
X3477679Y4338660D01*
X3464213Y4332511D01*
X3434881Y4321147D01*
X3275094Y4259246D01*
X3085941Y4142127D01*
X2921518Y3992235D01*
X2787442Y3814690D01*
X2688270Y3615528D01*
X2627386Y3401541D01*
X2627385Y3401536D01*
X2606857Y3180000D01*
X2627385Y2958464D01*
X2627385Y2958461D01*
X2627386Y2958460D01*
X2688270Y2744473D01*
X2751007Y2618481D01*
X2787442Y2545311D01*
X2921519Y2367764D01*
X3085938Y2217876D01*
X3085940Y2217875D01*
X3085941Y2217874D01*
X3275094Y2100755D01*
X3275098Y2100754D01*
X3275099Y2100753D01*
X3482560Y2020382D01*
X3701257Y1979500D01*
X3701259Y1979500D01*
X3923741Y1979500D01*
X3923743Y1979500D01*
X4142440Y2020382D01*
X4349901Y2100753D01*
X4349902Y2100755D01*
X4349905Y2100755D01*
X4444481Y2159315D01*
X4539062Y2217876D01*
X4703481Y2367764D01*
X4732265Y2405882D01*
X4789277Y2448189D01*
X4860113Y2452957D01*
X4921910Y2419045D01*
X5487021Y1853934D01*
X5496437Y1843399D01*
X5517192Y1817373D01*
X5561820Y1786947D01*
X5565617Y1784252D01*
X5594661Y1762817D01*
X5614373Y1748268D01*
X5617161Y1746861D01*
X5623467Y1744916D01*
X5623470Y1744914D01*
X5675081Y1728994D01*
X5679479Y1727547D01*
X5730475Y1709702D01*
X5730477Y1709702D01*
X5736696Y1707526D01*
X5739788Y1707000D01*
X5746385Y1707000D01*
X5800338Y1707000D01*
X5805049Y1706912D01*
X5859015Y1704893D01*
X5859015Y1704894D01*
X5865594Y1704647D01*
X5883467Y1707000D01*
X6769759Y1707000D01*
X6783866Y1706208D01*
X6816935Y1702482D01*
X6870000Y1712523D01*
X6874578Y1713301D01*
X6927993Y1721351D01*
X6927996Y1721353D01*
X6934507Y1722334D01*
X6937498Y1723318D01*
X6943318Y1726395D01*
X6943322Y1726395D01*
X6991079Y1751637D01*
X6995216Y1753725D01*
X7043884Y1777161D01*
X7043885Y1777163D01*
X7049836Y1780028D01*
X7052371Y1781827D01*
X7057042Y1786499D01*
X7057045Y1786500D01*
X7095237Y1824694D01*
X7098575Y1827909D01*
X7138176Y1864652D01*
X7138177Y1864655D01*
X7143004Y1869133D01*
X7153975Y1883432D01*
X7698777Y2428234D01*
X7709292Y2437632D01*
X7735327Y2458392D01*
X7765771Y2503048D01*
X7768417Y2506777D01*
X7800514Y2550264D01*
X7800515Y2550267D01*
X7804435Y2555578D01*
X7805840Y2558362D01*
X7818119Y2598171D01*
X7823700Y2616267D01*
X7825140Y2620645D01*
X7842998Y2671675D01*
X7842998Y2671681D01*
X7845175Y2677901D01*
X7845700Y2680986D01*
X7845700Y2741539D01*
X7845788Y2746250D01*
X7848053Y2806792D01*
X7845700Y2824666D01*
X7845700Y13712460D01*
X7846492Y13726567D01*
X7846546Y13727050D01*
X7850218Y13759636D01*
X7840182Y13812680D01*
X7839393Y13817324D01*
X7830368Y13877202D01*
X7829380Y13880204D01*
X7801082Y13933746D01*
X7798973Y13937921D01*
X7775539Y13986584D01*
X7775538Y13986585D01*
X7772680Y13992521D01*
X7770862Y13995083D01*
X7728044Y14037901D01*
X7724775Y14041294D01*
X7683572Y14085700D01*
X7669269Y14096676D01*
X7013738Y14752207D01*
X6979712Y14814519D01*
X6984777Y14885334D01*
X7027324Y14942170D01*
X7036493Y14948423D01*
X7043802Y14952948D01*
X7201372Y15096593D01*
X7329866Y15266745D01*
X7424905Y15457611D01*
X7483256Y15662690D01*
X7502929Y15875000D01*
X7483256Y16087310D01*
X7432637Y16265215D01*
X7433233Y16336206D01*
X7464730Y16388787D01*
X8265477Y17189534D01*
X8275992Y17198932D01*
X8302027Y17219692D01*
X8332444Y17264308D01*
X8335166Y17268143D01*
X8367214Y17311565D01*
X8367215Y17311569D01*
X8371136Y17316881D01*
X8372538Y17319657D01*
X8374484Y17325968D01*
X8374486Y17325970D01*
X8390401Y17377570D01*
X8391847Y17381963D01*
X8409698Y17432975D01*
X8409698Y17432980D01*
X8411875Y17439201D01*
X8412400Y17442286D01*
X8412400Y17502839D01*
X8412488Y17507550D01*
X8414753Y17568092D01*
X8412400Y17585966D01*
X8412400Y22716000D01*
X8432402Y22784121D01*
X8486058Y22830614D01*
X8538400Y22842000D01*
X8595587Y22842000D01*
X8595589Y22842000D01*
X8749558Y22879950D01*
X8889971Y22953645D01*
X9008667Y23058801D01*
X9098749Y23189307D01*
X9154982Y23337579D01*
X9174096Y23495000D01*
X9154982Y23652421D01*
X9116458Y23754000D01*
X9098750Y23800692D01*
X9076228Y23833320D01*
X9008667Y23931199D01*
X9008664Y23931202D01*
X8985445Y23951773D01*
X8947721Y24011918D01*
X8943000Y24046084D01*
X8943000Y24161680D01*
X8963002Y24229801D01*
X8979900Y24250771D01*
X9410540Y24681412D01*
X9421056Y24690810D01*
X9447086Y24711566D01*
X9477530Y24756222D01*
X9480176Y24759951D01*
X9512273Y24803438D01*
X9512274Y24803441D01*
X9516194Y24808752D01*
X9517599Y24811537D01*
X9519543Y24817843D01*
X9519545Y24817844D01*
X9535468Y24869468D01*
X9536904Y24873834D01*
X9554756Y24924849D01*
X9554756Y24924851D01*
X9556934Y24931074D01*
X9557459Y24934162D01*
X9557459Y24994740D01*
X9557547Y24999451D01*
X9559051Y25039651D01*
X9559565Y25053389D01*
X9559564Y25053390D01*
X9559811Y25059972D01*
X9557459Y25077838D01*
X9557459Y26635512D01*
X9577461Y26703633D01*
X9594359Y26724603D01*
X10453081Y27583326D01*
X10463597Y27592724D01*
X10489627Y27613480D01*
X10520044Y27658096D01*
X10522766Y27661931D01*
X10529573Y27671154D01*
X10554814Y27705353D01*
X10554815Y27705357D01*
X10558736Y27710669D01*
X10560138Y27713445D01*
X10562084Y27719756D01*
X10562086Y27719758D01*
X10578001Y27771358D01*
X10579447Y27775751D01*
X10597298Y27826763D01*
X10597298Y27826768D01*
X10599475Y27832989D01*
X10600000Y27836074D01*
X10600000Y27896627D01*
X10600088Y27901338D01*
X10602353Y27961880D01*
X10600000Y27979754D01*
X10600000Y30391366D01*
X10620002Y30459487D01*
X10636900Y30480456D01*
X11900039Y31743595D01*
X11962352Y31777621D01*
X11989135Y31780500D01*
X20430142Y31780500D01*
X20498263Y31760498D01*
X20544756Y31706842D01*
X20554860Y31636568D01*
X20542933Y31598338D01*
X20510095Y31532390D01*
X20451744Y31327313D01*
X20443034Y31233314D01*
X20432071Y31115000D01*
X20451744Y30902690D01*
X20451745Y30902688D01*
X20451745Y30902686D01*
X20502361Y30724789D01*
X20501765Y30653795D01*
X20470266Y30601213D01*
X20279131Y30410078D01*
X20268598Y30400664D01*
X20242572Y30379909D01*
X20212160Y30335303D01*
X20209436Y30331464D01*
X20173484Y30282750D01*
X20172051Y30279911D01*
X20154200Y30222045D01*
X20152730Y30217577D01*
X20132733Y30160426D01*
X20132200Y30157283D01*
X20132200Y30096753D01*
X20132112Y30092041D01*
X20129846Y30031512D01*
X20132199Y30013641D01*
X20132199Y27552101D01*
X20112197Y27483980D01*
X20095294Y27463006D01*
X19059931Y26427643D01*
X19049398Y26418229D01*
X19023372Y26397474D01*
X18992960Y26352868D01*
X18990236Y26349029D01*
X18954284Y26300315D01*
X18952851Y26297476D01*
X18935000Y26239610D01*
X18933530Y26235142D01*
X18913533Y26177991D01*
X18913000Y26174848D01*
X18913000Y26114318D01*
X18912912Y26109607D01*
X18910646Y26049069D01*
X18913000Y26031199D01*
X18913000Y22546057D01*
X18892998Y22477936D01*
X18876095Y22456962D01*
X17679990Y21260858D01*
X17669457Y21251444D01*
X17643431Y21230689D01*
X17613019Y21186083D01*
X17610295Y21182244D01*
X17574343Y21133530D01*
X17572910Y21130691D01*
X17555059Y21072825D01*
X17553589Y21068357D01*
X17533592Y21011205D01*
X17533058Y21008063D01*
X17533058Y20947527D01*
X17532970Y20942821D01*
X17530706Y20882290D01*
X17533058Y20864422D01*
X17533058Y18696695D01*
X17513056Y18628574D01*
X17496153Y18607600D01*
X17454531Y18565978D01*
X17443998Y18556564D01*
X17417972Y18535809D01*
X17387560Y18491203D01*
X17384836Y18487364D01*
X17348884Y18438650D01*
X17347451Y18435811D01*
X17329600Y18377945D01*
X17328130Y18373477D01*
X17308133Y18316326D01*
X17307600Y18313183D01*
X17307600Y18252653D01*
X17307512Y18247942D01*
X17305246Y18187404D01*
X17307600Y18169534D01*
X17307600Y17072142D01*
X17306808Y17058035D01*
X17303082Y17024965D01*
X17313115Y16971932D01*
X17313903Y16967291D01*
X17322928Y16907419D01*
X17323927Y16904382D01*
X17352217Y16850853D01*
X17354338Y16846651D01*
X17380615Y16792086D01*
X17382440Y16789515D01*
X17387099Y16784856D01*
X17387100Y16784855D01*
X17425280Y16746675D01*
X17428523Y16743308D01*
X17469731Y16698897D01*
X17484031Y16687924D01*
X17592708Y16579247D01*
X17626734Y16516935D01*
X17627410Y16502471D01*
X17628360Y16502586D01*
X17649317Y16329981D01*
X17705549Y16181709D01*
X17726914Y16150757D01*
X17795633Y16051201D01*
X17914329Y15946045D01*
X18054742Y15872350D01*
X18208711Y15834400D01*
X18208713Y15834400D01*
X18367287Y15834400D01*
X18367289Y15834400D01*
X18521258Y15872350D01*
X18661671Y15946045D01*
X18780367Y16051201D01*
X18796820Y16075039D01*
X18851976Y16119736D01*
X18922544Y16127520D01*
X18986119Y16095916D01*
X18989610Y16092556D01*
X19471595Y15610571D01*
X19505621Y15548259D01*
X19508500Y15521476D01*
X19508500Y13132629D01*
X19507708Y13118522D01*
X19503982Y13085452D01*
X19514015Y13032419D01*
X19514803Y13027778D01*
X19523828Y12967906D01*
X19524827Y12964869D01*
X19553117Y12911340D01*
X19555238Y12907138D01*
X19581515Y12852573D01*
X19583340Y12850002D01*
X19587999Y12845343D01*
X19588000Y12845342D01*
X19626180Y12807162D01*
X19629423Y12803795D01*
X19670631Y12759384D01*
X19684931Y12748411D01*
X19805595Y12627747D01*
X19839621Y12565435D01*
X19842500Y12538652D01*
X19842499Y11484377D01*
X19835430Y11442768D01*
X19827934Y11421345D01*
X19827399Y11418196D01*
X19827399Y11357661D01*
X19827311Y11352953D01*
X19825046Y11292417D01*
X19827400Y11274546D01*
X19827400Y7079442D01*
X19826608Y7065335D01*
X19822882Y7032265D01*
X19832915Y6979232D01*
X19833703Y6974591D01*
X19842728Y6914719D01*
X19843727Y6911682D01*
X19872017Y6858153D01*
X19874138Y6853951D01*
X19900415Y6799386D01*
X19902240Y6796815D01*
X19906899Y6792156D01*
X19906900Y6792155D01*
X19945080Y6753975D01*
X19948323Y6750608D01*
X19982113Y6714191D01*
X19989531Y6706197D01*
X20003831Y6695224D01*
X20470267Y6228788D01*
X20504293Y6166476D01*
X20502362Y6105211D01*
X20451744Y5927313D01*
X20432071Y5715000D01*
X20451744Y5502688D01*
X20510094Y5297613D01*
X20605135Y5106743D01*
X20621320Y5085311D01*
X20733628Y4936593D01*
X20874528Y4808145D01*
X20891198Y4792948D01*
X21072478Y4680703D01*
X21072481Y4680702D01*
X21271302Y4603679D01*
X21457597Y4568855D01*
X21520880Y4536677D01*
X21556722Y4475392D01*
X21553741Y4404458D01*
X21512884Y4346396D01*
X21457595Y4321147D01*
X21271306Y4286323D01*
X21072478Y4209298D01*
X20891198Y4097053D01*
X20733627Y3953406D01*
X20605135Y3783258D01*
X20510094Y3592388D01*
X20451744Y3387313D01*
X20432071Y3175000D01*
X20451744Y2962688D01*
X20510094Y2757613D01*
X20605135Y2566743D01*
X20611777Y2557948D01*
X20733628Y2396593D01*
X20891198Y2252948D01*
X21072478Y2140703D01*
X21072481Y2140702D01*
X21271302Y2063679D01*
X21480890Y2024500D01*
X21480892Y2024500D01*
X21694108Y2024500D01*
X21694110Y2024500D01*
X21903698Y2063679D01*
X22102519Y2140702D01*
X22283802Y2252948D01*
X22441372Y2396593D01*
X22502860Y2478017D01*
X22559874Y2520324D01*
X22630710Y2525091D01*
X22692505Y2491179D01*
X23362050Y1821634D01*
X23371466Y1811099D01*
X23392221Y1785073D01*
X23436822Y1754665D01*
X23440666Y1751937D01*
X23473725Y1727539D01*
X23483376Y1720416D01*
X23489394Y1715975D01*
X23492204Y1714556D01*
X23498498Y1712615D01*
X23498499Y1712614D01*
X23513664Y1707937D01*
X23550091Y1696700D01*
X23554548Y1695234D01*
X23605504Y1677403D01*
X23611726Y1675226D01*
X23614820Y1674700D01*
X23621414Y1674700D01*
X23675394Y1674700D01*
X23680105Y1674612D01*
X23734044Y1672594D01*
X23734044Y1672595D01*
X23740624Y1672348D01*
X23758492Y1674700D01*
X24591359Y1674700D01*
X24605466Y1673908D01*
X24638535Y1670182D01*
X24691600Y1680223D01*
X24696178Y1681001D01*
X24749593Y1689051D01*
X24749596Y1689053D01*
X24756107Y1690034D01*
X24759098Y1691018D01*
X24764918Y1694095D01*
X24764922Y1694095D01*
X24812679Y1719337D01*
X24816816Y1721425D01*
X24865484Y1744861D01*
X24865485Y1744863D01*
X24871436Y1747728D01*
X24873971Y1749527D01*
X24878642Y1754199D01*
X24878645Y1754200D01*
X24916837Y1792394D01*
X24920175Y1795609D01*
X24959776Y1832352D01*
X24959777Y1832355D01*
X24964604Y1836833D01*
X24975575Y1851132D01*
X25795677Y2671234D01*
X25806192Y2680632D01*
X25832227Y2701392D01*
X25862671Y2746048D01*
X25865317Y2749777D01*
X25897414Y2793264D01*
X25897415Y2793267D01*
X25901335Y2798578D01*
X25902740Y2801362D01*
X25909928Y2824666D01*
X25920600Y2859267D01*
X25922040Y2863645D01*
X25939898Y2914675D01*
X25939898Y2914681D01*
X25942075Y2920901D01*
X25942599Y2923985D01*
X25942599Y2930582D01*
X25942600Y2930585D01*
X25942599Y2984538D01*
X25942687Y2989249D01*
X25944707Y3043215D01*
X25944705Y3043220D01*
X25944952Y3049799D01*
X25942599Y3067673D01*
X25942599Y4429094D01*
X25942599Y5755865D01*
X25962601Y5823982D01*
X25979499Y5844951D01*
X33010944Y12876395D01*
X33073256Y12910421D01*
X33100039Y12913300D01*
X42026715Y12913300D01*
X42094836Y12893298D01*
X42139504Y12843465D01*
X42157568Y12807189D01*
X42195135Y12731743D01*
X42215096Y12705311D01*
X42323628Y12561593D01*
X42481197Y12417949D01*
X42481198Y12417948D01*
X42662478Y12305703D01*
X42701745Y12290491D01*
X42861302Y12228679D01*
X43070890Y12189500D01*
X43070892Y12189500D01*
X43284108Y12189500D01*
X43284110Y12189500D01*
X43493698Y12228679D01*
X43692519Y12305702D01*
X43873802Y12417948D01*
X44031372Y12561593D01*
X44159866Y12731745D01*
X44254905Y12922611D01*
X44313256Y13127690D01*
X44332929Y13340000D01*
X44313256Y13552310D01*
X44254905Y13757389D01*
X44159866Y13948255D01*
X44031372Y14118407D01*
X43873802Y14262052D01*
X43850851Y14276263D01*
X43803465Y14329129D01*
X43792182Y14399223D01*
X43820586Y14464290D01*
X43828077Y14472473D01*
X44529577Y15173973D01*
X44540092Y15183371D01*
X44566127Y15204131D01*
X44596571Y15248787D01*
X44599217Y15252516D01*
X44631314Y15296003D01*
X44631315Y15296006D01*
X44635235Y15301317D01*
X44636640Y15304102D01*
X44638584Y15310408D01*
X44638586Y15310409D01*
X44654509Y15362033D01*
X44655945Y15366399D01*
X44673797Y15417414D01*
X44673797Y15417416D01*
X44675975Y15423639D01*
X44676500Y15426727D01*
X44676500Y15487305D01*
X44676588Y15492016D01*
X44678852Y15552537D01*
X44676500Y15570403D01*
X44676500Y28987760D01*
X44677292Y29001867D01*
X44677346Y29002350D01*
X44681018Y29034936D01*
X44670982Y29087980D01*
X44670193Y29092624D01*
X44661168Y29152502D01*
X44660180Y29155504D01*
X44631882Y29209046D01*
X44629773Y29213221D01*
X44606339Y29261884D01*
X44606338Y29261885D01*
X44603480Y29267821D01*
X44601662Y29270383D01*
X44558844Y29313201D01*
X44555575Y29316594D01*
X44514372Y29361000D01*
X44500069Y29371976D01*
X43862642Y30009403D01*
X43828616Y30071715D01*
X43833681Y30142530D01*
X43866851Y30191613D01*
X43873796Y30197945D01*
X43873802Y30197948D01*
X44031372Y30341593D01*
X44159866Y30511745D01*
X44254905Y30702611D01*
X44313256Y30907690D01*
X44332929Y31120000D01*
X44313256Y31332310D01*
X44254905Y31537389D01*
X44159866Y31728255D01*
X44031372Y31898407D01*
X43873802Y32042052D01*
X43873801Y32042053D01*
X43692521Y32154298D01*
X43493693Y32231323D01*
X43307404Y32266147D01*
X43244118Y32298326D01*
X43208277Y32359611D01*
X43211258Y32430545D01*
X43252116Y32488606D01*
X43307399Y32513854D01*
X43493698Y32548679D01*
X43692519Y32625702D01*
X43707165Y32634770D01*
X43752153Y32662626D01*
X43873802Y32737948D01*
X44031372Y32881593D01*
X44159866Y33051745D01*
X44254905Y33242611D01*
X44313256Y33447690D01*
X44332929Y33660000D01*
X44313256Y33872310D01*
X44254905Y34077389D01*
X44159866Y34268255D01*
X44144858Y34288128D01*
X44079688Y34374427D01*
X44031372Y34438407D01*
X43873802Y34582052D01*
X43873801Y34582053D01*
X43692521Y34694298D01*
X43493698Y34771321D01*
X43493697Y34771321D01*
X43307402Y34806146D01*
X43244119Y34838324D01*
X43208277Y34899609D01*
X43211258Y34970543D01*
X43252116Y35028605D01*
X43307401Y35053855D01*
X43493698Y35088679D01*
X43692519Y35165702D01*
X43873802Y35277948D01*
X44031372Y35421593D01*
X44159866Y35591745D01*
X44254905Y35782611D01*
X44313256Y35987690D01*
X44332929Y36200000D01*
X44313256Y36412310D01*
X44254905Y36617389D01*
X44159866Y36808255D01*
X44031372Y36978407D01*
X43873802Y37122052D01*
X43873801Y37122053D01*
X43692521Y37234298D01*
X43493698Y37311321D01*
X43307402Y37346146D01*
X43244119Y37378324D01*
X43208277Y37439609D01*
X43211258Y37510543D01*
X43252116Y37568605D01*
X43307401Y37593855D01*
X43493698Y37628679D01*
X43692519Y37705702D01*
X43705080Y37713479D01*
X43809080Y37777874D01*
X43873802Y37817948D01*
X44031372Y37961593D01*
X44159866Y38131745D01*
X44254905Y38322611D01*
X44313256Y38527690D01*
X44332929Y38740000D01*
X44313256Y38952310D01*
X44254905Y39157389D01*
X44159866Y39348255D01*
X44031372Y39518407D01*
X43873802Y39662052D01*
X43873801Y39662053D01*
X43692521Y39774298D01*
X43493698Y39851321D01*
X43493697Y39851321D01*
X43307402Y39886146D01*
X43244119Y39918324D01*
X43208277Y39979609D01*
X43211258Y40050543D01*
X43252116Y40108605D01*
X43307401Y40133855D01*
X43493698Y40168679D01*
X43692519Y40245702D01*
X43718945Y40262064D01*
X43809080Y40317874D01*
X43873802Y40357948D01*
X44031372Y40501593D01*
X44159866Y40671745D01*
X44254905Y40862611D01*
X44313256Y41067690D01*
X44332929Y41280000D01*
X44313256Y41492310D01*
X44254905Y41697389D01*
X44159866Y41888255D01*
X44031372Y42058407D01*
X43873802Y42202052D01*
X43873801Y42202053D01*
X43692521Y42314298D01*
X43493693Y42391323D01*
X43307404Y42426147D01*
X43244118Y42458326D01*
X43208277Y42519611D01*
X43211258Y42590545D01*
X43252116Y42648606D01*
X43307399Y42673854D01*
X43493698Y42708679D01*
X43692519Y42785702D01*
X43715744Y42800082D01*
X43809080Y42857874D01*
X43873802Y42897948D01*
X44031372Y43041593D01*
X44159866Y43211745D01*
X44254905Y43402611D01*
X44313256Y43607690D01*
X44332929Y43820000D01*
X44313256Y44032310D01*
X44254905Y44237389D01*
X44159866Y44428255D01*
X44031372Y44598407D01*
X43873802Y44742052D01*
X43873801Y44742053D01*
X43692521Y44854298D01*
X43493698Y44931321D01*
X43493697Y44931322D01*
X43307402Y44966146D01*
X43244119Y44998324D01*
X43208277Y45059609D01*
X43211258Y45130543D01*
X43252116Y45188605D01*
X43307401Y45213855D01*
X43493698Y45248679D01*
X43692519Y45325702D01*
X43722004Y45343958D01*
X43771325Y45374497D01*
X43873802Y45437948D01*
X44031372Y45581593D01*
X44159866Y45751745D01*
X44254905Y45942611D01*
X44313256Y46147690D01*
X44332929Y46360000D01*
X44313256Y46572310D01*
X44254905Y46777389D01*
X44159866Y46968255D01*
X44031372Y47138407D01*
X43873802Y47282052D01*
X43866851Y47288389D01*
X43829985Y47349064D01*
X43831774Y47420038D01*
X43862640Y47470597D01*
X44496577Y48104534D01*
X44507092Y48113932D01*
X44533127Y48134692D01*
X44563571Y48179348D01*
X44566217Y48183077D01*
X44598314Y48226564D01*
X44598315Y48226567D01*
X44602235Y48231878D01*
X44603640Y48234663D01*
X44605584Y48240969D01*
X44605586Y48240970D01*
X44621509Y48292594D01*
X44622945Y48296960D01*
X44640797Y48347975D01*
X44640797Y48347977D01*
X44642975Y48354200D01*
X44643500Y48357288D01*
X44643500Y48417866D01*
X44643588Y48422577D01*
X44645155Y48464473D01*
X44645606Y48476515D01*
X44645605Y48476516D01*
X44645852Y48483098D01*
X44643500Y48500964D01*
X44643500Y50370160D01*
X44644292Y50384267D01*
X44646088Y50400211D01*
X44648018Y50417336D01*
X44637982Y50470380D01*
X44637193Y50475024D01*
X44628168Y50534902D01*
X44627180Y50537904D01*
X44598882Y50591446D01*
X44596773Y50595621D01*
X44573339Y50644284D01*
X44573338Y50644285D01*
X44570480Y50650221D01*
X44568662Y50652783D01*
X44525844Y50695601D01*
X44522575Y50698994D01*
X44481372Y50743400D01*
X44467069Y50754376D01*
X44294843Y50926602D01*
X44260817Y50988914D01*
X44262747Y51050176D01*
X44313256Y51227690D01*
X44332929Y51440000D01*
X44313256Y51652310D01*
X44254905Y51857389D01*
X44159866Y52048255D01*
X44125782Y52093389D01*
X44053950Y52188510D01*
X44028860Y52254925D01*
X44028500Y52264442D01*
X44028500Y52580628D01*
X44031446Y52607715D01*
X44032500Y52612504D01*
X44032500Y52639924D01*
X44033614Y52656643D01*
X44034507Y52663313D01*
X44037253Y52683823D01*
X44035438Y52705473D01*
X44035415Y52726216D01*
X44037202Y52748150D01*
X44026499Y52826710D01*
X44026087Y52830083D01*
X44017485Y52909182D01*
X44012326Y52931195D01*
X43984879Y53005906D01*
X43983769Y53009057D01*
X43958444Y53084221D01*
X43958443Y53084223D01*
X43958352Y53084493D01*
X43948591Y53104863D01*
X43944330Y53111530D01*
X43905726Y53171927D01*
X43903947Y53174796D01*
X43862927Y53242974D01*
X43849013Y53260774D01*
X43792745Y53317043D01*
X43790366Y53319488D01*
X43735662Y53377240D01*
X43717749Y53392041D01*
X43361332Y53748473D01*
X43327309Y53810784D01*
X43332375Y53881600D01*
X43374923Y53938435D01*
X43417819Y53959272D01*
X43611571Y54011187D01*
X43818998Y54107913D01*
X43890388Y54157901D01*
X43890388Y54157902D01*
X43202016Y54846273D01*
X43287648Y54859835D01*
X43400545Y54917359D01*
X43490141Y55006955D01*
X43547665Y55119852D01*
X43561227Y55205482D01*
X44249597Y54517112D01*
X44249599Y54517112D01*
X44299587Y54588502D01*
X44396313Y54795930D01*
X44455548Y55017001D01*
X44475495Y55245001D01*
X44455548Y55473000D01*
X44396313Y55694071D01*
X44299585Y55901503D01*
X44249600Y55972890D01*
X44249598Y55972890D01*
X43561227Y55284519D01*
X43547665Y55370148D01*
X43490141Y55483045D01*
X43400545Y55572641D01*
X43287648Y55630165D01*
X43202017Y55643728D01*
X43890388Y56332101D01*
X43818997Y56382088D01*
X43611570Y56478814D01*
X43390499Y56538049D01*
X43162500Y56557996D01*
X42934500Y56538049D01*
X42713429Y56478814D01*
X42505999Y56382087D01*
X42434609Y56332100D01*
X43122981Y55643728D01*
X43037352Y55630165D01*
X42924455Y55572641D01*
X42834859Y55483045D01*
X42777335Y55370148D01*
X42763772Y55284518D01*
X42075400Y55972891D01*
X42025411Y55901498D01*
X41940233Y55718834D01*
X41893316Y55665550D01*
X41825039Y55646089D01*
X41757079Y55666631D01*
X41713249Y55715922D01*
X41644866Y55853255D01*
X41516372Y56023407D01*
X41358802Y56167052D01*
X41358801Y56167053D01*
X41177521Y56279298D01*
X40978698Y56356321D01*
X40769110Y56395500D01*
X40555890Y56395500D01*
X40449050Y56375528D01*
X40346301Y56356321D01*
X40147478Y56279298D01*
X39966198Y56167053D01*
X39808627Y56023406D01*
X39680135Y55853258D01*
X39585094Y55662388D01*
X39526743Y55457308D01*
X39516155Y55343047D01*
X39489953Y55277063D01*
X39479788Y55265579D01*
X39462503Y55248294D01*
X39400191Y55214268D01*
X39329376Y55219333D01*
X39272540Y55261880D01*
X39247945Y55325763D01*
X39235756Y55457310D01*
X39177405Y55662389D01*
X39082366Y55853255D01*
X38953872Y56023407D01*
X38796302Y56167052D01*
X38796301Y56167053D01*
X38615021Y56279298D01*
X38416198Y56356321D01*
X38416197Y56356322D01*
X38206610Y56395500D01*
X37993390Y56395500D01*
X37886550Y56375528D01*
X37783801Y56356321D01*
X37584978Y56279298D01*
X37403698Y56167053D01*
X37246127Y56023406D01*
X37117632Y55853254D01*
X37037093Y55691509D01*
X36988824Y55639445D01*
X36920070Y55621743D01*
X36852660Y55644022D01*
X36835208Y55658577D01*
X36675462Y55818323D01*
X36668525Y55825847D01*
X36634334Y55866099D01*
X36634333Y55866100D01*
X36571216Y55914081D01*
X36568566Y55916153D01*
X36506548Y55966005D01*
X36487301Y55977943D01*
X36415118Y56011339D01*
X36412044Y56012812D01*
X36340776Y56048156D01*
X36319418Y56055676D01*
X36241727Y56072777D01*
X36238404Y56073556D01*
X36238094Y56073633D01*
X36231738Y56075214D01*
X36161241Y56092747D01*
X36138757Y56095500D01*
X36138493Y56095500D01*
X36059241Y56095500D01*
X36055829Y56095546D01*
X35976298Y56097701D01*
X35953154Y56095500D01*
X28763603Y56095500D01*
X28695482Y56115502D01*
X28678716Y56128386D01*
X28636301Y56167053D01*
X28455021Y56279298D01*
X28256198Y56356321D01*
X28256198Y56356322D01*
X28046610Y56395500D01*
X27833390Y56395500D01*
X27726550Y56375528D01*
X27623801Y56356321D01*
X27424978Y56279298D01*
X27243698Y56167053D01*
X27201284Y56128386D01*
X27137467Y56097274D01*
X27116397Y56095500D01*
X7156103Y56095500D01*
X7087982Y56115502D01*
X7071216Y56128386D01*
X7028801Y56167053D01*
X6847521Y56279298D01*
X6648698Y56356321D01*
X6439110Y56395500D01*
X6225890Y56395500D01*
X6119050Y56375528D01*
X6016301Y56356321D01*
X5817478Y56279298D01*
X5636198Y56167053D01*
X5478627Y56023406D01*
X5350135Y55853258D01*
X5281751Y55715922D01*
X5233482Y55663859D01*
X5164727Y55646156D01*
X5097317Y55668435D01*
X5054765Y55718835D01*
X4969585Y55901503D01*
X4919600Y55972890D01*
X4919597Y55972890D01*
X4231226Y55284520D01*
X4217665Y55370148D01*
X4160141Y55483045D01*
X4070545Y55572641D01*
X3957648Y55630165D01*
X3872014Y55643728D01*
X4560388Y56332101D01*
X4488997Y56382088D01*
X4281570Y56478814D01*
X4060499Y56538049D01*
X3832499Y56557996D01*
X3604500Y56538049D01*
X3383429Y56478814D01*
X3175999Y56382087D01*
X3104609Y56332101D01*
X3792983Y55643728D01*
X3707352Y55630165D01*
X3594455Y55572641D01*
X3504859Y55483045D01*
X3447335Y55370148D01*
X3433772Y55284518D01*
X2745400Y55972891D01*
X2695413Y55901501D01*
X2598686Y55694071D01*
X2539451Y55473000D01*
X2519504Y55245001D01*
X2539451Y55017001D01*
X2597138Y54801711D01*
X2595448Y54730735D01*
X2555654Y54671939D01*
X2490390Y54643991D01*
X2475431Y54643100D01*
X2399367Y54643100D01*
X2389224Y54643509D01*
X2336264Y54647787D01*
X2258042Y54637076D01*
X2254574Y54636650D01*
X2176084Y54628114D01*
X2152987Y54622693D01*
X2078864Y54595407D01*
X2075572Y54594247D01*
X2000769Y54569042D01*
X1979376Y54558781D01*
X1912879Y54516216D01*
X1909912Y54514374D01*
X1842263Y54473670D01*
X1842261Y54473668D01*
X1823575Y54459052D01*
X1767791Y54403194D01*
X1765290Y54400758D01*
X1707954Y54346445D01*
X1692835Y54328139D01*
X1334477Y53969306D01*
X1326895Y53962311D01*
X1286899Y53928338D01*
X1238724Y53864966D01*
X1236678Y53862346D01*
X1186526Y53799869D01*
X1175163Y53781534D01*
X1141511Y53708798D01*
X1140074Y53705797D01*
X1104537Y53634023D01*
X1097378Y53613669D01*
X1080158Y53535437D01*
X1079400Y53532196D01*
X1060114Y53454424D01*
X1057500Y53433024D01*
X1057500Y53352912D01*
X1057456Y53349584D01*
X1055339Y53269479D01*
X1057500Y53246833D01*
X1057500Y28019512D01*
X1055840Y27999128D01*
X1053739Y27986317D01*
X500000Y27986317D01*
X500000Y56005512D01*
X520002Y56073633D01*
X539701Y56097319D01*
X945547Y56478814D01*
X1463625Y56965808D01*
X1526959Y56997890D01*
X1549923Y57000000D01*
X44950077Y57000000D01*
X45018198Y56979998D01*
G37*
G04 #@! TD.AperFunction*
M02*
