G04 #@! TF.GenerationSoftware,KiCad,Pcbnew,7.0.2-0*
G04 #@! TF.CreationDate,2023-04-20T01:12:48+09:00*
G04 #@! TF.ProjectId,MEZ6809RAMI,4d455a36-3830-4395-9241-4d492e6b6963,A*
G04 #@! TF.SameCoordinates,PX5f5e100PY8f0d180*
G04 #@! TF.FileFunction,Copper,L2,Bot*
G04 #@! TF.FilePolarity,Positive*
%FSLAX46Y46*%
G04 Gerber Fmt 4.6, Leading zero omitted, Abs format (unit mm)*
G04 Created by KiCad (PCBNEW 7.0.2-0) date 2023-04-20 01:12:48*
%MOMM*%
%LPD*%
G01*
G04 APERTURE LIST*
G04 Aperture macros list*
%AMFreePoly0*
4,1,19,0.500000,-0.750000,0.000000,-0.750000,0.000000,-0.744911,-0.071157,-0.744911,-0.207708,-0.704816,-0.327430,-0.627875,-0.420627,-0.520320,-0.479746,-0.390866,-0.500000,-0.250000,-0.500000,0.250000,-0.479746,0.390866,-0.420627,0.520320,-0.327430,0.627875,-0.207708,0.704816,-0.071157,0.744911,0.000000,0.744911,0.000000,0.750000,0.500000,0.750000,0.500000,-0.750000,0.500000,-0.750000,
$1*%
%AMFreePoly1*
4,1,19,0.000000,0.744911,0.071157,0.744911,0.207708,0.704816,0.327430,0.627875,0.420627,0.520320,0.479746,0.390866,0.500000,0.250000,0.500000,-0.250000,0.479746,-0.390866,0.420627,-0.520320,0.327430,-0.627875,0.207708,-0.704816,0.071157,-0.744911,0.000000,-0.744911,0.000000,-0.750000,-0.500000,-0.750000,-0.500000,0.750000,0.000000,0.750000,0.000000,0.744911,0.000000,0.744911,
$1*%
G04 Aperture macros list end*
G04 #@! TA.AperFunction,ComponentPad*
%ADD10C,1.600000*%
G04 #@! TD*
G04 #@! TA.AperFunction,ComponentPad*
%ADD11R,1.600000X1.600000*%
G04 #@! TD*
G04 #@! TA.AperFunction,ComponentPad*
%ADD12O,1.600000X1.600000*%
G04 #@! TD*
G04 #@! TA.AperFunction,SMDPad,CuDef*
%ADD13FreePoly0,180.000000*%
G04 #@! TD*
G04 #@! TA.AperFunction,SMDPad,CuDef*
%ADD14FreePoly1,180.000000*%
G04 #@! TD*
G04 #@! TA.AperFunction,ComponentPad*
%ADD15R,1.700000X1.700000*%
G04 #@! TD*
G04 #@! TA.AperFunction,ComponentPad*
%ADD16O,1.700000X1.700000*%
G04 #@! TD*
G04 #@! TA.AperFunction,ViaPad*
%ADD17C,0.605000*%
G04 #@! TD*
G04 #@! TA.AperFunction,Conductor*
%ADD18C,0.600000*%
G04 #@! TD*
G04 #@! TA.AperFunction,Conductor*
%ADD19C,0.400000*%
G04 #@! TD*
G04 #@! TA.AperFunction,Conductor*
%ADD20C,0.152400*%
G04 #@! TD*
G04 APERTURE END LIST*
G04 #@! TA.AperFunction,EtchedComponent*
G36*
X18665000Y48595000D02*
G01*
X18165000Y48595000D01*
X18165000Y49195000D01*
X18665000Y49195000D01*
X18665000Y48595000D01*
G37*
G04 #@! TD.AperFunction*
D10*
X6332500Y55245000D03*
X3832500Y55245000D03*
D11*
X6347500Y51435000D03*
D12*
X6347500Y48895000D03*
X6347500Y46355000D03*
X6347500Y43815000D03*
X6347500Y41275000D03*
X6347500Y38735000D03*
X6347500Y36195000D03*
X6347500Y33655000D03*
X6347500Y31115000D03*
X6347500Y28575000D03*
X6347500Y26035000D03*
X6347500Y23495000D03*
X6347500Y20955000D03*
X6347500Y18415000D03*
X6347500Y15875000D03*
X6347500Y13335000D03*
X6347500Y10795000D03*
X6347500Y8255000D03*
X6347500Y5715000D03*
X6347500Y3175000D03*
X21587500Y3175000D03*
X21587500Y5715000D03*
X21587500Y8255000D03*
X21587500Y10795000D03*
X21587500Y13335000D03*
X21587500Y15875000D03*
X21587500Y18415000D03*
X21587500Y20955000D03*
X21587500Y23495000D03*
X21587500Y26035000D03*
X21587500Y28575000D03*
X21587500Y31115000D03*
X21587500Y33655000D03*
X21587500Y36195000D03*
X21587500Y38735000D03*
X21587500Y41275000D03*
X21587500Y43815000D03*
X21587500Y46355000D03*
X21587500Y48895000D03*
X21587500Y51435000D03*
D10*
X27940000Y55245000D03*
D12*
X38100000Y55245000D03*
D10*
X40662500Y55245000D03*
X43162500Y55245000D03*
D11*
X27937500Y51440000D03*
D12*
X27937500Y48900000D03*
X27937500Y46360000D03*
X27937500Y43820000D03*
X27937500Y41280000D03*
X27937500Y38740000D03*
X27937500Y36200000D03*
X27937500Y33660000D03*
X27937500Y31120000D03*
X27937500Y28580000D03*
X27937500Y26040000D03*
X27937500Y23500000D03*
X27937500Y20960000D03*
X27937500Y18420000D03*
X27937500Y15880000D03*
X27937500Y13340000D03*
X43177500Y13340000D03*
X43177500Y15880000D03*
X43177500Y18420000D03*
X43177500Y20960000D03*
X43177500Y23500000D03*
X43177500Y26040000D03*
X43177500Y28580000D03*
X43177500Y31120000D03*
X43177500Y33660000D03*
X43177500Y36200000D03*
X43177500Y38740000D03*
X43177500Y41280000D03*
X43177500Y43820000D03*
X43177500Y46360000D03*
X43177500Y48900000D03*
X43177500Y51440000D03*
D13*
X19065000Y48895000D03*
D14*
X17765000Y48895000D03*
D15*
X24132500Y51440000D03*
D16*
X24132500Y48900000D03*
X24132500Y46360000D03*
X24132500Y43820000D03*
X24132500Y41280000D03*
X24132500Y38740000D03*
X24132500Y36200000D03*
X24132500Y33660000D03*
X24132500Y31120000D03*
X24132500Y28580000D03*
X24132500Y26040000D03*
X24132500Y23500000D03*
X24132500Y20960000D03*
X24132500Y18420000D03*
X24132500Y15880000D03*
X24132500Y13340000D03*
X24132500Y10800000D03*
X24132500Y8260000D03*
X24132500Y5720000D03*
X24132500Y3180000D03*
D15*
X3812500Y51440000D03*
D16*
X3812500Y48900000D03*
X3812500Y46360000D03*
X3812500Y43820000D03*
X3812500Y41280000D03*
X3812500Y38740000D03*
X3812500Y36200000D03*
X3812500Y33660000D03*
X3812500Y31120000D03*
X3812500Y28580000D03*
X3812500Y26040000D03*
X3812500Y23500000D03*
X3812500Y20960000D03*
X3812500Y18420000D03*
X3812500Y15880000D03*
X3812500Y13340000D03*
X3812500Y10800000D03*
X3812500Y8260000D03*
X3812500Y5720000D03*
X3812500Y3180000D03*
D17*
X29845000Y22225000D03*
X18415000Y28575000D03*
X40640000Y31115000D03*
X9525000Y18415000D03*
X17780000Y41275000D03*
X41275000Y50800000D03*
X26289000Y27305000D03*
X17780000Y8255000D03*
X26035000Y22225000D03*
X10160000Y52070000D03*
X17780000Y52070000D03*
X43180000Y10160000D03*
X18415000Y31115000D03*
X18415000Y26035000D03*
X18415000Y27305000D03*
X17780000Y38735000D03*
X17780000Y35560000D03*
X26670000Y10160000D03*
X26035000Y45085000D03*
X10160000Y40005000D03*
X40640000Y33655000D03*
X1905000Y1905000D03*
X10160000Y8255000D03*
X10160000Y38735000D03*
X45085000Y8255000D03*
X26035000Y1905000D03*
X17780000Y40005000D03*
X40640000Y17145000D03*
X13970000Y35560000D03*
X40005000Y52070000D03*
X8890000Y33655000D03*
X41275000Y52070000D03*
X19685000Y31115000D03*
X26038000Y19688000D03*
X26035000Y38100000D03*
X17767500Y50152500D03*
X31115000Y33655000D03*
X33020000Y10160000D03*
X29845000Y19685000D03*
X17145000Y31115000D03*
X10160000Y41275000D03*
X31115000Y38119400D03*
X40640000Y38100000D03*
X7813400Y29330100D03*
X19710059Y19417559D03*
X18265400Y17548600D03*
X19418700Y17018000D03*
X29718000Y35814000D03*
X35560000Y17780000D03*
X20193000Y37718500D03*
X8516300Y23495000D03*
X7380459Y27305000D03*
X18288000Y16487400D03*
X31242000Y14305300D03*
D18*
X26672000Y13335000D02*
X26038000Y13970000D01*
D19*
X30460600Y37465000D02*
X31115000Y38119400D01*
D18*
X26035000Y22225000D02*
X26038000Y22228000D01*
X25398000Y23500000D02*
X24132500Y23500000D01*
X24132000Y23500000D02*
X22868000Y24765000D01*
X19685000Y24765000D02*
X18415000Y26035000D01*
X27937500Y13340000D02*
X26678000Y13340000D01*
X26038000Y19688000D02*
X26038000Y22222000D01*
X26038000Y22860000D02*
X25398000Y23500000D01*
D19*
X26035000Y38100000D02*
X26670000Y37465000D01*
D18*
X26678000Y13340000D02*
X26672000Y13335000D01*
D19*
X26670000Y37465000D02*
X30460600Y37465000D01*
D18*
X22868000Y24765000D02*
X19685000Y24765000D01*
X26038000Y22228000D02*
X26038000Y22860000D01*
X26038000Y13970000D02*
X26038000Y19688000D01*
X26038000Y22222000D02*
X26035000Y22225000D01*
D20*
X3398400Y4608100D02*
X4318300Y4608100D01*
X27922100Y34688900D02*
X27559000Y35052000D01*
X23751229Y35055900D02*
X22733000Y36074129D01*
X21125739Y37187900D02*
X8191152Y37187900D01*
X3812500Y51440000D02*
X2108700Y49736200D01*
X27559000Y35052000D02*
X25196052Y35052000D01*
X1796700Y39392800D02*
X1796700Y6209800D01*
X42148600Y33660000D02*
X41119700Y34688900D01*
X4318300Y4608100D02*
X5425200Y5715000D01*
X2108700Y49736200D02*
X2108700Y40315200D01*
X2108700Y40315200D02*
X2413900Y40010000D01*
X1796700Y6209800D02*
X3398400Y4608100D01*
X25196052Y35052000D02*
X25192152Y35055900D01*
X6532161Y40005000D02*
X2418900Y40005000D01*
X22157400Y37278600D02*
X21216439Y37278600D01*
X25192152Y35055900D02*
X23751229Y35055900D01*
X22733000Y36703000D02*
X22157400Y37278600D01*
X41119700Y34688900D02*
X27922100Y34688900D01*
X2413900Y40010000D02*
X1796700Y39392800D01*
X8191152Y37187900D02*
X7376100Y38002952D01*
X21216439Y37278600D02*
X21125739Y37187900D01*
X2418900Y40005000D02*
X2413900Y40010000D01*
X43177500Y33660000D02*
X42148600Y33660000D01*
X5425200Y5715000D02*
X6347500Y5715000D01*
X7376100Y38002952D02*
X7376100Y39161061D01*
X22733000Y36074129D02*
X22733000Y36703000D01*
X7376100Y39161061D02*
X6532161Y40005000D01*
X2719000Y43340700D02*
X2719000Y46839400D01*
X2719000Y46839400D02*
X3812500Y47932900D01*
X3329000Y42730700D02*
X2719000Y43340700D01*
X27937500Y43820000D02*
X26908600Y43820000D01*
X25819300Y42730700D02*
X3329000Y42730700D01*
X3812500Y47932900D02*
X3812500Y48900000D01*
X26908600Y43820000D02*
X25819300Y42730700D01*
X9829800Y51104800D02*
X19371587Y51104800D01*
X4891400Y46360000D02*
X6047300Y47515900D01*
X7376100Y48143100D02*
X7376100Y48651100D01*
X24387871Y4450000D02*
X25211100Y5273229D01*
X23784800Y4450000D02*
X24387871Y4450000D01*
X25400000Y47979104D02*
X25622804Y47756300D01*
X28426913Y47756300D02*
X29575700Y46607513D01*
X25211100Y5425996D02*
X27786104Y8001000D01*
X6047300Y47515900D02*
X6748900Y47515900D01*
X29967000Y41280000D02*
X43177500Y41280000D01*
X45144900Y9838900D02*
X45144900Y27043652D01*
X19371587Y51104800D02*
X21035187Y52768400D01*
X6748900Y47515900D02*
X7376100Y48143100D01*
X29575700Y41671300D02*
X29967000Y41280000D01*
X25622804Y47756300D02*
X28426913Y47756300D01*
X44577000Y39880500D02*
X43177500Y41280000D01*
X43307000Y8001000D02*
X45144900Y9838900D01*
X21587500Y3175000D02*
X22509800Y3175000D01*
X25211100Y5273229D02*
X25211100Y5425996D01*
X22509800Y3175000D02*
X23784800Y4450000D01*
X44577000Y27611552D02*
X44577000Y39880500D01*
X24961300Y52768400D02*
X25400000Y52329700D01*
X29575700Y46607513D02*
X29575700Y41671300D01*
X27786104Y8001000D02*
X43307000Y8001000D01*
X45144900Y27043652D02*
X44577000Y27611552D01*
X3812500Y46360000D02*
X4891400Y46360000D01*
X25400000Y52329700D02*
X25400000Y47979104D01*
X7376100Y48651100D02*
X9829800Y51104800D01*
X21035187Y52768400D02*
X24961300Y52768400D01*
X7680900Y48524848D02*
X7680900Y46233739D01*
X9956052Y50800000D02*
X7680900Y48524848D01*
X22212400Y52463600D02*
X21161439Y52463600D01*
X24892000Y47625000D02*
X23749000Y47625000D01*
X22733000Y51943000D02*
X22212400Y52463600D01*
X19497839Y50800000D02*
X9956052Y50800000D01*
X6316361Y44869200D02*
X4861700Y44869200D01*
X26157000Y46360000D02*
X24892000Y47625000D01*
X22733000Y48641000D02*
X22733000Y51943000D01*
X4861700Y44869200D02*
X3812500Y43820000D01*
X23749000Y47625000D02*
X22733000Y48641000D01*
X27937500Y46360000D02*
X26157000Y46360000D01*
X21161439Y52463600D02*
X19497839Y50800000D01*
X7680900Y46233739D02*
X6316361Y44869200D01*
X41905000Y48900000D02*
X43177500Y48900000D01*
X38100000Y55245000D02*
X38100000Y52705000D01*
X38100000Y52705000D02*
X41905000Y48900000D01*
X9657000Y21153948D02*
X9657000Y24201948D01*
X21587500Y19306500D02*
X20243800Y20650200D01*
X8712200Y28431300D02*
X7813400Y29330100D01*
X9657000Y24201948D02*
X8712200Y25146748D01*
X10160748Y20650200D02*
X9657000Y21153948D01*
X21587500Y18415000D02*
X21587500Y19306500D01*
X20243800Y20650200D02*
X10160748Y20650200D01*
X8712200Y25146748D02*
X8712200Y28431300D01*
X9017000Y25273000D02*
X9017000Y28877589D01*
X9017000Y28877589D02*
X7848989Y30045600D01*
X7848989Y30045600D02*
X5927200Y30045600D01*
X10287000Y20955000D02*
X9961800Y21280200D01*
X21587500Y20955000D02*
X10287000Y20955000D01*
X9961800Y21280200D02*
X9961800Y24328200D01*
X4970700Y31002100D02*
X4970700Y32501800D01*
X5927200Y30045600D02*
X4970700Y31002100D01*
X9961800Y24328200D02*
X9017000Y25273000D01*
X4970700Y32501800D02*
X3812500Y33660000D01*
X20558900Y19904048D02*
X20117548Y20345400D01*
X43598900Y24537000D02*
X42759839Y24537000D01*
X33299400Y12852400D02*
X32512000Y12065000D01*
X34931396Y20299500D02*
X33299400Y18667504D01*
X9352200Y24075696D02*
X8407400Y25020496D01*
X25781000Y12065000D02*
X25211100Y12634900D01*
X8407400Y25020496D02*
X8407400Y27970400D01*
X6718800Y29659000D02*
X5273500Y29659000D01*
X9352200Y21027696D02*
X9352200Y24075696D01*
X20117548Y20345400D02*
X10034496Y20345400D01*
X20558900Y17988939D02*
X20558900Y19904048D01*
X5273500Y29659000D02*
X3812500Y31120000D01*
X44535000Y23600900D02*
X43598900Y24537000D01*
X21587500Y16960339D02*
X20558900Y17988939D01*
X43177500Y18420000D02*
X44535000Y19777500D01*
X41508500Y20299500D02*
X34931396Y20299500D01*
X24387871Y14610000D02*
X22852500Y14610000D01*
X22852500Y14610000D02*
X21587500Y15875000D01*
X33299400Y18667504D02*
X33299400Y12852400D01*
X10034496Y20345400D02*
X9352200Y21027696D01*
X42759839Y24537000D02*
X42148900Y23926061D01*
X42148900Y23926061D02*
X42148900Y20939900D01*
X32512000Y12065000D02*
X25781000Y12065000D01*
X25211100Y12634900D02*
X25211100Y13786771D01*
X21587500Y15875000D02*
X21587500Y16960339D01*
X25211100Y13786771D02*
X24387871Y14610000D01*
X8407400Y27970400D02*
X6718800Y29659000D01*
X44535000Y19777500D02*
X44535000Y23600900D01*
X42148900Y20939900D02*
X41508500Y20299500D01*
X7600448Y27836100D02*
X7063261Y27836100D01*
X21587500Y14420339D02*
X20254100Y15753739D01*
X23661400Y12183400D02*
X25231548Y12183400D01*
X20254100Y19623900D02*
X19837400Y20040600D01*
X9908244Y20040600D02*
X9047400Y20901444D01*
X4846100Y27546400D02*
X3812500Y28580000D01*
X9047400Y23949444D02*
X8102600Y24894244D01*
X25231548Y12183400D02*
X25654748Y11760200D01*
X25654748Y11760200D02*
X32638252Y11760200D01*
X21587500Y13335000D02*
X22509800Y13335000D01*
X8102600Y27333948D02*
X7600448Y27836100D01*
X9047400Y20901444D02*
X9047400Y23949444D01*
X33604200Y12726148D02*
X33604200Y18541252D01*
X32638252Y11760200D02*
X33604200Y12726148D01*
X22509800Y13335000D02*
X23661400Y12183400D01*
X33604200Y18541252D02*
X35057648Y19994700D01*
X21587500Y13335000D02*
X21587500Y14420339D01*
X35057648Y19994700D02*
X42212200Y19994700D01*
X8102600Y24894244D02*
X8102600Y27333948D01*
X42212200Y19994700D02*
X43177500Y20960000D01*
X7063261Y27836100D02*
X6773561Y27546400D01*
X6773561Y27546400D02*
X4846100Y27546400D01*
X20254100Y15753739D02*
X20254100Y19623900D01*
X19837400Y20040600D02*
X9908244Y20040600D01*
X19710059Y19417559D02*
X19391818Y19735800D01*
X7281013Y19748400D02*
X6099439Y19748400D01*
X7293613Y19735800D02*
X7281013Y19748400D01*
X19391818Y19735800D02*
X7293613Y19735800D01*
X5318900Y20528939D02*
X5318900Y21993600D01*
X6099439Y19748400D02*
X5318900Y20528939D01*
X5318900Y21993600D02*
X3812500Y23500000D01*
X22671100Y11878600D02*
X25105296Y11878600D01*
X44217100Y20527100D02*
X44217100Y21431500D01*
X19949300Y15627487D02*
X20558900Y15017887D01*
X5448400Y19443600D02*
X7154761Y19443600D01*
X21587500Y10795000D02*
X22671100Y11878600D01*
X3812500Y20952500D02*
X4953000Y19812000D01*
X7154761Y19443600D02*
X7167361Y19431000D01*
X44217100Y21431500D02*
X43177500Y22471100D01*
X43379900Y19689900D02*
X44217100Y20527100D01*
X35183900Y19689900D02*
X43379900Y19689900D01*
X25105296Y11878600D02*
X25528496Y11455400D01*
X19949300Y18214200D02*
X19949300Y15627487D01*
X33909000Y18415000D02*
X35183900Y19689900D01*
X18732500Y19431000D02*
X19949300Y18214200D01*
X25528496Y11455400D02*
X32764504Y11455400D01*
X33909000Y12599896D02*
X33909000Y18415000D01*
X43177500Y22471100D02*
X43177500Y23500000D01*
X20558900Y11823600D02*
X21587500Y10795000D01*
X4953000Y19812000D02*
X5080000Y19812000D01*
X5080000Y19812000D02*
X5448400Y19443600D01*
X7167361Y19431000D02*
X18732500Y19431000D01*
X20558900Y15017887D02*
X20558900Y11823600D01*
X32764504Y11455400D02*
X33909000Y12599896D01*
X3812500Y20960000D02*
X3812500Y20952500D01*
X28982200Y23910400D02*
X28125300Y24767300D01*
X4909700Y17322800D02*
X3812500Y18420000D01*
X28125300Y24767300D02*
X27010298Y24767300D01*
X27937500Y20960000D02*
X27937500Y21988900D01*
X18039600Y17322800D02*
X4909700Y17322800D01*
X27010298Y24767300D02*
X24408498Y27369100D01*
X18265400Y17548600D02*
X18039600Y17322800D01*
X27937500Y21988900D02*
X28982200Y23033600D01*
X28982200Y23033600D02*
X28982200Y23910400D01*
X24408498Y27369100D02*
X22793400Y27369100D01*
X22793400Y27369100D02*
X21587500Y28575000D01*
X26908600Y20477800D02*
X26908600Y24006894D01*
X27937500Y18420000D02*
X27937500Y19448900D01*
X23648400Y24892000D02*
X22505400Y26035000D01*
X26908600Y24006894D02*
X26023494Y24892000D01*
X19418700Y17018000D02*
X4953000Y17018000D01*
X4953000Y17018000D02*
X3815000Y15880000D01*
X27937500Y19448900D02*
X26908600Y20477800D01*
X3815000Y15880000D02*
X3812500Y15880000D01*
X22505400Y26035000D02*
X21587500Y26035000D01*
X26023494Y24892000D02*
X23648400Y24892000D01*
X43180748Y8305800D02*
X44840100Y9965152D01*
X7696948Y6858000D02*
X26212052Y6858000D01*
X44840100Y26917400D02*
X43177500Y28580000D01*
X30538300Y34993700D02*
X41345500Y34993700D01*
X29718000Y35814000D02*
X30538300Y34993700D01*
X44214800Y30646200D02*
X43177500Y29608900D01*
X44214800Y34084400D02*
X44214800Y30646200D01*
X6347500Y8207448D02*
X7696948Y6858000D01*
X6347500Y8255000D02*
X6347500Y8207448D01*
X41345500Y34993700D02*
X41345900Y34994100D01*
X43305100Y34994100D02*
X44214800Y34084400D01*
X27659852Y8305800D02*
X43180748Y8305800D01*
X44840100Y9965152D02*
X44840100Y26917400D01*
X43177500Y29608900D02*
X43177500Y28580000D01*
X26212052Y6858000D02*
X27659852Y8305800D01*
X41345900Y34994100D02*
X43305100Y34994100D01*
X29840748Y40975200D02*
X42022348Y40975200D01*
X44207900Y37230400D02*
X43177500Y36200000D01*
X27533600Y8610600D02*
X26085800Y7162800D01*
X26085800Y7162800D02*
X7950200Y7162800D01*
X43051248Y39946300D02*
X43426300Y39946300D01*
X34645600Y8610600D02*
X27533600Y8610600D01*
X25496552Y47451500D02*
X28300661Y47451500D01*
X29270900Y41545048D02*
X29840748Y40975200D01*
X44207900Y39164700D02*
X44207900Y37230400D01*
X7376100Y7736900D02*
X7376100Y9766400D01*
X35560000Y17780000D02*
X35560000Y9525000D01*
X7376100Y9766400D02*
X6347500Y10795000D01*
X35560000Y9525000D02*
X34645600Y8610600D01*
X42022348Y40975200D02*
X43051248Y39946300D01*
X29270900Y46481261D02*
X29270900Y41545048D01*
X24132500Y48900000D02*
X24132500Y48815552D01*
X24132500Y48815552D02*
X25496552Y47451500D01*
X7950200Y7162800D02*
X7376100Y7736900D01*
X43426300Y39946300D02*
X44207900Y39164700D01*
X28300661Y47451500D02*
X29270900Y46481261D01*
X28966100Y44246061D02*
X28966100Y41418796D01*
X43177500Y39388996D02*
X43177500Y38740000D01*
X28966100Y41418796D02*
X29714496Y40670400D01*
X24132500Y46360000D02*
X25725948Y46360000D01*
X26842800Y46055200D02*
X26908900Y45989100D01*
X25725948Y46360000D02*
X26030748Y46055200D01*
X41896096Y40670400D02*
X43177500Y39388996D01*
X29714496Y40670400D02*
X41896096Y40670400D01*
X27910439Y44932400D02*
X28279761Y44932400D01*
X26030748Y46055200D02*
X26842800Y46055200D01*
X26908900Y45933939D02*
X27910439Y44932400D01*
X26908900Y45989100D02*
X26908900Y45933939D01*
X28279761Y44932400D02*
X28966100Y44246061D01*
X27937500Y38740000D02*
X27937500Y39372500D01*
X26030000Y41280000D02*
X24132500Y41280000D01*
X27937500Y39372500D02*
X26030000Y41280000D01*
X23098900Y37706400D02*
X24132500Y38740000D01*
X25776000Y36200000D02*
X24132500Y37843500D01*
X27937500Y36200000D02*
X25776000Y36200000D01*
X24132500Y37843500D02*
X24132500Y38740000D01*
X20205100Y37706400D02*
X23098900Y37706400D01*
X20193000Y37718500D02*
X20205100Y37706400D01*
X8516300Y23495000D02*
X6347500Y23495000D01*
X19759648Y36578300D02*
X20558900Y35779048D01*
X4150200Y27310000D02*
X3506700Y27310000D01*
X3506700Y27310000D02*
X2406900Y28409800D01*
X25014000Y33660000D02*
X24132500Y33660000D01*
X20558900Y33228939D02*
X21161439Y32626400D01*
X21161439Y32626400D02*
X23098900Y32626400D01*
X25402500Y33655000D02*
X25019000Y33655000D01*
X27937500Y31120000D02*
X25402500Y33655000D01*
X7169300Y37321100D02*
X7912100Y36578300D01*
X20558900Y35779048D02*
X20558900Y33228939D01*
X6347500Y26035000D02*
X5318600Y26035000D01*
X5318600Y26035000D02*
X5318600Y26141600D01*
X2406900Y36348200D02*
X3379800Y37321100D01*
X23098900Y32626400D02*
X24132500Y33660000D01*
X25019000Y33655000D02*
X25014000Y33660000D01*
X7912100Y36578300D02*
X19759648Y36578300D01*
X2406900Y28409800D02*
X2406900Y36348200D01*
X3379800Y37321100D02*
X7169300Y37321100D01*
X5318600Y26141600D02*
X4150200Y27310000D01*
X26030000Y31120000D02*
X27937500Y29212500D01*
X24132500Y31120000D02*
X26030000Y31120000D01*
X7985700Y33902513D02*
X6870013Y35018200D01*
X4143300Y29850000D02*
X5418300Y28575000D01*
X24132500Y31120000D02*
X23053600Y31120000D01*
X3611100Y35018200D02*
X2712100Y34119200D01*
X27937500Y29212500D02*
X27937500Y28580000D01*
X9129704Y30086400D02*
X7985700Y31230404D01*
X2712100Y30684400D02*
X3546500Y29850000D01*
X23053600Y31120000D02*
X22020000Y30086400D01*
X3546500Y29850000D02*
X4143300Y29850000D01*
X7985700Y31230404D02*
X7985700Y33902513D01*
X22020000Y30086400D02*
X9129704Y30086400D01*
X6870013Y35018200D02*
X3611100Y35018200D01*
X5418300Y28575000D02*
X6347500Y28575000D01*
X2712100Y34119200D02*
X2712100Y30684400D01*
X24132500Y28580000D02*
X24402300Y28580000D01*
X24402300Y28580000D02*
X23200700Y29781600D01*
X27937500Y26040000D02*
X26168650Y26040000D01*
X7680900Y31104152D02*
X7680900Y33776261D01*
X23200700Y29781600D02*
X9003452Y29781600D01*
X5909600Y34688100D02*
X5275900Y34054400D01*
X7680900Y33776261D02*
X6769061Y34688100D01*
X6769061Y34688100D02*
X5909600Y34688100D01*
X9003452Y29781600D02*
X7680900Y31104152D01*
X5275900Y32186600D02*
X6347500Y31115000D01*
X5275900Y34054400D02*
X5275900Y32186600D01*
X26168650Y26040000D02*
X24402300Y27806350D01*
X24402300Y27806350D02*
X24402300Y28580000D01*
X7376100Y32626400D02*
X6347500Y33655000D01*
X27937500Y23500000D02*
X27846546Y23500000D01*
X22110600Y27546400D02*
X21161439Y27546400D01*
X27846546Y23500000D02*
X25306546Y26040000D01*
X8877200Y29476800D02*
X7376100Y30977900D01*
X23617000Y26040000D02*
X22110600Y27546400D01*
X20053200Y29476800D02*
X8877200Y29476800D01*
X24132500Y26040000D02*
X24260500Y26040000D01*
X21161439Y27546400D02*
X20558900Y28148939D01*
X7376100Y30977900D02*
X7376100Y32626400D01*
X20558900Y28971100D02*
X20053200Y29476800D01*
X25306546Y26040000D02*
X24260500Y26040000D01*
X20558900Y28148939D02*
X20558900Y28971100D01*
X24260500Y26040000D02*
X23617000Y26040000D01*
X2712100Y23975400D02*
X2712100Y15384400D01*
X3812500Y14284000D02*
X3812500Y13340000D01*
X7380459Y27305000D02*
X7380459Y25559359D01*
X3508500Y24771800D02*
X2712100Y23975400D01*
X6592900Y24771800D02*
X3508500Y24771800D01*
X7380459Y25559359D02*
X6592900Y24771800D01*
X2712100Y15384400D02*
X3812500Y14284000D01*
X18288000Y16487400D02*
X20254100Y14521300D01*
X20254100Y14521300D02*
X20254100Y10669800D01*
X23091300Y9758800D02*
X24132500Y10800000D01*
X20254100Y10669800D02*
X21165100Y9758800D01*
X21165100Y9758800D02*
X23091300Y9758800D01*
X21587500Y36195000D02*
X20574000Y36195000D01*
X3812500Y6664000D02*
X3812500Y5720000D01*
X3253300Y37626200D02*
X2101800Y36474700D01*
X7321800Y37626200D02*
X3253300Y37626200D01*
X19885900Y36883100D02*
X8064900Y36883100D01*
X2101800Y36474700D02*
X2101800Y8374700D01*
X2101800Y8374700D02*
X3812500Y6664000D01*
X20574000Y36195000D02*
X19885900Y36883100D01*
X8064900Y36883100D02*
X7321800Y37626200D01*
X22616400Y33669900D02*
X22616400Y33655000D01*
X30226000Y30286600D02*
X28125300Y32387300D01*
X28125300Y32387300D02*
X27429700Y32387300D01*
X25065900Y34751100D02*
X23697600Y34751100D01*
X23697600Y34751100D02*
X22616400Y33669900D01*
X31242000Y22910052D02*
X30226000Y23926052D01*
X27429700Y32387300D02*
X25065900Y34751100D01*
X30226000Y23926052D02*
X30226000Y30286600D01*
X22616400Y33655000D02*
X21587500Y33655000D01*
X31242000Y14305300D02*
X31242000Y22910052D01*
X19065000Y48895000D02*
X21587500Y48895000D01*
G04 #@! TA.AperFunction,Conductor*
G36*
X17574083Y16571298D02*
G01*
X17620576Y16517642D01*
X17631043Y16480488D01*
X17649317Y16329980D01*
X17705549Y16181709D01*
X17731531Y16144069D01*
X17795633Y16051201D01*
X17914329Y15946045D01*
X18054742Y15872350D01*
X18208711Y15834400D01*
X18285365Y15834400D01*
X18353486Y15814398D01*
X18374460Y15797495D01*
X19790494Y14381460D01*
X19824520Y14319148D01*
X19827399Y14292365D01*
X19827400Y10700842D01*
X19826608Y10686735D01*
X19822882Y10653665D01*
X19832915Y10600632D01*
X19833703Y10595991D01*
X19842728Y10536119D01*
X19843727Y10533082D01*
X19872017Y10479553D01*
X19874138Y10475351D01*
X19900415Y10420786D01*
X19902240Y10418215D01*
X19906899Y10413556D01*
X19906900Y10413555D01*
X19945080Y10375375D01*
X19948323Y10372008D01*
X19989531Y10327597D01*
X20003831Y10316624D01*
X20841421Y9479034D01*
X20850837Y9468499D01*
X20871592Y9442473D01*
X20916220Y9412047D01*
X20920017Y9409352D01*
X20928275Y9403257D01*
X20971206Y9346712D01*
X20976751Y9275932D01*
X20943150Y9213391D01*
X20919785Y9194754D01*
X20891198Y9177054D01*
X20733627Y9033406D01*
X20605135Y8863258D01*
X20510094Y8672388D01*
X20451744Y8467313D01*
X20432071Y8255000D01*
X20451744Y8042688D01*
X20510095Y7837611D01*
X20542933Y7771662D01*
X20555391Y7701767D01*
X20528084Y7636232D01*
X20469681Y7595864D01*
X20430142Y7589500D01*
X8179135Y7589500D01*
X8111014Y7609502D01*
X8090040Y7626405D01*
X7839705Y7876740D01*
X7805679Y7939052D01*
X7802800Y7965835D01*
X7802800Y9735360D01*
X7803592Y9749467D01*
X7804858Y9760703D01*
X7807318Y9782536D01*
X7797282Y9835580D01*
X7796493Y9840224D01*
X7787468Y9900102D01*
X7786480Y9903104D01*
X7758182Y9956646D01*
X7756073Y9960821D01*
X7732639Y10009484D01*
X7732638Y10009485D01*
X7729780Y10015421D01*
X7727962Y10017983D01*
X7685144Y10060801D01*
X7681875Y10064194D01*
X7640672Y10108600D01*
X7626369Y10119576D01*
X7464732Y10281213D01*
X7430706Y10343525D01*
X7432636Y10404786D01*
X7483256Y10582690D01*
X7502929Y10795000D01*
X7483256Y11007310D01*
X7424905Y11212389D01*
X7329866Y11403255D01*
X7201372Y11573407D01*
X7043802Y11717052D01*
X7043801Y11717053D01*
X6862521Y11829298D01*
X6663698Y11906321D01*
X6477402Y11941146D01*
X6414119Y11973324D01*
X6378277Y12034609D01*
X6381258Y12105543D01*
X6422116Y12163605D01*
X6477401Y12188855D01*
X6663698Y12223679D01*
X6862519Y12300702D01*
X6870595Y12305702D01*
X6943730Y12350986D01*
X7043802Y12412948D01*
X7201372Y12556593D01*
X7329866Y12726745D01*
X7424905Y12917611D01*
X7483256Y13122690D01*
X7502929Y13335000D01*
X7483256Y13547310D01*
X7424905Y13752389D01*
X7329866Y13943255D01*
X7304383Y13976999D01*
X7289658Y13996499D01*
X7201372Y14113407D01*
X7043802Y14257052D01*
X7043801Y14257053D01*
X6862521Y14369298D01*
X6663698Y14446321D01*
X6477402Y14481146D01*
X6414119Y14513324D01*
X6378277Y14574609D01*
X6381258Y14645543D01*
X6422116Y14703605D01*
X6477401Y14728855D01*
X6663698Y14763679D01*
X6862519Y14840702D01*
X6870595Y14845702D01*
X6916205Y14873943D01*
X7043802Y14952948D01*
X7201372Y15096593D01*
X7329866Y15266745D01*
X7424905Y15457611D01*
X7483256Y15662690D01*
X7502929Y15875000D01*
X7483256Y16087310D01*
X7424905Y16292389D01*
X7366770Y16409141D01*
X7354313Y16479032D01*
X7381619Y16544567D01*
X7440022Y16584935D01*
X7479562Y16591300D01*
X17505962Y16591300D01*
X17574083Y16571298D01*
G37*
G04 #@! TD.AperFunction*
G04 #@! TA.AperFunction,Conductor*
G36*
X7696046Y36207427D02*
G01*
X7710464Y36196786D01*
X7710466Y36196786D01*
X7715766Y36192874D01*
X7718571Y36191457D01*
X7724869Y36189515D01*
X7724870Y36189514D01*
X7776479Y36173595D01*
X7780844Y36172159D01*
X7831875Y36154302D01*
X7831876Y36154302D01*
X7838098Y36152125D01*
X7841188Y36151600D01*
X7847785Y36151600D01*
X7901738Y36151600D01*
X7906449Y36151512D01*
X7960415Y36149493D01*
X7960415Y36149494D01*
X7966994Y36149247D01*
X7984867Y36151600D01*
X19530713Y36151600D01*
X19598834Y36131598D01*
X19619808Y36114695D01*
X20095294Y35639209D01*
X20129320Y35576897D01*
X20132199Y35550114D01*
X20132200Y33259981D01*
X20131408Y33245874D01*
X20127682Y33212804D01*
X20137715Y33159771D01*
X20138503Y33155130D01*
X20147528Y33095258D01*
X20148527Y33092221D01*
X20176817Y33038692D01*
X20178938Y33034490D01*
X20205215Y32979925D01*
X20207040Y32977354D01*
X20211699Y32972695D01*
X20211700Y32972694D01*
X20249880Y32934514D01*
X20253123Y32931147D01*
X20294331Y32886736D01*
X20308631Y32875763D01*
X20837760Y32346634D01*
X20847176Y32336099D01*
X20854879Y32326440D01*
X20867931Y32310073D01*
X20912544Y32279656D01*
X20916361Y32276948D01*
X20931881Y32265494D01*
X20974814Y32208950D01*
X20980361Y32138170D01*
X20946761Y32075628D01*
X20923393Y32056988D01*
X20891200Y32037055D01*
X20733627Y31893406D01*
X20605135Y31723258D01*
X20510094Y31532388D01*
X20451744Y31327313D01*
X20432071Y31115001D01*
X20451744Y30902688D01*
X20510095Y30697610D01*
X20511264Y30695262D01*
X20512103Y30690550D01*
X20513290Y30686381D01*
X20512868Y30686262D01*
X20523722Y30625367D01*
X20496415Y30559832D01*
X20438012Y30519464D01*
X20398473Y30513100D01*
X9358639Y30513100D01*
X9290518Y30533102D01*
X9269544Y30550005D01*
X8449305Y31370244D01*
X8415279Y31432556D01*
X8412400Y31459339D01*
X8412400Y33871465D01*
X8413192Y33885572D01*
X8413438Y33887757D01*
X8416919Y33918648D01*
X8406875Y33971727D01*
X8406092Y33976337D01*
X8398049Y34029706D01*
X8398047Y34029709D01*
X8397065Y34036230D01*
X8396089Y34039198D01*
X8393005Y34045034D01*
X8367767Y34092787D01*
X8365688Y34096905D01*
X8342239Y34145597D01*
X8342237Y34145600D01*
X8339379Y34151534D01*
X8337562Y34154096D01*
X8294744Y34196914D01*
X8291475Y34200307D01*
X8277408Y34215467D01*
X8254748Y34239889D01*
X8250272Y34244713D01*
X8235969Y34255689D01*
X7224557Y35267101D01*
X7190531Y35329413D01*
X7195596Y35400228D01*
X7213099Y35432123D01*
X7329866Y35586745D01*
X7424905Y35777611D01*
X7483256Y35982690D01*
X7495763Y36117676D01*
X7521965Y36183657D01*
X7579682Y36225001D01*
X7650588Y36228578D01*
X7696046Y36207427D01*
G37*
G04 #@! TD.AperFunction*
G04 #@! TA.AperFunction,Conductor*
G36*
X40958886Y34242198D02*
G01*
X40979860Y34225295D01*
X41824921Y33380234D01*
X41834337Y33369699D01*
X41855092Y33343673D01*
X41899705Y33313256D01*
X41903509Y33310558D01*
X41946964Y33278486D01*
X41946966Y33278486D01*
X41952266Y33274574D01*
X41955070Y33273158D01*
X41961367Y33271216D01*
X41961370Y33271214D01*
X42012990Y33255292D01*
X42017376Y33253849D01*
X42062428Y33238084D01*
X42120119Y33196704D01*
X42133601Y33175318D01*
X42195132Y33051747D01*
X42244892Y32985855D01*
X42323628Y32881593D01*
X42481197Y32737949D01*
X42481198Y32737948D01*
X42662478Y32625703D01*
X42698369Y32611799D01*
X42861302Y32548679D01*
X43047597Y32513855D01*
X43110880Y32481677D01*
X43146722Y32420392D01*
X43143741Y32349458D01*
X43102884Y32291396D01*
X43047595Y32266147D01*
X42861306Y32231323D01*
X42662478Y32154298D01*
X42481198Y32042053D01*
X42323627Y31898406D01*
X42195135Y31728258D01*
X42100094Y31537388D01*
X42041744Y31332313D01*
X42022071Y31120000D01*
X42041744Y30907688D01*
X42100094Y30702613D01*
X42195135Y30511743D01*
X42257529Y30429122D01*
X42323628Y30341593D01*
X42472473Y30205902D01*
X42481198Y30197948D01*
X42662480Y30085702D01*
X42706802Y30068532D01*
X42770411Y30043890D01*
X42826706Y30000632D01*
X42850677Y29933805D01*
X42834714Y29864626D01*
X42826276Y29851580D01*
X42792084Y29805251D01*
X42790651Y29802411D01*
X42772800Y29744545D01*
X42771329Y29740076D01*
X42756689Y29698234D01*
X42715312Y29640541D01*
X42683277Y29622355D01*
X42662480Y29614299D01*
X42481198Y29502053D01*
X42323627Y29358406D01*
X42195135Y29188258D01*
X42100094Y28997388D01*
X42041744Y28792313D01*
X42022071Y28580001D01*
X42041744Y28367688D01*
X42100094Y28162613D01*
X42195135Y27971743D01*
X42204991Y27958692D01*
X42323628Y27801593D01*
X42481198Y27657948D01*
X42662481Y27545702D01*
X42744603Y27513888D01*
X42800898Y27470630D01*
X42824869Y27403803D01*
X42808906Y27334624D01*
X42758076Y27285058D01*
X42731706Y27274692D01*
X42728432Y27273815D01*
X42521001Y27177088D01*
X42333518Y27045811D01*
X42171689Y26883982D01*
X42040412Y26696499D01*
X41943686Y26489071D01*
X41891417Y26294000D01*
X42865814Y26294000D01*
X42849859Y26278045D01*
X42792335Y26165148D01*
X42772514Y26040000D01*
X42792335Y25914852D01*
X42849859Y25801955D01*
X42865814Y25786000D01*
X41891418Y25786000D01*
X41943686Y25590930D01*
X42040412Y25383502D01*
X42171689Y25196019D01*
X42333518Y25034190D01*
X42396556Y24990050D01*
X42440884Y24934593D01*
X42448193Y24863973D01*
X42428285Y24824595D01*
X42431951Y24822478D01*
X42426677Y24813347D01*
X42406664Y24787272D01*
X41869131Y24249739D01*
X41858598Y24240325D01*
X41832572Y24219570D01*
X41802160Y24174964D01*
X41799436Y24171125D01*
X41763484Y24122411D01*
X41762051Y24119572D01*
X41744200Y24061706D01*
X41742730Y24057238D01*
X41722733Y24000087D01*
X41722200Y23996944D01*
X41722200Y23936414D01*
X41722112Y23931703D01*
X41719846Y23871165D01*
X41722200Y23853295D01*
X41722200Y21168837D01*
X41702198Y21100716D01*
X41685296Y21079742D01*
X41368660Y20763105D01*
X41306347Y20729080D01*
X41279564Y20726200D01*
X34962445Y20726200D01*
X34948338Y20726992D01*
X34927848Y20729301D01*
X34915261Y20730719D01*
X34915260Y20730719D01*
X34862186Y20720678D01*
X34857568Y20719894D01*
X34828348Y20715489D01*
X34797705Y20710870D01*
X34794675Y20709873D01*
X34741148Y20681583D01*
X34736945Y20679461D01*
X34682387Y20653187D01*
X34679804Y20651354D01*
X34636980Y20608531D01*
X34633590Y20605265D01*
X34589196Y20564072D01*
X34578221Y20549772D01*
X33019631Y18991182D01*
X33009098Y18981768D01*
X32983072Y18961013D01*
X32952660Y18916407D01*
X32949936Y18912568D01*
X32913984Y18863854D01*
X32912551Y18861015D01*
X32894700Y18803149D01*
X32893230Y18798681D01*
X32873233Y18741530D01*
X32872699Y18738387D01*
X32872700Y18677857D01*
X32872612Y18673146D01*
X32870346Y18612608D01*
X32872700Y18594738D01*
X32872700Y13081336D01*
X32852698Y13013215D01*
X32835795Y12992241D01*
X32372158Y12528604D01*
X32309848Y12494580D01*
X32283065Y12491700D01*
X29182331Y12491700D01*
X29114210Y12511702D01*
X29067717Y12565358D01*
X29057613Y12635632D01*
X29072185Y12672459D01*
X29069929Y12673511D01*
X29171313Y12890930D01*
X29223582Y13086000D01*
X28249186Y13086000D01*
X28265141Y13101955D01*
X28322665Y13214852D01*
X28342486Y13340000D01*
X28322665Y13465148D01*
X28265141Y13578045D01*
X28249186Y13594000D01*
X29223582Y13594000D01*
X29171313Y13789071D01*
X29074587Y13996499D01*
X28943310Y14183982D01*
X28781481Y14345811D01*
X28593998Y14477088D01*
X28386566Y14573816D01*
X28383295Y14574692D01*
X28378767Y14577453D01*
X28376580Y14578472D01*
X28376693Y14578717D01*
X28322674Y14611646D01*
X28291656Y14675508D01*
X28300087Y14746002D01*
X28345293Y14800747D01*
X28370389Y14813886D01*
X28452519Y14845702D01*
X28633802Y14957948D01*
X28791372Y15101593D01*
X28919866Y15271745D01*
X29014905Y15462611D01*
X29073256Y15667690D01*
X29092929Y15880000D01*
X29073256Y16092310D01*
X29014905Y16297389D01*
X28919866Y16488255D01*
X28791372Y16658407D01*
X28633802Y16802052D01*
X28633801Y16802053D01*
X28452521Y16914298D01*
X28253698Y16991321D01*
X28253697Y16991321D01*
X28067402Y17026146D01*
X28004119Y17058324D01*
X27968277Y17119609D01*
X27971258Y17190543D01*
X28012116Y17248605D01*
X28067401Y17273855D01*
X28253698Y17308679D01*
X28452519Y17385702D01*
X28633802Y17497948D01*
X28791372Y17641593D01*
X28919866Y17811745D01*
X29014905Y18002611D01*
X29073256Y18207690D01*
X29092929Y18420000D01*
X29073256Y18632310D01*
X29014905Y18837389D01*
X28919866Y19028255D01*
X28905867Y19046792D01*
X28868046Y19096875D01*
X28791372Y19198407D01*
X28633802Y19342052D01*
X28633801Y19342053D01*
X28452517Y19454300D01*
X28431156Y19462575D01*
X28374861Y19505835D01*
X28352080Y19561290D01*
X28348868Y19582601D01*
X28347880Y19585604D01*
X28319582Y19639146D01*
X28317473Y19643321D01*
X28294039Y19691984D01*
X28294038Y19691985D01*
X28285797Y19709099D01*
X28288805Y19710548D01*
X28271051Y19746167D01*
X28278760Y19816744D01*
X28323401Y19871949D01*
X28349568Y19885820D01*
X28452519Y19925702D01*
X28633802Y20037948D01*
X28791372Y20181593D01*
X28919866Y20351745D01*
X29014905Y20542611D01*
X29073256Y20747690D01*
X29092929Y20960000D01*
X29073256Y21172310D01*
X29014905Y21377389D01*
X28919866Y21568255D01*
X28791372Y21738407D01*
X28633802Y21882052D01*
X28626851Y21888389D01*
X28589985Y21949064D01*
X28591774Y22020038D01*
X28622640Y22070597D01*
X29261977Y22709934D01*
X29272492Y22719332D01*
X29298527Y22740092D01*
X29328971Y22784748D01*
X29331617Y22788477D01*
X29363714Y22831964D01*
X29363715Y22831967D01*
X29367635Y22837278D01*
X29369040Y22840062D01*
X29371547Y22848190D01*
X29386900Y22897967D01*
X29388340Y22902345D01*
X29406198Y22953375D01*
X29406198Y22953381D01*
X29408375Y22959601D01*
X29408900Y22962686D01*
X29408900Y23023239D01*
X29408988Y23027950D01*
X29411253Y23088492D01*
X29408900Y23106366D01*
X29408900Y23428111D01*
X29408900Y23879370D01*
X29409689Y23893440D01*
X29413419Y23926535D01*
X29403375Y23979614D01*
X29402592Y23984224D01*
X29394549Y24037593D01*
X29394547Y24037596D01*
X29393565Y24044117D01*
X29392589Y24047085D01*
X29387223Y24057238D01*
X29364267Y24100674D01*
X29362188Y24104792D01*
X29338739Y24153484D01*
X29338737Y24153487D01*
X29335879Y24159421D01*
X29334062Y24161983D01*
X29291244Y24204801D01*
X29287975Y24208194D01*
X29277420Y24219569D01*
X29251248Y24247776D01*
X29246772Y24252600D01*
X29232469Y24263576D01*
X28588360Y24907685D01*
X28554334Y24969997D01*
X28559399Y25040812D01*
X28601946Y25097648D01*
X28611119Y25103904D01*
X28633802Y25117948D01*
X28791372Y25261593D01*
X28919866Y25431745D01*
X29014905Y25622611D01*
X29073256Y25827690D01*
X29092929Y26040000D01*
X29073256Y26252310D01*
X29014905Y26457389D01*
X28919866Y26648255D01*
X28791372Y26818407D01*
X28633802Y26962052D01*
X28633801Y26962053D01*
X28452521Y27074298D01*
X28253698Y27151321D01*
X28233284Y27155137D01*
X28067402Y27186146D01*
X28004119Y27218324D01*
X27968277Y27279609D01*
X27971258Y27350543D01*
X28012116Y27408605D01*
X28067401Y27433855D01*
X28253698Y27468679D01*
X28452519Y27545702D01*
X28633802Y27657948D01*
X28791372Y27801593D01*
X28919866Y27971745D01*
X29014905Y28162611D01*
X29073256Y28367690D01*
X29092929Y28580000D01*
X29073256Y28792310D01*
X29014905Y28997389D01*
X28919866Y29188255D01*
X28910299Y29200923D01*
X28869952Y29254351D01*
X28791372Y29358407D01*
X28633802Y29502052D01*
X28633801Y29502053D01*
X28452521Y29614298D01*
X28253693Y29691323D01*
X28067404Y29726147D01*
X28004118Y29758326D01*
X27968277Y29819611D01*
X27971258Y29890545D01*
X28012116Y29948606D01*
X28067399Y29973854D01*
X28253698Y30008679D01*
X28452519Y30085702D01*
X28633802Y30197948D01*
X28791372Y30341593D01*
X28919866Y30511745D01*
X29000552Y30673787D01*
X29048820Y30725849D01*
X29117574Y30743552D01*
X29184985Y30721273D01*
X29202437Y30706718D01*
X29762394Y30146761D01*
X29796420Y30084449D01*
X29799299Y30057666D01*
X29799300Y23957094D01*
X29798508Y23942987D01*
X29794782Y23909917D01*
X29804815Y23856884D01*
X29805603Y23852243D01*
X29814628Y23792371D01*
X29815627Y23789334D01*
X29843917Y23735805D01*
X29846038Y23731603D01*
X29872315Y23677038D01*
X29874140Y23674467D01*
X29878799Y23669808D01*
X29878800Y23669807D01*
X29916980Y23631627D01*
X29920223Y23628260D01*
X29961431Y23583849D01*
X29975731Y23572876D01*
X30778395Y22770212D01*
X30812421Y22707900D01*
X30815300Y22681117D01*
X30815300Y14856384D01*
X30795298Y14788263D01*
X30772855Y14762073D01*
X30749635Y14741502D01*
X30659549Y14610992D01*
X30603317Y14462720D01*
X30584203Y14305300D01*
X30603317Y14147881D01*
X30659549Y13999609D01*
X30694008Y13949687D01*
X30749633Y13869101D01*
X30868329Y13763945D01*
X31008742Y13690250D01*
X31162711Y13652300D01*
X31162713Y13652300D01*
X31321287Y13652300D01*
X31321289Y13652300D01*
X31475258Y13690250D01*
X31615671Y13763945D01*
X31734367Y13869101D01*
X31824449Y13999607D01*
X31880682Y14147879D01*
X31899796Y14305300D01*
X31880682Y14462721D01*
X31851281Y14540245D01*
X31824450Y14610992D01*
X31790370Y14660365D01*
X31734367Y14741499D01*
X31711144Y14762073D01*
X31673420Y14822217D01*
X31668699Y14856377D01*
X31668700Y22879013D01*
X31669492Y22893119D01*
X31670537Y22902396D01*
X31673218Y22926187D01*
X31663179Y22979244D01*
X31662395Y22983858D01*
X31658748Y23008054D01*
X31654349Y23037245D01*
X31654348Y23037246D01*
X31653368Y23043752D01*
X31652379Y23046758D01*
X31624082Y23100298D01*
X31621973Y23104473D01*
X31598539Y23153136D01*
X31598538Y23153137D01*
X31595680Y23159073D01*
X31593862Y23161635D01*
X31551044Y23204453D01*
X31547775Y23207846D01*
X31506572Y23252252D01*
X31492269Y23263228D01*
X30689605Y24065892D01*
X30655579Y24128204D01*
X30652700Y24154987D01*
X30652700Y30255560D01*
X30653492Y30269667D01*
X30653546Y30270150D01*
X30657218Y30302736D01*
X30647182Y30355780D01*
X30646393Y30360424D01*
X30637368Y30420302D01*
X30636380Y30423304D01*
X30608082Y30476846D01*
X30605973Y30481021D01*
X30582539Y30529684D01*
X30582538Y30529685D01*
X30579680Y30535621D01*
X30577862Y30538183D01*
X30535044Y30581001D01*
X30531775Y30584394D01*
X30490572Y30628800D01*
X30476269Y30639776D01*
X28588360Y32527685D01*
X28554334Y32589997D01*
X28559399Y32660812D01*
X28601946Y32717648D01*
X28611119Y32723904D01*
X28633802Y32737948D01*
X28791372Y32881593D01*
X28919866Y33051745D01*
X29014905Y33242611D01*
X29073256Y33447690D01*
X29092929Y33660000D01*
X29073256Y33872310D01*
X29014905Y34077389D01*
X29013585Y34080039D01*
X29012637Y34085358D01*
X29011710Y34088618D01*
X29012039Y34088712D01*
X29001128Y34149932D01*
X29028435Y34215467D01*
X29086838Y34255835D01*
X29126377Y34262200D01*
X40890765Y34262200D01*
X40958886Y34242198D01*
G37*
G04 #@! TD.AperFunction*
G04 #@! TA.AperFunction,Conductor*
G36*
X42187635Y19243198D02*
G01*
X42234128Y19189542D01*
X42244232Y19119268D01*
X42220064Y19061268D01*
X42195135Y19028258D01*
X42100094Y18837388D01*
X42041744Y18632313D01*
X42022071Y18420001D01*
X42041744Y18207688D01*
X42100094Y18002613D01*
X42195135Y17811743D01*
X42237334Y17755864D01*
X42323628Y17641593D01*
X42425636Y17548600D01*
X42481198Y17497948D01*
X42662478Y17385703D01*
X42704099Y17369579D01*
X42861302Y17308679D01*
X43047596Y17273855D01*
X43110880Y17241676D01*
X43146722Y17180391D01*
X43143741Y17109457D01*
X43102883Y17051395D01*
X43047596Y17026146D01*
X42949462Y17007801D01*
X42861301Y16991321D01*
X42662478Y16914298D01*
X42481198Y16802053D01*
X42323627Y16658406D01*
X42195135Y16488258D01*
X42100094Y16297388D01*
X42041744Y16092313D01*
X42022071Y15880000D01*
X42041744Y15667688D01*
X42100094Y15462613D01*
X42195135Y15271743D01*
X42198911Y15266743D01*
X42323628Y15101593D01*
X42394812Y15036700D01*
X42481198Y14957948D01*
X42662478Y14845703D01*
X42704099Y14829580D01*
X42861302Y14768679D01*
X43047596Y14733855D01*
X43110880Y14701676D01*
X43146722Y14640391D01*
X43143741Y14569457D01*
X43102883Y14511395D01*
X43047596Y14486146D01*
X42949462Y14467801D01*
X42861301Y14451321D01*
X42662478Y14374298D01*
X42481198Y14262053D01*
X42323627Y14118406D01*
X42195135Y13948258D01*
X42100094Y13757388D01*
X42041744Y13552313D01*
X42022071Y13340000D01*
X42041744Y13127688D01*
X42100094Y12922613D01*
X42195135Y12731743D01*
X42215186Y12705192D01*
X42323628Y12561593D01*
X42434973Y12460088D01*
X42481198Y12417948D01*
X42662478Y12305703D01*
X42678893Y12299344D01*
X42861302Y12228679D01*
X43070890Y12189500D01*
X43070892Y12189500D01*
X43284108Y12189500D01*
X43284110Y12189500D01*
X43493698Y12228679D01*
X43692519Y12305702D01*
X43698657Y12309502D01*
X43809080Y12377874D01*
X43873802Y12417948D01*
X44031372Y12561593D01*
X44159866Y12731745D01*
X44174609Y12761355D01*
X44222877Y12813418D01*
X44291632Y12831121D01*
X44359042Y12808842D01*
X44403707Y12753656D01*
X44413400Y12705192D01*
X44413400Y10194087D01*
X44393398Y10125966D01*
X44376495Y10104992D01*
X43040908Y8769405D01*
X42978596Y8735379D01*
X42951813Y8732500D01*
X35675136Y8732500D01*
X35607015Y8752502D01*
X35560522Y8806158D01*
X35550418Y8876432D01*
X35579912Y8941012D01*
X35586040Y8947595D01*
X35763821Y9125377D01*
X35839781Y9201338D01*
X35850297Y9210736D01*
X35876327Y9231492D01*
X35906771Y9276148D01*
X35909417Y9279877D01*
X35941514Y9323364D01*
X35941515Y9323367D01*
X35945435Y9328678D01*
X35946840Y9331462D01*
X35948874Y9338055D01*
X35964700Y9389367D01*
X35966140Y9393745D01*
X35983998Y9444775D01*
X35983998Y9444781D01*
X35986175Y9451001D01*
X35986700Y9454086D01*
X35986700Y9514639D01*
X35986788Y9519350D01*
X35986986Y9524644D01*
X35988807Y9573315D01*
X35988806Y9573316D01*
X35989053Y9579892D01*
X35986700Y9597766D01*
X35986700Y17228918D01*
X36006702Y17297039D01*
X36029148Y17323231D01*
X36052367Y17343801D01*
X36142449Y17474307D01*
X36198682Y17622579D01*
X36217796Y17780000D01*
X36198682Y17937421D01*
X36160744Y18037455D01*
X36142450Y18085692D01*
X36125220Y18110654D01*
X36052367Y18216199D01*
X35933671Y18321355D01*
X35863464Y18358203D01*
X35793259Y18395050D01*
X35741935Y18407700D01*
X35639289Y18433000D01*
X35480711Y18433000D01*
X35407686Y18415001D01*
X35326740Y18395050D01*
X35186329Y18321355D01*
X35081577Y18228552D01*
X35067633Y18216199D01*
X35058307Y18202688D01*
X34977549Y18085692D01*
X34921317Y17937420D01*
X34902203Y17780001D01*
X34921317Y17622581D01*
X34977549Y17474309D01*
X34997987Y17444700D01*
X35067633Y17343801D01*
X35090488Y17323553D01*
X35090852Y17323231D01*
X35128578Y17263088D01*
X35133300Y17228918D01*
X35133300Y9753937D01*
X35113298Y9685816D01*
X35096396Y9664842D01*
X34505760Y9074205D01*
X34443447Y9040180D01*
X34416664Y9037300D01*
X27564641Y9037300D01*
X27550534Y9038092D01*
X27517461Y9041819D01*
X27464408Y9031782D01*
X27459771Y9030994D01*
X27399917Y9021971D01*
X27396880Y9020972D01*
X27343352Y8992682D01*
X27339149Y8990561D01*
X27284591Y8964287D01*
X27282008Y8962454D01*
X27239184Y8919631D01*
X27235794Y8916365D01*
X27191402Y8875174D01*
X27180425Y8860872D01*
X25945958Y7626404D01*
X25883648Y7592380D01*
X25856865Y7589500D01*
X25343224Y7589500D01*
X25275103Y7609502D01*
X25228610Y7663158D01*
X25218506Y7733432D01*
X25230434Y7771663D01*
X25256728Y7824470D01*
X25260468Y7837614D01*
X25317615Y8038464D01*
X25338143Y8260000D01*
X25317615Y8481536D01*
X25256729Y8695528D01*
X25157558Y8894689D01*
X25023481Y9072236D01*
X24859062Y9222124D01*
X24859059Y9222126D01*
X24859058Y9222127D01*
X24669905Y9339246D01*
X24564726Y9379992D01*
X24480788Y9412510D01*
X24424496Y9455768D01*
X24400525Y9522595D01*
X24416489Y9591774D01*
X24467319Y9641339D01*
X24480779Y9647487D01*
X24669901Y9720753D01*
X24669902Y9720755D01*
X24669905Y9720755D01*
X24769684Y9782536D01*
X24859062Y9837876D01*
X25023481Y9987764D01*
X25157558Y10165311D01*
X25256729Y10364472D01*
X25317615Y10578464D01*
X25338143Y10800000D01*
X25338142Y10800004D01*
X25338143Y10800006D01*
X25329704Y10891074D01*
X25343335Y10960749D01*
X25392471Y11011995D01*
X25455166Y11028700D01*
X25464181Y11028700D01*
X25518161Y11028700D01*
X25522872Y11028612D01*
X25576811Y11026594D01*
X25576811Y11026595D01*
X25583391Y11026348D01*
X25601259Y11028700D01*
X32733463Y11028700D01*
X32747570Y11027908D01*
X32780639Y11024182D01*
X32833704Y11034223D01*
X32838282Y11035001D01*
X32891697Y11043051D01*
X32891700Y11043053D01*
X32898211Y11044034D01*
X32901202Y11045018D01*
X32907022Y11048095D01*
X32907026Y11048095D01*
X32954783Y11073337D01*
X32958920Y11075425D01*
X33007588Y11098861D01*
X33007589Y11098863D01*
X33013540Y11101728D01*
X33016075Y11103527D01*
X33020746Y11108199D01*
X33020749Y11108200D01*
X33058941Y11146394D01*
X33062279Y11149609D01*
X33101880Y11186352D01*
X33101881Y11186355D01*
X33106708Y11190833D01*
X33117679Y11205132D01*
X34188777Y12276230D01*
X34199292Y12285628D01*
X34225327Y12306388D01*
X34255771Y12351044D01*
X34258417Y12354773D01*
X34290514Y12398260D01*
X34290515Y12398263D01*
X34294435Y12403574D01*
X34295840Y12406358D01*
X34299415Y12417948D01*
X34313700Y12464263D01*
X34315140Y12468641D01*
X34332998Y12519671D01*
X34332998Y12519677D01*
X34335175Y12525897D01*
X34335700Y12528982D01*
X34335700Y12589535D01*
X34335788Y12594246D01*
X34338053Y12654788D01*
X34335700Y12672662D01*
X34335700Y18186065D01*
X34355702Y18254186D01*
X34372605Y18275160D01*
X35323740Y19226295D01*
X35386052Y19260321D01*
X35412835Y19263200D01*
X42119514Y19263200D01*
X42187635Y19243198D01*
G37*
G04 #@! TD.AperFunction*
G04 #@! TA.AperFunction,Conductor*
G36*
X19892386Y29030098D02*
G01*
X19913360Y29013195D01*
X20095295Y28831260D01*
X20129321Y28768948D01*
X20132200Y28742165D01*
X20132200Y28179981D01*
X20131408Y28165874D01*
X20127682Y28132804D01*
X20137715Y28079771D01*
X20138503Y28075130D01*
X20147528Y28015258D01*
X20148527Y28012221D01*
X20176817Y27958692D01*
X20178938Y27954490D01*
X20205215Y27899925D01*
X20207040Y27897354D01*
X20211699Y27892695D01*
X20211700Y27892694D01*
X20249880Y27854514D01*
X20253123Y27851147D01*
X20287864Y27813705D01*
X20294331Y27806736D01*
X20308631Y27795763D01*
X20837760Y27266634D01*
X20847176Y27256099D01*
X20867931Y27230073D01*
X20912544Y27199656D01*
X20916361Y27196948D01*
X20931881Y27185494D01*
X20974814Y27128950D01*
X20980361Y27058170D01*
X20946761Y26995628D01*
X20923393Y26976988D01*
X20891200Y26957055D01*
X20733627Y26813406D01*
X20605135Y26643258D01*
X20510094Y26452388D01*
X20451744Y26247313D01*
X20432071Y26035000D01*
X20451744Y25822688D01*
X20510094Y25617613D01*
X20605135Y25426743D01*
X20633171Y25389618D01*
X20733628Y25256593D01*
X20844324Y25155680D01*
X20891198Y25112948D01*
X21072478Y25000703D01*
X21072481Y25000702D01*
X21271302Y24923679D01*
X21457596Y24888855D01*
X21520880Y24856676D01*
X21556722Y24795391D01*
X21553741Y24724457D01*
X21512883Y24666395D01*
X21457596Y24641146D01*
X21376543Y24625994D01*
X21271301Y24606321D01*
X21072478Y24529298D01*
X20891198Y24417053D01*
X20733627Y24273406D01*
X20605135Y24103258D01*
X20510094Y23912388D01*
X20451744Y23707313D01*
X20432071Y23495001D01*
X20451744Y23282688D01*
X20510094Y23077613D01*
X20605135Y22886743D01*
X20654029Y22821998D01*
X20733628Y22716593D01*
X20792375Y22663038D01*
X20891198Y22572948D01*
X21072478Y22460703D01*
X21072481Y22460702D01*
X21271302Y22383679D01*
X21457596Y22348855D01*
X21520880Y22316676D01*
X21556722Y22255391D01*
X21553741Y22184457D01*
X21512883Y22126395D01*
X21457596Y22101146D01*
X21345393Y22080171D01*
X21271301Y22066321D01*
X21072478Y21989298D01*
X20891198Y21877053D01*
X20733627Y21733406D01*
X20605135Y21563258D01*
X20605134Y21563255D01*
X20549504Y21451536D01*
X20501237Y21399474D01*
X20436715Y21381700D01*
X10515935Y21381700D01*
X10447814Y21401702D01*
X10426840Y21418605D01*
X10425404Y21420041D01*
X10391378Y21482353D01*
X10388499Y21509127D01*
X10388499Y24297165D01*
X10389292Y24311275D01*
X10389400Y24312236D01*
X10393018Y24344335D01*
X10382979Y24397392D01*
X10382195Y24402006D01*
X10381499Y24406622D01*
X10374149Y24455393D01*
X10374148Y24455394D01*
X10373168Y24461900D01*
X10372179Y24464904D01*
X10369105Y24470720D01*
X10369105Y24470722D01*
X10343869Y24518471D01*
X10341765Y24522637D01*
X10318339Y24571284D01*
X10318336Y24571287D01*
X10315478Y24577223D01*
X10313661Y24579784D01*
X10270844Y24622601D01*
X10267575Y24625994D01*
X10226372Y24670400D01*
X10212069Y24681376D01*
X9480605Y25412840D01*
X9446579Y25475152D01*
X9443700Y25501935D01*
X9443700Y28846549D01*
X9444492Y28860656D01*
X9448218Y28893724D01*
X9446902Y28900675D01*
X9453892Y28971327D01*
X9497968Y29026985D01*
X9565139Y29049977D01*
X9570706Y29050100D01*
X19824265Y29050100D01*
X19892386Y29030098D01*
G37*
G04 #@! TD.AperFunction*
G04 #@! TA.AperFunction,Conductor*
G36*
X22646584Y25290371D02*
G01*
X23235130Y24701825D01*
X23269156Y24639513D01*
X23264091Y24568698D01*
X23223426Y24513299D01*
X23209599Y24502538D01*
X23057178Y24336963D01*
X22934080Y24148549D01*
X22861099Y23982170D01*
X22815418Y23927822D01*
X22747605Y23906798D01*
X22679192Y23925775D01*
X22632922Y23976620D01*
X22569866Y24103255D01*
X22568671Y24104837D01*
X22521996Y24166645D01*
X22441372Y24273407D01*
X22283802Y24417052D01*
X22283801Y24417053D01*
X22102521Y24529298D01*
X21903698Y24606321D01*
X21898867Y24607224D01*
X21717402Y24641146D01*
X21654119Y24673324D01*
X21618277Y24734609D01*
X21621258Y24805543D01*
X21662116Y24863605D01*
X21717401Y24888855D01*
X21903698Y24923679D01*
X22102519Y25000702D01*
X22283802Y25112948D01*
X22441372Y25256593D01*
X22456940Y25277209D01*
X22513951Y25319515D01*
X22584788Y25324283D01*
X22646584Y25290371D01*
G37*
G04 #@! TD.AperFunction*
G04 #@! TA.AperFunction,Conductor*
G36*
X25862680Y24445298D02*
G01*
X25883654Y24428395D01*
X26444994Y23867055D01*
X26479020Y23804743D01*
X26481899Y23777960D01*
X26481899Y20508842D01*
X26481107Y20494738D01*
X26477381Y20461667D01*
X26487415Y20408632D01*
X26488203Y20403991D01*
X26497228Y20344119D01*
X26498227Y20341082D01*
X26526517Y20287553D01*
X26528638Y20283351D01*
X26554915Y20228786D01*
X26556740Y20226215D01*
X26561399Y20221556D01*
X26561400Y20221555D01*
X26599580Y20183375D01*
X26602823Y20180008D01*
X26632741Y20147764D01*
X26644031Y20135597D01*
X26658331Y20124624D01*
X27252356Y19530599D01*
X27286382Y19468287D01*
X27281317Y19397472D01*
X27248148Y19348390D01*
X27083627Y19198407D01*
X26955135Y19028258D01*
X26860094Y18837388D01*
X26801744Y18632313D01*
X26782071Y18420001D01*
X26801744Y18207688D01*
X26860094Y18002613D01*
X26955135Y17811743D01*
X26997334Y17755864D01*
X27083628Y17641593D01*
X27185636Y17548600D01*
X27241198Y17497948D01*
X27422478Y17385703D01*
X27464099Y17369579D01*
X27621302Y17308679D01*
X27807596Y17273855D01*
X27870880Y17241676D01*
X27906722Y17180391D01*
X27903741Y17109457D01*
X27862883Y17051395D01*
X27807596Y17026146D01*
X27709462Y17007801D01*
X27621301Y16991321D01*
X27422478Y16914298D01*
X27241198Y16802053D01*
X27083627Y16658406D01*
X26955135Y16488258D01*
X26860094Y16297388D01*
X26801744Y16092313D01*
X26782071Y15880000D01*
X26801744Y15667688D01*
X26860094Y15462613D01*
X26955135Y15271743D01*
X26958911Y15266743D01*
X27083628Y15101593D01*
X27241198Y14957948D01*
X27422481Y14845702D01*
X27504603Y14813888D01*
X27560898Y14770630D01*
X27584869Y14703803D01*
X27568906Y14634624D01*
X27518076Y14585058D01*
X27491706Y14574692D01*
X27488432Y14573815D01*
X27281001Y14477088D01*
X27093518Y14345811D01*
X26931689Y14183982D01*
X26800412Y13996499D01*
X26703686Y13789071D01*
X26651417Y13594000D01*
X27625814Y13594000D01*
X27609859Y13578045D01*
X27552335Y13465148D01*
X27532514Y13340000D01*
X27552335Y13214852D01*
X27609859Y13101955D01*
X27625814Y13086000D01*
X26651418Y13086000D01*
X26703686Y12890930D01*
X26805071Y12673511D01*
X26801928Y12672046D01*
X26818570Y12622689D01*
X26801281Y12553830D01*
X26749508Y12505249D01*
X26692669Y12491700D01*
X26009936Y12491700D01*
X25941815Y12511702D01*
X25920841Y12528605D01*
X25674704Y12774742D01*
X25640678Y12837054D01*
X25637799Y12863837D01*
X25637799Y13214852D01*
X25637799Y13755741D01*
X25638589Y13769811D01*
X25642319Y13802906D01*
X25632275Y13855985D01*
X25631492Y13860595D01*
X25623449Y13913964D01*
X25623447Y13913967D01*
X25622465Y13920488D01*
X25621489Y13923456D01*
X25618405Y13929292D01*
X25593167Y13977045D01*
X25591088Y13981163D01*
X25567639Y14029855D01*
X25567637Y14029858D01*
X25564779Y14035792D01*
X25562962Y14038354D01*
X25520144Y14081172D01*
X25516875Y14084565D01*
X25475672Y14128971D01*
X25461369Y14139947D01*
X24860500Y14740816D01*
X24826474Y14803128D01*
X24831539Y14873943D01*
X24864707Y14923023D01*
X25023481Y15067764D01*
X25157558Y15245311D01*
X25256729Y15444472D01*
X25317615Y15658464D01*
X25338143Y15880000D01*
X25317615Y16101536D01*
X25256729Y16315528D01*
X25157558Y16514689D01*
X25023481Y16692236D01*
X24859062Y16842124D01*
X24859059Y16842126D01*
X24859058Y16842127D01*
X24669905Y16959246D01*
X24564264Y17000171D01*
X24480788Y17032510D01*
X24424496Y17075768D01*
X24400525Y17142595D01*
X24416489Y17211774D01*
X24467319Y17261339D01*
X24480779Y17267487D01*
X24669901Y17340753D01*
X24669902Y17340755D01*
X24669905Y17340755D01*
X24806201Y17425146D01*
X24859062Y17457876D01*
X25023481Y17607764D01*
X25157558Y17785311D01*
X25256729Y17984472D01*
X25317615Y18198464D01*
X25338143Y18420000D01*
X25317615Y18641536D01*
X25256729Y18855528D01*
X25157558Y19054689D01*
X25023481Y19232236D01*
X24859062Y19382124D01*
X24859059Y19382126D01*
X24859058Y19382127D01*
X24669905Y19499246D01*
X24564264Y19540171D01*
X24480788Y19572510D01*
X24424496Y19615768D01*
X24400525Y19682595D01*
X24416489Y19751774D01*
X24467319Y19801339D01*
X24480779Y19807487D01*
X24669901Y19880753D01*
X24669902Y19880755D01*
X24669905Y19880755D01*
X24806201Y19965146D01*
X24859062Y19997876D01*
X25023481Y20147764D01*
X25157558Y20325311D01*
X25256729Y20524472D01*
X25317615Y20738464D01*
X25338143Y20960000D01*
X25317615Y21181536D01*
X25256729Y21395528D01*
X25157558Y21594689D01*
X25023481Y21772236D01*
X24859062Y21922124D01*
X24859059Y21922126D01*
X24859058Y21922127D01*
X24675954Y22035500D01*
X24628566Y22088367D01*
X24617283Y22158461D01*
X24645687Y22223528D01*
X24682315Y22253441D01*
X24877799Y22359232D01*
X25055403Y22497467D01*
X25207821Y22663038D01*
X25330919Y22851452D01*
X25421322Y23057549D01*
X25469044Y23246000D01*
X24563616Y23246000D01*
X24591993Y23290156D01*
X24632500Y23428111D01*
X24632500Y23571889D01*
X24591993Y23709844D01*
X24563616Y23754000D01*
X25469044Y23754000D01*
X25469044Y23754001D01*
X25421322Y23942452D01*
X25330919Y24148549D01*
X25251320Y24270384D01*
X25230807Y24338353D01*
X25250296Y24406622D01*
X25303601Y24453517D01*
X25356803Y24465300D01*
X25794559Y24465300D01*
X25862680Y24445298D01*
G37*
G04 #@! TD.AperFunction*
G04 #@! TA.AperFunction,Conductor*
G36*
X18571686Y18984298D02*
G01*
X18592660Y18967395D01*
X19485695Y18074360D01*
X19519721Y18012048D01*
X19522600Y17985265D01*
X19522600Y17797000D01*
X19502598Y17728879D01*
X19448942Y17682386D01*
X19396600Y17671000D01*
X19339411Y17671000D01*
X19185442Y17633050D01*
X19185438Y17633049D01*
X19090900Y17583431D01*
X19021287Y17569484D01*
X18955184Y17595388D01*
X18913580Y17652917D01*
X18907265Y17679801D01*
X18904082Y17706021D01*
X18865882Y17806745D01*
X18847850Y17854292D01*
X18796935Y17928054D01*
X18757767Y17984799D01*
X18639071Y18089955D01*
X18568864Y18126803D01*
X18498659Y18163650D01*
X18410171Y18185460D01*
X18344689Y18201600D01*
X18186111Y18201600D01*
X18123083Y18186065D01*
X18032140Y18163650D01*
X17891729Y18089955D01*
X17773032Y17984799D01*
X17682950Y17854292D01*
X17674049Y17830821D01*
X17631192Y17774219D01*
X17564536Y17749774D01*
X17556237Y17749500D01*
X7504858Y17749500D01*
X7436737Y17769502D01*
X7390244Y17823158D01*
X7380140Y17893432D01*
X7392067Y17931662D01*
X7400814Y17949230D01*
X7424905Y17997611D01*
X7483256Y18202690D01*
X7502929Y18415000D01*
X7483256Y18627310D01*
X7434496Y18798681D01*
X7421710Y18843619D01*
X7425961Y18844829D01*
X7417557Y18892077D01*
X7444887Y18957603D01*
X7503305Y18997950D01*
X7542801Y19004300D01*
X18503565Y19004300D01*
X18571686Y18984298D01*
G37*
G04 #@! TD.AperFunction*
G04 #@! TA.AperFunction,Conductor*
G36*
X25869186Y30673298D02*
G01*
X25890160Y30656395D01*
X27051068Y29495487D01*
X27085094Y29433175D01*
X27080029Y29362360D01*
X27062523Y29330460D01*
X26955135Y29188258D01*
X26860094Y28997388D01*
X26801744Y28792313D01*
X26782071Y28580001D01*
X26801744Y28367688D01*
X26860094Y28162613D01*
X26955135Y27971743D01*
X26964991Y27958692D01*
X27083628Y27801593D01*
X27241197Y27657948D01*
X27241198Y27657948D01*
X27422478Y27545703D01*
X27422481Y27545702D01*
X27621302Y27468679D01*
X27807596Y27433855D01*
X27870880Y27401676D01*
X27906722Y27340391D01*
X27903741Y27269457D01*
X27862883Y27211395D01*
X27807596Y27186146D01*
X27725746Y27170845D01*
X27621301Y27151321D01*
X27422478Y27074298D01*
X27241198Y26962053D01*
X27083627Y26818406D01*
X26955135Y26648258D01*
X26952644Y26643255D01*
X26899504Y26536536D01*
X26851237Y26484474D01*
X26786715Y26466700D01*
X26397585Y26466700D01*
X26329464Y26486702D01*
X26308490Y26503605D01*
X25109981Y27702114D01*
X25075955Y27764426D01*
X25081020Y27835241D01*
X25098523Y27867138D01*
X25157558Y27945311D01*
X25256729Y28144472D01*
X25317615Y28358464D01*
X25338143Y28580000D01*
X25317615Y28801536D01*
X25256729Y29015528D01*
X25157558Y29214689D01*
X25023481Y29392236D01*
X24859062Y29542124D01*
X24859059Y29542126D01*
X24859058Y29542127D01*
X24669905Y29659246D01*
X24569264Y29698234D01*
X24480788Y29732510D01*
X24424496Y29775768D01*
X24400525Y29842595D01*
X24416489Y29911774D01*
X24467319Y29961339D01*
X24480779Y29967487D01*
X24669901Y30040753D01*
X24669902Y30040755D01*
X24669905Y30040755D01*
X24813493Y30129661D01*
X24859062Y30157876D01*
X25023481Y30307764D01*
X25157558Y30485311D01*
X25226351Y30623466D01*
X25274619Y30675527D01*
X25339140Y30693300D01*
X25801065Y30693300D01*
X25869186Y30673298D01*
G37*
G04 #@! TD.AperFunction*
G04 #@! TA.AperFunction,Conductor*
G36*
X20751393Y42283998D02*
G01*
X20797886Y42230342D01*
X20807990Y42160068D01*
X20778496Y42095488D01*
X20768162Y42084890D01*
X20739113Y42058407D01*
X20733627Y42053406D01*
X20605135Y41883258D01*
X20510094Y41692388D01*
X20451744Y41487313D01*
X20432071Y41275001D01*
X20451744Y41062688D01*
X20510094Y40857613D01*
X20605135Y40666743D01*
X20669380Y40581669D01*
X20733628Y40496593D01*
X20861415Y40380099D01*
X20891198Y40352948D01*
X21072478Y40240703D01*
X21072481Y40240702D01*
X21271302Y40163679D01*
X21457596Y40128855D01*
X21520880Y40096676D01*
X21556722Y40035391D01*
X21553741Y39964457D01*
X21512883Y39906395D01*
X21457596Y39881146D01*
X21363517Y39863559D01*
X21271301Y39846321D01*
X21072478Y39769298D01*
X20891198Y39657053D01*
X20776221Y39552236D01*
X20734539Y39514237D01*
X20733627Y39513406D01*
X20605135Y39343258D01*
X20510094Y39152388D01*
X20451744Y38947313D01*
X20451744Y38947310D01*
X20432071Y38735000D01*
X20451744Y38522690D01*
X20451744Y38522688D01*
X20451745Y38522685D01*
X20452142Y38521290D01*
X20452119Y38518643D01*
X20452822Y38511064D01*
X20452055Y38510993D01*
X20451544Y38450296D01*
X20412658Y38390895D01*
X20347831Y38361948D01*
X20300799Y38364473D01*
X20272289Y38371500D01*
X20113711Y38371500D01*
X20036726Y38352525D01*
X19959740Y38333550D01*
X19819329Y38259855D01*
X19700634Y38154700D01*
X19610549Y38024192D01*
X19554317Y37875921D01*
X19536043Y37725412D01*
X19507976Y37660199D01*
X19449108Y37620513D01*
X19410962Y37614600D01*
X8420087Y37614600D01*
X8351966Y37634602D01*
X8330992Y37651505D01*
X7839705Y38142792D01*
X7805679Y38205104D01*
X7802800Y38231887D01*
X7802800Y39130021D01*
X7803592Y39144128D01*
X7807318Y39177196D01*
X7797279Y39230253D01*
X7796495Y39234867D01*
X7787468Y39294761D01*
X7786479Y39297767D01*
X7758182Y39351307D01*
X7756073Y39355482D01*
X7732639Y39404145D01*
X7732638Y39404146D01*
X7729780Y39410082D01*
X7727962Y39412644D01*
X7685144Y39455462D01*
X7681875Y39458855D01*
X7640672Y39503261D01*
X7626369Y39514237D01*
X6998089Y40142517D01*
X6964063Y40204829D01*
X6969128Y40275644D01*
X7011675Y40332480D01*
X7020844Y40338734D01*
X7043802Y40352948D01*
X7201372Y40496593D01*
X7329866Y40666745D01*
X7424905Y40857611D01*
X7483256Y41062690D01*
X7502929Y41275000D01*
X7483256Y41487310D01*
X7424905Y41692389D01*
X7329866Y41883255D01*
X7201372Y42053407D01*
X7166841Y42084887D01*
X7129976Y42145560D01*
X7131765Y42216534D01*
X7171641Y42275274D01*
X7236945Y42303130D01*
X7251728Y42304000D01*
X20683272Y42304000D01*
X20751393Y42283998D01*
G37*
G04 #@! TD.AperFunction*
G04 #@! TA.AperFunction,Conductor*
G36*
X25869186Y40833298D02*
G01*
X25890160Y40816395D01*
X27051068Y39655487D01*
X27085094Y39593175D01*
X27080029Y39522360D01*
X27062523Y39490460D01*
X26955135Y39348258D01*
X26860094Y39157388D01*
X26801744Y38952313D01*
X26782071Y38740001D01*
X26801744Y38527688D01*
X26860094Y38322613D01*
X26955135Y38131743D01*
X27019380Y38046670D01*
X27083628Y37961593D01*
X27241197Y37817948D01*
X27241198Y37817948D01*
X27422478Y37705703D01*
X27422481Y37705702D01*
X27621302Y37628679D01*
X27807596Y37593855D01*
X27870880Y37561676D01*
X27906722Y37500391D01*
X27903741Y37429457D01*
X27862883Y37371395D01*
X27807596Y37346146D01*
X27696703Y37325416D01*
X27621301Y37311321D01*
X27422478Y37234298D01*
X27241198Y37122053D01*
X27083627Y36978406D01*
X26955135Y36808258D01*
X26955134Y36808255D01*
X26899504Y36696536D01*
X26851237Y36644474D01*
X26786715Y36626700D01*
X26004935Y36626700D01*
X25936814Y36646702D01*
X25915840Y36663605D01*
X24922296Y37657149D01*
X24888270Y37719461D01*
X24893335Y37790276D01*
X24926504Y37839358D01*
X25023481Y37927764D01*
X25157558Y38105311D01*
X25256729Y38304472D01*
X25317615Y38518464D01*
X25338143Y38740000D01*
X25317615Y38961536D01*
X25256729Y39175528D01*
X25157558Y39374689D01*
X25023481Y39552236D01*
X24859062Y39702124D01*
X24859059Y39702126D01*
X24859058Y39702127D01*
X24669905Y39819246D01*
X24573660Y39856531D01*
X24480788Y39892510D01*
X24424496Y39935768D01*
X24400525Y40002595D01*
X24416489Y40071774D01*
X24467319Y40121339D01*
X24480779Y40127487D01*
X24669901Y40200753D01*
X24669902Y40200755D01*
X24669905Y40200755D01*
X24774817Y40265714D01*
X24859062Y40317876D01*
X25023481Y40467764D01*
X25157558Y40645311D01*
X25226351Y40783466D01*
X25274619Y40835527D01*
X25339140Y40853300D01*
X25801065Y40853300D01*
X25869186Y40833298D01*
G37*
G04 #@! TD.AperFunction*
G04 #@! TA.AperFunction,Conductor*
G36*
X29103931Y40677520D02*
G01*
X29390817Y40390634D01*
X29400233Y40380099D01*
X29420988Y40354073D01*
X29465601Y40323656D01*
X29469405Y40320958D01*
X29512860Y40288886D01*
X29512862Y40288886D01*
X29518162Y40284974D01*
X29520967Y40283557D01*
X29527265Y40281615D01*
X29527266Y40281614D01*
X29578875Y40265695D01*
X29583240Y40264259D01*
X29634271Y40246402D01*
X29634272Y40246402D01*
X29640494Y40244225D01*
X29643584Y40243700D01*
X29650181Y40243700D01*
X29704134Y40243700D01*
X29708845Y40243612D01*
X29762811Y40241593D01*
X29762811Y40241594D01*
X29769390Y40241347D01*
X29787263Y40243700D01*
X41667161Y40243700D01*
X41735282Y40223698D01*
X41756256Y40206795D01*
X42298165Y39664886D01*
X42332191Y39602574D01*
X42327126Y39531759D01*
X42309620Y39499859D01*
X42195135Y39348258D01*
X42100094Y39157388D01*
X42041744Y38952313D01*
X42022071Y38740001D01*
X42041744Y38527688D01*
X42100094Y38322613D01*
X42195135Y38131743D01*
X42259381Y38046670D01*
X42323628Y37961593D01*
X42481197Y37817948D01*
X42481198Y37817948D01*
X42662478Y37705703D01*
X42662481Y37705702D01*
X42861302Y37628679D01*
X43047596Y37593855D01*
X43110880Y37561676D01*
X43146722Y37500391D01*
X43143741Y37429457D01*
X43102883Y37371395D01*
X43047596Y37346146D01*
X42936703Y37325416D01*
X42861301Y37311321D01*
X42662478Y37234298D01*
X42481198Y37122053D01*
X42323627Y36978406D01*
X42195135Y36808258D01*
X42100094Y36617388D01*
X42041744Y36412313D01*
X42022071Y36200000D01*
X42041744Y35987688D01*
X42096680Y35794612D01*
X42100095Y35782611D01*
X42189549Y35602961D01*
X42202007Y35533068D01*
X42174700Y35467533D01*
X42116297Y35427165D01*
X42076758Y35420800D01*
X41376949Y35420800D01*
X41362842Y35421592D01*
X41342352Y35423901D01*
X41329765Y35425319D01*
X41329764Y35425319D01*
X41315379Y35422597D01*
X41291954Y35420400D01*
X30767235Y35420400D01*
X30699114Y35440402D01*
X30678140Y35457305D01*
X30413291Y35722154D01*
X30379265Y35784466D01*
X30378592Y35798929D01*
X30377640Y35798813D01*
X30356682Y35971420D01*
X30350512Y35987688D01*
X30335355Y36027654D01*
X30300450Y36119692D01*
X30264247Y36172140D01*
X30210367Y36250199D01*
X30091671Y36355355D01*
X30000261Y36403331D01*
X29951259Y36429050D01*
X29899934Y36441700D01*
X29797289Y36467000D01*
X29638711Y36467000D01*
X29561726Y36448026D01*
X29484740Y36429050D01*
X29344329Y36355355D01*
X29284775Y36302595D01*
X29220522Y36272395D01*
X29150141Y36281727D01*
X29095978Y36327628D01*
X29075760Y36385281D01*
X29073256Y36412310D01*
X29014905Y36617389D01*
X28919866Y36808255D01*
X28791372Y36978407D01*
X28633802Y37122052D01*
X28633801Y37122053D01*
X28452521Y37234298D01*
X28253698Y37311321D01*
X28253697Y37311321D01*
X28067402Y37346146D01*
X28004119Y37378324D01*
X27968277Y37439609D01*
X27971258Y37510543D01*
X28012116Y37568605D01*
X28067401Y37593855D01*
X28253698Y37628679D01*
X28452519Y37705702D01*
X28473189Y37718500D01*
X28541201Y37760612D01*
X28633802Y37817948D01*
X28791372Y37961593D01*
X28919866Y38131745D01*
X29014905Y38322611D01*
X29073256Y38527690D01*
X29092929Y38740000D01*
X29073256Y38952310D01*
X29014905Y39157389D01*
X28919866Y39348255D01*
X28914383Y39355515D01*
X28881966Y39398442D01*
X28791372Y39518407D01*
X28633802Y39662052D01*
X28633801Y39662053D01*
X28452521Y39774298D01*
X28253698Y39851321D01*
X28225827Y39856531D01*
X28067402Y39886146D01*
X28004119Y39918324D01*
X27968277Y39979609D01*
X27971258Y40050543D01*
X28012116Y40108605D01*
X28067401Y40133855D01*
X28253698Y40168679D01*
X28452519Y40245702D01*
X28484840Y40265714D01*
X28569080Y40317874D01*
X28633802Y40357948D01*
X28791372Y40501593D01*
X28914287Y40664359D01*
X28971300Y40706665D01*
X29042136Y40711432D01*
X29103931Y40677520D01*
G37*
G04 #@! TD.AperFunction*
G04 #@! TA.AperFunction,Conductor*
G36*
X20455835Y51050387D02*
G01*
X20512671Y51007840D01*
X20524590Y50988500D01*
X20571080Y50895136D01*
X20605135Y50826743D01*
X20669380Y50741669D01*
X20733628Y50656593D01*
X20866533Y50535433D01*
X20891198Y50512948D01*
X21072478Y50400703D01*
X21103632Y50388634D01*
X21271302Y50323679D01*
X21457596Y50288855D01*
X21520880Y50256676D01*
X21556722Y50195391D01*
X21553741Y50124457D01*
X21512883Y50066395D01*
X21457596Y50041146D01*
X21332066Y50017680D01*
X21271301Y50006321D01*
X21072478Y49929298D01*
X20891198Y49817053D01*
X20733627Y49673406D01*
X20605135Y49503258D01*
X20587636Y49468115D01*
X20549504Y49391536D01*
X20501237Y49339474D01*
X20436715Y49321700D01*
X20000484Y49321700D01*
X19932363Y49341702D01*
X19885870Y49395358D01*
X19879588Y49412202D01*
X19872914Y49434932D01*
X19813186Y49565717D01*
X19758506Y49650800D01*
X19664352Y49759461D01*
X19616974Y49800515D01*
X19587910Y49825700D01*
X19466959Y49903430D01*
X19374957Y49945445D01*
X19236997Y49985954D01*
X19136892Y50000346D01*
X19136889Y50000346D01*
X18565000Y50000346D01*
X18561124Y49999863D01*
X18561125Y49999863D01*
X18477765Y49989473D01*
X18370642Y49942484D01*
X18284582Y49863260D01*
X18228908Y49760383D01*
X18209653Y49644998D01*
X18209653Y49215192D01*
X18208373Y49197276D01*
X18208129Y49195578D01*
X18208129Y49094433D01*
X18208371Y49092750D01*
X18209654Y49074814D01*
X18209654Y48715190D01*
X18208372Y48697262D01*
X18208129Y48695572D01*
X18208129Y48594431D01*
X18208371Y48592748D01*
X18209654Y48574813D01*
X18209654Y48145000D01*
X18210137Y48141126D01*
X18220527Y48057766D01*
X18267516Y47950643D01*
X18346740Y47864583D01*
X18427728Y47820755D01*
X18449619Y47808908D01*
X18565000Y47789654D01*
X18565003Y47789654D01*
X19136892Y47789654D01*
X19236997Y47804047D01*
X19236999Y47804048D01*
X19237001Y47804048D01*
X19374956Y47844555D01*
X19466958Y47886570D01*
X19587912Y47964302D01*
X19664352Y48030539D01*
X19758506Y48139200D01*
X19813186Y48224283D01*
X19872914Y48355068D01*
X19879588Y48377799D01*
X19917971Y48437524D01*
X19982552Y48467017D01*
X20000484Y48468300D01*
X20436715Y48468300D01*
X20504836Y48448298D01*
X20549504Y48398465D01*
X20596601Y48303882D01*
X20605135Y48286743D01*
X20668374Y48203002D01*
X20733628Y48116593D01*
X20868417Y47993716D01*
X20891198Y47972948D01*
X21072478Y47860703D01*
X21114099Y47844580D01*
X21271302Y47783679D01*
X21457596Y47748855D01*
X21520880Y47716676D01*
X21556722Y47655391D01*
X21553741Y47584457D01*
X21512883Y47526395D01*
X21457596Y47501146D01*
X21332066Y47477680D01*
X21271301Y47466321D01*
X21072478Y47389298D01*
X20891198Y47277053D01*
X20733627Y47133406D01*
X20605135Y46963258D01*
X20510094Y46772388D01*
X20451744Y46567313D01*
X20432071Y46355000D01*
X20451744Y46142688D01*
X20510094Y45937613D01*
X20605135Y45746743D01*
X20660306Y45673686D01*
X20733628Y45576593D01*
X20814611Y45502767D01*
X20891198Y45432948D01*
X21072478Y45320703D01*
X21072481Y45320702D01*
X21271302Y45243679D01*
X21457596Y45208855D01*
X21520880Y45176676D01*
X21556722Y45115391D01*
X21553741Y45044457D01*
X21512883Y44986395D01*
X21457596Y44961146D01*
X21347030Y44940477D01*
X21271301Y44926321D01*
X21072478Y44849298D01*
X20891198Y44737053D01*
X20733627Y44593406D01*
X20605135Y44423258D01*
X20510094Y44232388D01*
X20451744Y44027313D01*
X20432071Y43815001D01*
X20451744Y43602688D01*
X20508672Y43402613D01*
X20510095Y43397611D01*
X20539000Y43339561D01*
X20551459Y43269668D01*
X20524152Y43204133D01*
X20465749Y43163765D01*
X20426209Y43157400D01*
X7508791Y43157400D01*
X7440670Y43177402D01*
X7394177Y43231058D01*
X7384073Y43301332D01*
X7395998Y43339559D01*
X7424905Y43397611D01*
X7483256Y43602690D01*
X7502929Y43815000D01*
X7483256Y44027310D01*
X7424905Y44232389D01*
X7329866Y44423255D01*
X7201372Y44593407D01*
X7043802Y44737052D01*
X7020851Y44751263D01*
X6973465Y44804129D01*
X6962182Y44874223D01*
X6990586Y44939290D01*
X6998077Y44947473D01*
X7960677Y45910073D01*
X7971192Y45919471D01*
X7997227Y45940231D01*
X8027644Y45984847D01*
X8030366Y45988682D01*
X8039445Y46000983D01*
X8062414Y46032104D01*
X8062415Y46032108D01*
X8066334Y46037417D01*
X8067738Y46040199D01*
X8069683Y46046505D01*
X8069686Y46046509D01*
X8085597Y46098097D01*
X8087064Y46102551D01*
X8102859Y46147688D01*
X8104898Y46153515D01*
X8104898Y46153516D01*
X8107075Y46159737D01*
X8107600Y46162825D01*
X8107600Y46223379D01*
X8107688Y46228090D01*
X8109953Y46288632D01*
X8107600Y46306506D01*
X8107600Y48295913D01*
X8127602Y48364034D01*
X8144505Y48385008D01*
X10095892Y50336395D01*
X10158204Y50370421D01*
X10184987Y50373300D01*
X19466798Y50373300D01*
X19480905Y50372508D01*
X19513974Y50368782D01*
X19567039Y50378823D01*
X19571617Y50379601D01*
X19625032Y50387651D01*
X19625035Y50387653D01*
X19631546Y50388634D01*
X19634537Y50389618D01*
X19640357Y50392695D01*
X19640361Y50392695D01*
X19688118Y50417937D01*
X19692255Y50420025D01*
X19740923Y50443461D01*
X19740924Y50443463D01*
X19746875Y50446328D01*
X19749410Y50448127D01*
X19754081Y50452799D01*
X19754084Y50452800D01*
X19792276Y50490994D01*
X19795614Y50494209D01*
X19835215Y50530952D01*
X19835216Y50530955D01*
X19840043Y50535433D01*
X19851014Y50549732D01*
X20322710Y51021428D01*
X20385020Y51055452D01*
X20455835Y51050387D01*
G37*
G04 #@! TD.AperFunction*
G04 #@! TA.AperFunction,Conductor*
G36*
X25565134Y45913298D02*
G01*
X25586108Y45896395D01*
X25707069Y45775434D01*
X25716485Y45764899D01*
X25737240Y45738873D01*
X25781853Y45708456D01*
X25785657Y45705758D01*
X25829112Y45673686D01*
X25829114Y45673686D01*
X25834414Y45669774D01*
X25837218Y45668358D01*
X25843515Y45666416D01*
X25843518Y45666414D01*
X25895138Y45650492D01*
X25899539Y45649043D01*
X25942516Y45634005D01*
X25956744Y45629026D01*
X25959840Y45628500D01*
X25966433Y45628500D01*
X26020413Y45628500D01*
X26025124Y45628412D01*
X26079063Y45626394D01*
X26079063Y45626395D01*
X26085643Y45626148D01*
X26103511Y45628500D01*
X26555246Y45628500D01*
X26623367Y45608498D01*
X26633042Y45600398D01*
X26658631Y45580763D01*
X27286910Y44952484D01*
X27320936Y44890172D01*
X27315871Y44819357D01*
X27273324Y44762521D01*
X27264147Y44756263D01*
X27241200Y44742055D01*
X27083627Y44598406D01*
X26955133Y44428255D01*
X26892975Y44303425D01*
X26844706Y44251362D01*
X26798969Y44234997D01*
X26774906Y44231370D01*
X26771889Y44230377D01*
X26718369Y44202091D01*
X26714166Y44199969D01*
X26659591Y44173687D01*
X26657008Y44171854D01*
X26614184Y44129031D01*
X26610794Y44125765D01*
X26566398Y44084571D01*
X26555428Y44070275D01*
X25679460Y43194305D01*
X25617147Y43160280D01*
X25590364Y43157400D01*
X25347158Y43157400D01*
X25279037Y43177402D01*
X25232544Y43231058D01*
X25222440Y43301332D01*
X25234367Y43339563D01*
X25256730Y43384475D01*
X25265571Y43415550D01*
X25317615Y43598464D01*
X25338143Y43820000D01*
X25317615Y44041536D01*
X25256729Y44255528D01*
X25157558Y44454689D01*
X25023481Y44632236D01*
X24859062Y44782124D01*
X24859059Y44782126D01*
X24859058Y44782127D01*
X24669905Y44899246D01*
X24557359Y44942846D01*
X24480788Y44972510D01*
X24424496Y45015768D01*
X24400525Y45082595D01*
X24416489Y45151774D01*
X24467319Y45201339D01*
X24480779Y45207487D01*
X24669901Y45280753D01*
X24669902Y45280755D01*
X24669905Y45280755D01*
X24835627Y45383366D01*
X24859062Y45397876D01*
X25023481Y45547764D01*
X25157558Y45725311D01*
X25226351Y45863466D01*
X25274619Y45915527D01*
X25339140Y45933300D01*
X25497013Y45933300D01*
X25565134Y45913298D01*
G37*
G04 #@! TD.AperFunction*
G04 #@! TA.AperFunction,Conductor*
G36*
X45018198Y56979998D02*
G01*
X45036373Y56965810D01*
X45554453Y56478814D01*
X45960299Y56097319D01*
X45996234Y56036088D01*
X46000000Y56005512D01*
X46000000Y8052191D01*
X45979998Y7984070D01*
X45963095Y7963096D01*
X45037089Y7037090D01*
X44974777Y7003064D01*
X44947549Y7000186D01*
X28000000Y7060000D01*
X27000000Y6000001D01*
X26999999Y6000000D01*
X27000000Y1612191D01*
X26979998Y1544070D01*
X26963096Y1523096D01*
X26036777Y596776D01*
X25974464Y562751D01*
X25947990Y559871D01*
X1554536Y500134D01*
X1486366Y519970D01*
X1462575Y539670D01*
X1443517Y559871D01*
X1126260Y896164D01*
X534348Y1523592D01*
X502152Y1586869D01*
X500000Y1610056D01*
X500000Y6193665D01*
X1365482Y6193665D01*
X1375515Y6140632D01*
X1376303Y6135991D01*
X1385328Y6076119D01*
X1386327Y6073082D01*
X1414617Y6019553D01*
X1416738Y6015351D01*
X1443015Y5960786D01*
X1444840Y5958215D01*
X1449499Y5953556D01*
X1449500Y5953555D01*
X1487680Y5915375D01*
X1490923Y5912008D01*
X1532131Y5867597D01*
X1546431Y5856624D01*
X3074721Y4328334D01*
X3084137Y4317799D01*
X3092477Y4307341D01*
X3119311Y4241611D01*
X3106349Y4171807D01*
X3078852Y4135667D01*
X2921520Y3992239D01*
X2787442Y3814690D01*
X2688270Y3615528D01*
X2627386Y3401541D01*
X2627385Y3401536D01*
X2606857Y3180000D01*
X2627385Y2958464D01*
X2627385Y2958461D01*
X2627386Y2958460D01*
X2688270Y2744473D01*
X2776769Y2566745D01*
X2787442Y2545311D01*
X2921519Y2367764D01*
X3085938Y2217876D01*
X3085940Y2217875D01*
X3085941Y2217874D01*
X3275094Y2100755D01*
X3275098Y2100754D01*
X3275099Y2100753D01*
X3482560Y2020382D01*
X3701257Y1979500D01*
X3701259Y1979500D01*
X3923741Y1979500D01*
X3923743Y1979500D01*
X4142440Y2020382D01*
X4349901Y2100753D01*
X4349902Y2100755D01*
X4349905Y2100755D01*
X4444481Y2159315D01*
X4539062Y2217876D01*
X4703481Y2367764D01*
X4837558Y2545311D01*
X4936729Y2744472D01*
X4984091Y2910935D01*
X5021970Y2970978D01*
X5086300Y3001013D01*
X5156657Y2991501D01*
X5210701Y2945461D01*
X5226470Y2910933D01*
X5270094Y2757614D01*
X5270095Y2757611D01*
X5277227Y2743288D01*
X5365135Y2566743D01*
X5381320Y2545311D01*
X5493628Y2396593D01*
X5651197Y2252948D01*
X5651198Y2252948D01*
X5832478Y2140703D01*
X5832481Y2140702D01*
X6031302Y2063679D01*
X6240890Y2024500D01*
X6240892Y2024500D01*
X6454108Y2024500D01*
X6454110Y2024500D01*
X6663698Y2063679D01*
X6862519Y2140702D01*
X7043802Y2252948D01*
X7201372Y2396593D01*
X7329866Y2566745D01*
X7424905Y2757611D01*
X7483256Y2962690D01*
X7502929Y3175000D01*
X7483256Y3387310D01*
X7424905Y3592389D01*
X7329866Y3783255D01*
X7201372Y3953407D01*
X7043802Y4097052D01*
X7043801Y4097053D01*
X6862521Y4209298D01*
X6663698Y4286321D01*
X6663687Y4286323D01*
X6477402Y4321146D01*
X6414119Y4353324D01*
X6378277Y4414609D01*
X6381258Y4485543D01*
X6422116Y4543605D01*
X6477401Y4568855D01*
X6663698Y4603679D01*
X6862519Y4680702D01*
X7043802Y4792948D01*
X7201372Y4936593D01*
X7329866Y5106745D01*
X7424905Y5297611D01*
X7483256Y5502690D01*
X7502929Y5715000D01*
X7483256Y5927310D01*
X7424905Y6132389D01*
X7342440Y6298002D01*
X7329983Y6367895D01*
X7357290Y6433430D01*
X7415693Y6473799D01*
X7486649Y6476183D01*
X7492370Y6474566D01*
X7509715Y6469216D01*
X7509718Y6469214D01*
X7561343Y6453290D01*
X7565692Y6451859D01*
X7616723Y6434002D01*
X7616724Y6434002D01*
X7622946Y6431825D01*
X7626036Y6431300D01*
X7632633Y6431300D01*
X7686586Y6431300D01*
X7691297Y6431212D01*
X7745263Y6429193D01*
X7745263Y6429194D01*
X7751842Y6428947D01*
X7769715Y6431300D01*
X20455438Y6431300D01*
X20523559Y6411298D01*
X20570052Y6357642D01*
X20580156Y6287368D01*
X20568230Y6249143D01*
X20513046Y6138315D01*
X20510094Y6132387D01*
X20451744Y5927313D01*
X20432071Y5715000D01*
X20451744Y5502688D01*
X20510094Y5297613D01*
X20605135Y5106743D01*
X20669380Y5021669D01*
X20733628Y4936593D01*
X20875722Y4807056D01*
X20891198Y4792948D01*
X21072478Y4680703D01*
X21072481Y4680702D01*
X21271302Y4603679D01*
X21457597Y4568855D01*
X21520880Y4536677D01*
X21556722Y4475392D01*
X21553741Y4404458D01*
X21512884Y4346396D01*
X21457595Y4321147D01*
X21271306Y4286323D01*
X21072478Y4209298D01*
X20891198Y4097053D01*
X20733627Y3953406D01*
X20605135Y3783258D01*
X20510094Y3592388D01*
X20451744Y3387313D01*
X20432071Y3175000D01*
X20451744Y2962688D01*
X20510094Y2757613D01*
X20605135Y2566743D01*
X20621320Y2545311D01*
X20733628Y2396593D01*
X20891198Y2252948D01*
X21072478Y2140703D01*
X21072481Y2140702D01*
X21271302Y2063679D01*
X21480890Y2024500D01*
X21480892Y2024500D01*
X21694108Y2024500D01*
X21694110Y2024500D01*
X21903698Y2063679D01*
X22102519Y2140702D01*
X22283802Y2252948D01*
X22441372Y2396593D01*
X22569866Y2566745D01*
X22657774Y2743291D01*
X22706041Y2795352D01*
X22715886Y2800645D01*
X22752884Y2818461D01*
X22752885Y2818463D01*
X22758838Y2821329D01*
X22761371Y2823127D01*
X22766042Y2827799D01*
X22766045Y2827800D01*
X22784548Y2846304D01*
X22846858Y2880330D01*
X22917674Y2875267D01*
X22974511Y2832722D01*
X22994835Y2791693D01*
X23008271Y2744470D01*
X23096769Y2566745D01*
X23107442Y2545311D01*
X23241519Y2367764D01*
X23405938Y2217876D01*
X23405940Y2217875D01*
X23405941Y2217874D01*
X23595094Y2100755D01*
X23595098Y2100754D01*
X23595099Y2100753D01*
X23802560Y2020382D01*
X24021257Y1979500D01*
X24021259Y1979500D01*
X24243741Y1979500D01*
X24243743Y1979500D01*
X24462440Y2020382D01*
X24669901Y2100753D01*
X24669902Y2100755D01*
X24669905Y2100755D01*
X24764481Y2159315D01*
X24859062Y2217876D01*
X25023481Y2367764D01*
X25157558Y2545311D01*
X25256729Y2744472D01*
X25317615Y2958464D01*
X25338143Y3180000D01*
X25317615Y3401536D01*
X25256729Y3615528D01*
X25157558Y3814689D01*
X25023481Y3992236D01*
X24864708Y4136977D01*
X24827843Y4197651D01*
X24829632Y4268625D01*
X24860498Y4319184D01*
X25490877Y4949563D01*
X25501392Y4958961D01*
X25527427Y4979721D01*
X25557844Y5024337D01*
X25560566Y5028172D01*
X25592614Y5071594D01*
X25592615Y5071598D01*
X25596536Y5076910D01*
X25597938Y5079686D01*
X25599884Y5085997D01*
X25599886Y5085999D01*
X25615801Y5137599D01*
X25617247Y5141992D01*
X25635098Y5193004D01*
X25635098Y5193009D01*
X25637275Y5199230D01*
X25640297Y5217011D01*
X25643403Y5227075D01*
X25646345Y5226167D01*
X25657802Y5265183D01*
X25674700Y5286152D01*
X27925944Y7537395D01*
X27988256Y7571421D01*
X28015039Y7574300D01*
X43275959Y7574300D01*
X43290066Y7573508D01*
X43323135Y7569782D01*
X43376200Y7579823D01*
X43380778Y7580601D01*
X43434193Y7588651D01*
X43434196Y7588653D01*
X43440707Y7589634D01*
X43443698Y7590618D01*
X43449518Y7593695D01*
X43449522Y7593695D01*
X43497279Y7618937D01*
X43501416Y7621025D01*
X43550084Y7644461D01*
X43550085Y7644463D01*
X43556036Y7647328D01*
X43558571Y7649127D01*
X43563242Y7653799D01*
X43563245Y7653800D01*
X43601437Y7691994D01*
X43604775Y7695209D01*
X43644376Y7731952D01*
X43644377Y7731955D01*
X43649204Y7736433D01*
X43660175Y7750732D01*
X45424677Y9515234D01*
X45435192Y9524632D01*
X45461227Y9545392D01*
X45491671Y9590048D01*
X45494317Y9593777D01*
X45526414Y9637264D01*
X45526415Y9637267D01*
X45530335Y9642578D01*
X45531740Y9645363D01*
X45533684Y9651669D01*
X45533686Y9651670D01*
X45549609Y9703294D01*
X45551045Y9707660D01*
X45568897Y9758675D01*
X45568897Y9758677D01*
X45571075Y9764900D01*
X45571600Y9767988D01*
X45571600Y9828566D01*
X45571688Y9833277D01*
X45573952Y9893798D01*
X45571600Y9911664D01*
X45571600Y27012604D01*
X45572392Y27026711D01*
X45572614Y27028688D01*
X45576119Y27059787D01*
X45566080Y27112842D01*
X45565293Y27117472D01*
X45565006Y27119379D01*
X45557249Y27170845D01*
X45557247Y27170848D01*
X45556266Y27177362D01*
X45555283Y27180351D01*
X45526982Y27233897D01*
X45524873Y27238073D01*
X45501439Y27286736D01*
X45501438Y27286737D01*
X45498580Y27292673D01*
X45496762Y27295235D01*
X45453944Y27338053D01*
X45450675Y27341446D01*
X45409473Y27385851D01*
X45395172Y27396825D01*
X45040603Y27751393D01*
X45006579Y27813705D01*
X45003700Y27840488D01*
X45003700Y39849452D01*
X45004492Y39863559D01*
X45004714Y39865536D01*
X45008219Y39896635D01*
X44998180Y39949690D01*
X44997393Y39954320D01*
X44994335Y39974611D01*
X44989349Y40007693D01*
X44989347Y40007696D01*
X44988366Y40014210D01*
X44987383Y40017199D01*
X44970407Y40049318D01*
X44959076Y40070757D01*
X44956973Y40074921D01*
X44933539Y40123584D01*
X44933538Y40123585D01*
X44930680Y40129521D01*
X44928862Y40132083D01*
X44886044Y40174901D01*
X44882775Y40178294D01*
X44841572Y40222700D01*
X44827269Y40233676D01*
X44294732Y40766213D01*
X44260706Y40828525D01*
X44262636Y40889786D01*
X44313256Y41067690D01*
X44332929Y41280000D01*
X44313256Y41492310D01*
X44254905Y41697389D01*
X44159866Y41888255D01*
X44031372Y42058407D01*
X43873802Y42202052D01*
X43873801Y42202053D01*
X43692521Y42314298D01*
X43493693Y42391323D01*
X43307404Y42426147D01*
X43244118Y42458326D01*
X43208277Y42519611D01*
X43211258Y42590545D01*
X43252116Y42648606D01*
X43307399Y42673854D01*
X43493698Y42708679D01*
X43692519Y42785702D01*
X43873802Y42897948D01*
X44031372Y43041593D01*
X44159866Y43211745D01*
X44254905Y43402611D01*
X44313256Y43607690D01*
X44332929Y43820000D01*
X44313256Y44032310D01*
X44254905Y44237389D01*
X44159866Y44428255D01*
X44031372Y44598407D01*
X43873802Y44742052D01*
X43873801Y44742053D01*
X43692521Y44854298D01*
X43493698Y44931321D01*
X43493697Y44931322D01*
X43307402Y44966146D01*
X43244119Y44998324D01*
X43208277Y45059609D01*
X43211258Y45130543D01*
X43252116Y45188605D01*
X43307401Y45213855D01*
X43493698Y45248679D01*
X43692519Y45325702D01*
X43716923Y45340812D01*
X43809080Y45397874D01*
X43873802Y45437948D01*
X44031372Y45581593D01*
X44159866Y45751745D01*
X44254905Y45942611D01*
X44313256Y46147690D01*
X44332929Y46360000D01*
X44313256Y46572310D01*
X44254905Y46777389D01*
X44159866Y46968255D01*
X44031372Y47138407D01*
X43873802Y47282052D01*
X43873801Y47282053D01*
X43692521Y47394298D01*
X43493698Y47471321D01*
X43493698Y47471322D01*
X43307402Y47506146D01*
X43244119Y47538324D01*
X43208277Y47599609D01*
X43211258Y47670543D01*
X43252116Y47728605D01*
X43307401Y47753855D01*
X43493698Y47788679D01*
X43692519Y47865702D01*
X43726224Y47886571D01*
X43809080Y47937874D01*
X43873802Y47977948D01*
X44031372Y48121593D01*
X44159866Y48291745D01*
X44254905Y48482611D01*
X44313256Y48687690D01*
X44332929Y48900000D01*
X44313256Y49112310D01*
X44254905Y49317389D01*
X44159866Y49508255D01*
X44031372Y49678407D01*
X43886595Y49810390D01*
X43873801Y49822053D01*
X43692521Y49934298D01*
X43493698Y50011321D01*
X43460087Y50017604D01*
X43307402Y50046146D01*
X43244119Y50078324D01*
X43208277Y50139609D01*
X43211258Y50210543D01*
X43252116Y50268605D01*
X43307401Y50293855D01*
X43493698Y50328679D01*
X43692519Y50405702D01*
X43695892Y50407790D01*
X43758132Y50446328D01*
X43873802Y50517948D01*
X44031372Y50661593D01*
X44159866Y50831745D01*
X44254905Y51022611D01*
X44313256Y51227690D01*
X44332929Y51440000D01*
X44313256Y51652310D01*
X44254905Y51857389D01*
X44159866Y52048255D01*
X44031372Y52218407D01*
X43873802Y52362052D01*
X43873801Y52362053D01*
X43692521Y52474298D01*
X43493698Y52551321D01*
X43284110Y52590500D01*
X43070890Y52590500D01*
X42952035Y52568282D01*
X42861301Y52551321D01*
X42662478Y52474298D01*
X42481198Y52362053D01*
X42323627Y52218406D01*
X42195135Y52048258D01*
X42100094Y51857388D01*
X42041744Y51652313D01*
X42022071Y51440000D01*
X42041744Y51227688D01*
X42100094Y51022613D01*
X42195135Y50831743D01*
X42259381Y50746670D01*
X42323628Y50661593D01*
X42481197Y50517948D01*
X42481198Y50517948D01*
X42662478Y50405703D01*
X42676655Y50400211D01*
X42861302Y50328679D01*
X43047596Y50293855D01*
X43110880Y50261676D01*
X43146722Y50200391D01*
X43143741Y50129457D01*
X43102883Y50071395D01*
X43047596Y50046146D01*
X42922066Y50022680D01*
X42861301Y50011321D01*
X42662478Y49934298D01*
X42481198Y49822053D01*
X42323627Y49678406D01*
X42195133Y49508255D01*
X42175146Y49468115D01*
X42126876Y49416052D01*
X42058122Y49398350D01*
X41990712Y49420630D01*
X41973261Y49435184D01*
X38563605Y52844841D01*
X38529579Y52907153D01*
X38526700Y52933936D01*
X38526700Y54090176D01*
X38546702Y54158297D01*
X38600358Y54204790D01*
X38607180Y54207666D01*
X38615019Y54210702D01*
X38796302Y54322948D01*
X38953872Y54466593D01*
X39082366Y54636745D01*
X39177405Y54827611D01*
X39235756Y55032690D01*
X39255429Y55245000D01*
X39255429Y55245001D01*
X39507069Y55245001D01*
X39526743Y55032694D01*
X39585094Y54827613D01*
X39680135Y54636743D01*
X39716564Y54588504D01*
X39808628Y54466593D01*
X39966198Y54322949D01*
X39966198Y54322948D01*
X40147478Y54210703D01*
X40189099Y54194579D01*
X40346302Y54133679D01*
X40555890Y54094500D01*
X40555892Y54094500D01*
X40769108Y54094500D01*
X40769110Y54094500D01*
X40978698Y54133679D01*
X41177519Y54210702D01*
X41358802Y54322948D01*
X41516372Y54466593D01*
X41644866Y54636745D01*
X41713250Y54774081D01*
X41761517Y54826142D01*
X41830271Y54843845D01*
X41897681Y54821566D01*
X41940234Y54771166D01*
X42025412Y54588504D01*
X42075399Y54517113D01*
X42763772Y55205484D01*
X42777335Y55119852D01*
X42834859Y55006955D01*
X42924455Y54917359D01*
X43037352Y54859835D01*
X43122982Y54846273D01*
X42434610Y54157902D01*
X42434610Y54157900D01*
X42505997Y54107915D01*
X42713429Y54011187D01*
X42934500Y53951952D01*
X43162500Y53932005D01*
X43390499Y53951952D01*
X43611570Y54011187D01*
X43818998Y54107913D01*
X43890388Y54157901D01*
X43890388Y54157903D01*
X43202018Y54846273D01*
X43287648Y54859835D01*
X43400545Y54917359D01*
X43490141Y55006955D01*
X43547665Y55119852D01*
X43561227Y55205482D01*
X44249597Y54517112D01*
X44249599Y54517112D01*
X44299587Y54588502D01*
X44396313Y54795930D01*
X44455548Y55017001D01*
X44475495Y55245001D01*
X44455548Y55473000D01*
X44396313Y55694071D01*
X44299585Y55901503D01*
X44249600Y55972890D01*
X44249598Y55972890D01*
X43561227Y55284519D01*
X43547665Y55370148D01*
X43490141Y55483045D01*
X43400545Y55572641D01*
X43287648Y55630165D01*
X43202017Y55643728D01*
X43890388Y56332101D01*
X43818997Y56382088D01*
X43611570Y56478814D01*
X43390499Y56538049D01*
X43162500Y56557996D01*
X42934500Y56538049D01*
X42713429Y56478814D01*
X42505999Y56382087D01*
X42434609Y56332100D01*
X43122981Y55643728D01*
X43037352Y55630165D01*
X42924455Y55572641D01*
X42834859Y55483045D01*
X42777335Y55370148D01*
X42763772Y55284519D01*
X42075400Y55972891D01*
X42025411Y55901498D01*
X41940233Y55718834D01*
X41893316Y55665550D01*
X41825039Y55646089D01*
X41757079Y55666631D01*
X41713249Y55715922D01*
X41644866Y55853255D01*
X41516372Y56023407D01*
X41358802Y56167052D01*
X41358801Y56167053D01*
X41177521Y56279298D01*
X40978698Y56356321D01*
X40769110Y56395500D01*
X40555890Y56395500D01*
X40449050Y56375528D01*
X40346301Y56356321D01*
X40147478Y56279298D01*
X39966198Y56167053D01*
X39808627Y56023406D01*
X39680135Y55853258D01*
X39585094Y55662388D01*
X39526743Y55457307D01*
X39507069Y55245001D01*
X39255429Y55245001D01*
X39235756Y55457310D01*
X39177405Y55662389D01*
X39082366Y55853255D01*
X38953872Y56023407D01*
X38796302Y56167052D01*
X38796301Y56167053D01*
X38615021Y56279298D01*
X38416198Y56356321D01*
X38416197Y56356322D01*
X38206610Y56395500D01*
X37993390Y56395500D01*
X37886550Y56375528D01*
X37783801Y56356321D01*
X37584978Y56279298D01*
X37403698Y56167053D01*
X37246127Y56023406D01*
X37117635Y55853258D01*
X37022594Y55662388D01*
X36964244Y55457313D01*
X36944571Y55245000D01*
X36964244Y55032688D01*
X37022594Y54827613D01*
X37117635Y54636743D01*
X37154064Y54588504D01*
X37246128Y54466593D01*
X37381685Y54343015D01*
X37403700Y54322946D01*
X37584979Y54210703D01*
X37584981Y54210702D01*
X37592811Y54207669D01*
X37649108Y54164413D01*
X37673082Y54097586D01*
X37673300Y54090176D01*
X37673300Y52736042D01*
X37672508Y52721935D01*
X37668782Y52688865D01*
X37678815Y52635832D01*
X37679603Y52631191D01*
X37688628Y52571319D01*
X37689627Y52568282D01*
X37717917Y52514753D01*
X37720038Y52510551D01*
X37746315Y52455986D01*
X37748140Y52453415D01*
X37752799Y52448756D01*
X37752800Y52448755D01*
X37790980Y52410575D01*
X37794223Y52407208D01*
X37808895Y52391395D01*
X37835431Y52362797D01*
X37849731Y52351824D01*
X41581321Y48620234D01*
X41590737Y48609699D01*
X41611492Y48583673D01*
X41656120Y48553247D01*
X41659917Y48550552D01*
X41688961Y48529117D01*
X41708673Y48514568D01*
X41711461Y48513161D01*
X41717767Y48511216D01*
X41717770Y48511214D01*
X41769381Y48495294D01*
X41773779Y48493847D01*
X41824775Y48476002D01*
X41824777Y48476002D01*
X41830996Y48473826D01*
X41834088Y48473300D01*
X41840685Y48473300D01*
X41894638Y48473300D01*
X41899349Y48473212D01*
X41953315Y48471193D01*
X41953315Y48471194D01*
X41959891Y48470947D01*
X41977766Y48473300D01*
X42026715Y48473300D01*
X42094836Y48453298D01*
X42139504Y48403465D01*
X42175595Y48330985D01*
X42195135Y48291743D01*
X42243842Y48227246D01*
X42323628Y48121593D01*
X42481197Y47977948D01*
X42481198Y47977948D01*
X42662478Y47865703D01*
X42675679Y47860589D01*
X42861302Y47788679D01*
X43047596Y47753855D01*
X43110880Y47721676D01*
X43146722Y47660391D01*
X43143741Y47589457D01*
X43102883Y47531395D01*
X43047596Y47506146D01*
X42950136Y47487927D01*
X42861301Y47471321D01*
X42662478Y47394298D01*
X42481198Y47282053D01*
X42323627Y47138406D01*
X42195135Y46968258D01*
X42100094Y46777388D01*
X42041744Y46572313D01*
X42022071Y46360000D01*
X42041744Y46147688D01*
X42100094Y45942613D01*
X42195135Y45751743D01*
X42227810Y45708475D01*
X42323628Y45581593D01*
X42463217Y45454340D01*
X42481198Y45437948D01*
X42662478Y45325703D01*
X42704099Y45309579D01*
X42861302Y45248679D01*
X43047596Y45213855D01*
X43110880Y45181676D01*
X43146722Y45120391D01*
X43143741Y45049457D01*
X43102883Y44991395D01*
X43047596Y44966146D01*
X42937377Y44945542D01*
X42861301Y44931321D01*
X42662478Y44854298D01*
X42481198Y44742053D01*
X42323627Y44598406D01*
X42195135Y44428258D01*
X42100094Y44237388D01*
X42041744Y44032313D01*
X42022071Y43820000D01*
X42041744Y43607688D01*
X42100094Y43402613D01*
X42195135Y43211743D01*
X42231367Y43163765D01*
X42323628Y43041593D01*
X42481197Y42897948D01*
X42481198Y42897948D01*
X42662478Y42785703D01*
X42662481Y42785702D01*
X42861302Y42708679D01*
X43047596Y42673855D01*
X43110880Y42641676D01*
X43146722Y42580391D01*
X43143741Y42509457D01*
X43102883Y42451395D01*
X43047596Y42426146D01*
X42922066Y42402680D01*
X42861301Y42391321D01*
X42662478Y42314298D01*
X42481198Y42202053D01*
X42323627Y42058406D01*
X42195135Y41888258D01*
X42175112Y41848045D01*
X42139504Y41776536D01*
X42091237Y41724474D01*
X42026715Y41706700D01*
X30195935Y41706700D01*
X30127814Y41726702D01*
X30106845Y41743600D01*
X30039301Y41811144D01*
X30005279Y41873451D01*
X30002400Y41900226D01*
X30002400Y46576473D01*
X30003192Y46590580D01*
X30004985Y46606495D01*
X30006918Y46623649D01*
X29996882Y46676693D01*
X29996093Y46681337D01*
X29987068Y46741215D01*
X29986080Y46744217D01*
X29957782Y46797759D01*
X29955673Y46801934D01*
X29932239Y46850597D01*
X29932238Y46850598D01*
X29929380Y46856534D01*
X29927562Y46859096D01*
X29884744Y46901914D01*
X29881475Y46905307D01*
X29840272Y46949713D01*
X29825969Y46960689D01*
X28926069Y47860589D01*
X28892043Y47922901D01*
X28897108Y47993716D01*
X28926072Y48038783D01*
X28943314Y48056024D01*
X29074587Y48243502D01*
X29171313Y48450930D01*
X29223582Y48646000D01*
X28249186Y48646000D01*
X28265141Y48661955D01*
X28322665Y48774852D01*
X28342486Y48900000D01*
X28322665Y49025148D01*
X28265141Y49138045D01*
X28249186Y49154000D01*
X29223582Y49154000D01*
X29171313Y49349071D01*
X29074587Y49556499D01*
X28943310Y49743982D01*
X28781481Y49905811D01*
X28593999Y50037088D01*
X28567798Y50049305D01*
X28514513Y50096222D01*
X28495052Y50164499D01*
X28515594Y50232459D01*
X28569616Y50278525D01*
X28621048Y50289500D01*
X28770757Y50289500D01*
X28770760Y50289500D01*
X28838893Y50299427D01*
X28943983Y50350802D01*
X29026698Y50433517D01*
X29078073Y50538607D01*
X29088000Y50606740D01*
X29088000Y52273260D01*
X29078073Y52341393D01*
X29026698Y52446483D01*
X29026697Y52446484D01*
X29026697Y52446485D01*
X28943984Y52529198D01*
X28838894Y52580573D01*
X28821859Y52583055D01*
X28770760Y52590500D01*
X27104240Y52590500D01*
X27063360Y52584544D01*
X27036105Y52580573D01*
X26931015Y52529198D01*
X26848302Y52446485D01*
X26796927Y52341395D01*
X26796926Y52341393D01*
X26796927Y52341393D01*
X26787000Y52273260D01*
X26787000Y50606740D01*
X26790450Y50583064D01*
X26796927Y50538606D01*
X26848302Y50433516D01*
X26931015Y50350803D01*
X26931016Y50350803D01*
X26931017Y50350802D01*
X27036107Y50299427D01*
X27104240Y50289500D01*
X27104243Y50289500D01*
X27253952Y50289500D01*
X27322073Y50269498D01*
X27368566Y50215842D01*
X27378670Y50145568D01*
X27349176Y50080988D01*
X27307202Y50049305D01*
X27281000Y50037088D01*
X27093518Y49905811D01*
X26931689Y49743982D01*
X26800412Y49556499D01*
X26703686Y49349071D01*
X26651417Y49154000D01*
X27625814Y49154000D01*
X27609859Y49138045D01*
X27552335Y49025148D01*
X27532514Y48900000D01*
X27552335Y48774852D01*
X27609859Y48661955D01*
X27625814Y48646000D01*
X26651418Y48646000D01*
X26703686Y48450930D01*
X26745039Y48362250D01*
X26755700Y48292059D01*
X26726720Y48227246D01*
X26667301Y48188389D01*
X26630844Y48183000D01*
X25952700Y48183000D01*
X25884579Y48203002D01*
X25838086Y48256658D01*
X25826700Y48309000D01*
X25826700Y52298660D01*
X25827492Y52312767D01*
X25828674Y52323260D01*
X25831218Y52345836D01*
X25821184Y52398863D01*
X25820394Y52403511D01*
X25819578Y52408927D01*
X25812349Y52456893D01*
X25812347Y52456897D01*
X25811366Y52463408D01*
X25810383Y52466395D01*
X25807304Y52472221D01*
X25807304Y52472222D01*
X25782071Y52519965D01*
X25779979Y52524110D01*
X25756539Y52572784D01*
X25753681Y52578719D01*
X25751862Y52581283D01*
X25709044Y52624101D01*
X25705775Y52627494D01*
X25664572Y52671900D01*
X25650269Y52682876D01*
X25284974Y53048171D01*
X25275557Y53058708D01*
X25254806Y53084730D01*
X25210206Y53115138D01*
X25206364Y53117864D01*
X25157648Y53153818D01*
X25154821Y53155245D01*
X25148531Y53157186D01*
X25148530Y53157186D01*
X25096943Y53173099D01*
X25092480Y53174568D01*
X25035323Y53194567D01*
X25032185Y53195100D01*
X25025615Y53195100D01*
X24971651Y53195100D01*
X24966940Y53195188D01*
X24906404Y53197454D01*
X24888533Y53195100D01*
X21066236Y53195100D01*
X21052129Y53195892D01*
X21019053Y53199619D01*
X21019052Y53199619D01*
X20966008Y53189583D01*
X20961385Y53188798D01*
X20901493Y53179770D01*
X20898476Y53178777D01*
X20844956Y53150491D01*
X20840753Y53148369D01*
X20786178Y53122087D01*
X20783595Y53120254D01*
X20740771Y53077431D01*
X20737381Y53074165D01*
X20692989Y53032974D01*
X20682012Y53018672D01*
X19231745Y51568404D01*
X19169435Y51534380D01*
X19142652Y51531500D01*
X9860849Y51531500D01*
X9846742Y51532292D01*
X9813666Y51536019D01*
X9813665Y51536019D01*
X9760621Y51525983D01*
X9755998Y51525198D01*
X9696106Y51516170D01*
X9693089Y51515177D01*
X9639569Y51486891D01*
X9635366Y51484769D01*
X9580791Y51458487D01*
X9578208Y51456654D01*
X9535384Y51413831D01*
X9531994Y51410565D01*
X9487600Y51369372D01*
X9476625Y51355072D01*
X7551738Y49430185D01*
X7489426Y49396159D01*
X7418611Y49401224D01*
X7361775Y49443771D01*
X7349853Y49463117D01*
X7329867Y49503254D01*
X7253869Y49603890D01*
X7201372Y49673407D01*
X7043802Y49817052D01*
X7043801Y49817053D01*
X6919733Y49893873D01*
X6872346Y49946740D01*
X6861063Y50016834D01*
X6889467Y50081901D01*
X6948540Y50121283D01*
X6986064Y50127000D01*
X7192723Y50127000D01*
X7199436Y50127360D01*
X7256593Y50133506D01*
X7393462Y50184555D01*
X7510404Y50272096D01*
X7597945Y50389038D01*
X7648994Y50525907D01*
X7655140Y50583064D01*
X7655500Y50589778D01*
X7655500Y51181000D01*
X6659186Y51181000D01*
X6675141Y51196955D01*
X6732665Y51309852D01*
X6752486Y51435000D01*
X6732665Y51560148D01*
X6675141Y51673045D01*
X6659186Y51689000D01*
X7655500Y51689000D01*
X7655500Y52280223D01*
X7655140Y52286937D01*
X7648994Y52344094D01*
X7597945Y52480963D01*
X7510404Y52597905D01*
X7393462Y52685446D01*
X7256593Y52736495D01*
X7199436Y52742641D01*
X7192723Y52743000D01*
X6601500Y52743000D01*
X6601499Y51746687D01*
X6585545Y51762641D01*
X6472648Y51820165D01*
X6378981Y51835000D01*
X6316019Y51835000D01*
X6222352Y51820165D01*
X6109455Y51762641D01*
X6093500Y51746686D01*
X6093500Y52743000D01*
X5502277Y52743000D01*
X5495563Y52742641D01*
X5438406Y52736495D01*
X5301537Y52685446D01*
X5184595Y52597905D01*
X5128612Y52523119D01*
X5071777Y52480572D01*
X5000961Y52475507D01*
X4938649Y52509532D01*
X4938649Y52509533D01*
X4868984Y52579198D01*
X4763894Y52630573D01*
X4743701Y52633515D01*
X4695760Y52640500D01*
X2929240Y52640500D01*
X2897202Y52635832D01*
X2861105Y52630573D01*
X2756015Y52579198D01*
X2673302Y52496485D01*
X2621927Y52391395D01*
X2621926Y52391393D01*
X2621927Y52391393D01*
X2615290Y52345837D01*
X2612000Y52323258D01*
X2612000Y50895136D01*
X2591998Y50827015D01*
X2575099Y50806046D01*
X2195701Y50426647D01*
X1828931Y50059877D01*
X1818398Y50050464D01*
X1792372Y50029709D01*
X1761960Y49985103D01*
X1759236Y49981264D01*
X1723284Y49932550D01*
X1721851Y49929711D01*
X1704000Y49871845D01*
X1702530Y49867377D01*
X1682533Y49810226D01*
X1682000Y49807083D01*
X1682000Y49746553D01*
X1681912Y49741842D01*
X1679646Y49681304D01*
X1682000Y49663434D01*
X1682000Y40346242D01*
X1681208Y40332135D01*
X1677482Y40299065D01*
X1687515Y40246032D01*
X1688303Y40241391D01*
X1697328Y40181519D01*
X1698327Y40178482D01*
X1726617Y40124953D01*
X1728739Y40120749D01*
X1752508Y40071392D01*
X1764043Y40001339D01*
X1735874Y39936170D01*
X1728081Y39927628D01*
X1516931Y39716478D01*
X1506398Y39707064D01*
X1480372Y39686309D01*
X1449960Y39641703D01*
X1447236Y39637864D01*
X1411284Y39589150D01*
X1409851Y39586311D01*
X1392000Y39528445D01*
X1390530Y39523977D01*
X1370533Y39466826D01*
X1370000Y39463683D01*
X1370000Y39403153D01*
X1369912Y39398442D01*
X1367646Y39337904D01*
X1370000Y39320034D01*
X1370000Y6240842D01*
X1369208Y6226735D01*
X1365482Y6193665D01*
X500000Y6193665D01*
X500000Y55245001D01*
X2519504Y55245001D01*
X2539451Y55017001D01*
X2598686Y54795930D01*
X2695412Y54588503D01*
X2745399Y54517113D01*
X3433772Y55205486D01*
X3447335Y55119852D01*
X3504859Y55006955D01*
X3594455Y54917359D01*
X3707352Y54859835D01*
X3792982Y54846273D01*
X3104610Y54157902D01*
X3104610Y54157900D01*
X3175997Y54107915D01*
X3383429Y54011187D01*
X3604500Y53951952D01*
X3832500Y53932005D01*
X4060499Y53951952D01*
X4281570Y54011187D01*
X4488998Y54107913D01*
X4560388Y54157901D01*
X4560388Y54157903D01*
X3872018Y54846273D01*
X3957648Y54859835D01*
X4070545Y54917359D01*
X4160141Y55006955D01*
X4217665Y55119852D01*
X4231227Y55205484D01*
X4919598Y54517112D01*
X4919599Y54517112D01*
X4969587Y54588502D01*
X5054765Y54771166D01*
X5101682Y54824451D01*
X5169959Y54843912D01*
X5237919Y54823370D01*
X5281749Y54774081D01*
X5281751Y54774078D01*
X5350135Y54636743D01*
X5386564Y54588504D01*
X5478628Y54466593D01*
X5636198Y54322948D01*
X5817478Y54210703D01*
X5859099Y54194579D01*
X6016302Y54133679D01*
X6225890Y54094500D01*
X6225892Y54094500D01*
X6439108Y54094500D01*
X6439110Y54094500D01*
X6648698Y54133679D01*
X6847519Y54210702D01*
X7028802Y54322948D01*
X7186372Y54466593D01*
X7314866Y54636745D01*
X7409905Y54827611D01*
X7468256Y55032690D01*
X7487929Y55245000D01*
X7487929Y55245001D01*
X26784571Y55245001D01*
X26804244Y55032688D01*
X26862594Y54827613D01*
X26957635Y54636743D01*
X26994064Y54588504D01*
X27086128Y54466593D01*
X27243698Y54322948D01*
X27424978Y54210703D01*
X27466599Y54194579D01*
X27623802Y54133679D01*
X27833390Y54094500D01*
X27833392Y54094500D01*
X28046608Y54094500D01*
X28046610Y54094500D01*
X28256198Y54133679D01*
X28455019Y54210702D01*
X28636302Y54322948D01*
X28793872Y54466593D01*
X28922366Y54636745D01*
X29017405Y54827611D01*
X29075756Y55032690D01*
X29095429Y55245000D01*
X29075756Y55457310D01*
X29017405Y55662389D01*
X28922366Y55853255D01*
X28793872Y56023407D01*
X28636302Y56167052D01*
X28636301Y56167053D01*
X28455021Y56279298D01*
X28256198Y56356321D01*
X28256198Y56356322D01*
X28046610Y56395500D01*
X27833390Y56395500D01*
X27726550Y56375528D01*
X27623801Y56356321D01*
X27424978Y56279298D01*
X27243698Y56167053D01*
X27086127Y56023406D01*
X26957635Y55853258D01*
X26862594Y55662388D01*
X26804244Y55457313D01*
X26784571Y55245001D01*
X7487929Y55245001D01*
X7468256Y55457310D01*
X7409905Y55662389D01*
X7314866Y55853255D01*
X7186372Y56023407D01*
X7028802Y56167052D01*
X7028801Y56167053D01*
X6847521Y56279298D01*
X6648698Y56356321D01*
X6439110Y56395500D01*
X6225890Y56395500D01*
X6119050Y56375528D01*
X6016301Y56356321D01*
X5817478Y56279298D01*
X5636198Y56167053D01*
X5478627Y56023406D01*
X5350135Y55853258D01*
X5281751Y55715922D01*
X5233482Y55663859D01*
X5164727Y55646156D01*
X5097317Y55668435D01*
X5054765Y55718835D01*
X4969585Y55901503D01*
X4919600Y55972890D01*
X4919597Y55972890D01*
X4231226Y55284520D01*
X4217665Y55370148D01*
X4160141Y55483045D01*
X4070545Y55572641D01*
X3957648Y55630165D01*
X3872014Y55643728D01*
X4560388Y56332101D01*
X4488997Y56382088D01*
X4281570Y56478814D01*
X4060499Y56538049D01*
X3832499Y56557996D01*
X3604500Y56538049D01*
X3383429Y56478814D01*
X3175999Y56382087D01*
X3104609Y56332101D01*
X3792983Y55643728D01*
X3707352Y55630165D01*
X3594455Y55572641D01*
X3504859Y55483045D01*
X3447335Y55370148D01*
X3433772Y55284519D01*
X2745399Y55972891D01*
X2695413Y55901501D01*
X2598686Y55694071D01*
X2539451Y55473000D01*
X2519504Y55245001D01*
X500000Y55245001D01*
X500000Y56005512D01*
X520002Y56073633D01*
X539701Y56097319D01*
X945547Y56478814D01*
X1463625Y56965808D01*
X1526959Y56997890D01*
X1549923Y57000000D01*
X44950077Y57000000D01*
X45018198Y56979998D01*
G37*
G04 #@! TD.AperFunction*
M02*
