G04 #@! TF.GenerationSoftware,KiCad,Pcbnew,7.0.2-0*
G04 #@! TF.CreationDate,2023-04-20T01:12:48+09:00*
G04 #@! TF.ProjectId,MEZ6809RAMI,4d455a36-3830-4395-9241-4d492e6b6963,A*
G04 #@! TF.SameCoordinates,PX5f5e100PY8f0d180*
G04 #@! TF.FileFunction,Legend,Top*
G04 #@! TF.FilePolarity,Positive*
%FSLAX46Y46*%
G04 Gerber Fmt 4.6, Leading zero omitted, Abs format (unit mm)*
G04 Created by KiCad (PCBNEW 7.0.2-0) date 2023-04-20 01:12:48*
%MOMM*%
%LPD*%
G01*
G04 APERTURE LIST*
%ADD10C,0.150000*%
%ADD11C,0.120000*%
G04 APERTURE END LIST*
D10*
X7589048Y54782381D02*
X7589048Y55782381D01*
X7589048Y55782381D02*
X7922381Y55068096D01*
X7922381Y55068096D02*
X8255714Y55782381D01*
X8255714Y55782381D02*
X8255714Y54782381D01*
X8731905Y55306191D02*
X9065238Y55306191D01*
X9208095Y54782381D02*
X8731905Y54782381D01*
X8731905Y54782381D02*
X8731905Y55782381D01*
X8731905Y55782381D02*
X9208095Y55782381D01*
X9541429Y55782381D02*
X10208095Y55782381D01*
X10208095Y55782381D02*
X9541429Y54782381D01*
X9541429Y54782381D02*
X10208095Y54782381D01*
X11017619Y55782381D02*
X10827143Y55782381D01*
X10827143Y55782381D02*
X10731905Y55734762D01*
X10731905Y55734762D02*
X10684286Y55687143D01*
X10684286Y55687143D02*
X10589048Y55544286D01*
X10589048Y55544286D02*
X10541429Y55353810D01*
X10541429Y55353810D02*
X10541429Y54972858D01*
X10541429Y54972858D02*
X10589048Y54877620D01*
X10589048Y54877620D02*
X10636667Y54830000D01*
X10636667Y54830000D02*
X10731905Y54782381D01*
X10731905Y54782381D02*
X10922381Y54782381D01*
X10922381Y54782381D02*
X11017619Y54830000D01*
X11017619Y54830000D02*
X11065238Y54877620D01*
X11065238Y54877620D02*
X11112857Y54972858D01*
X11112857Y54972858D02*
X11112857Y55210953D01*
X11112857Y55210953D02*
X11065238Y55306191D01*
X11065238Y55306191D02*
X11017619Y55353810D01*
X11017619Y55353810D02*
X10922381Y55401429D01*
X10922381Y55401429D02*
X10731905Y55401429D01*
X10731905Y55401429D02*
X10636667Y55353810D01*
X10636667Y55353810D02*
X10589048Y55306191D01*
X10589048Y55306191D02*
X10541429Y55210953D01*
X11684286Y55353810D02*
X11589048Y55401429D01*
X11589048Y55401429D02*
X11541429Y55449048D01*
X11541429Y55449048D02*
X11493810Y55544286D01*
X11493810Y55544286D02*
X11493810Y55591905D01*
X11493810Y55591905D02*
X11541429Y55687143D01*
X11541429Y55687143D02*
X11589048Y55734762D01*
X11589048Y55734762D02*
X11684286Y55782381D01*
X11684286Y55782381D02*
X11874762Y55782381D01*
X11874762Y55782381D02*
X11970000Y55734762D01*
X11970000Y55734762D02*
X12017619Y55687143D01*
X12017619Y55687143D02*
X12065238Y55591905D01*
X12065238Y55591905D02*
X12065238Y55544286D01*
X12065238Y55544286D02*
X12017619Y55449048D01*
X12017619Y55449048D02*
X11970000Y55401429D01*
X11970000Y55401429D02*
X11874762Y55353810D01*
X11874762Y55353810D02*
X11684286Y55353810D01*
X11684286Y55353810D02*
X11589048Y55306191D01*
X11589048Y55306191D02*
X11541429Y55258572D01*
X11541429Y55258572D02*
X11493810Y55163334D01*
X11493810Y55163334D02*
X11493810Y54972858D01*
X11493810Y54972858D02*
X11541429Y54877620D01*
X11541429Y54877620D02*
X11589048Y54830000D01*
X11589048Y54830000D02*
X11684286Y54782381D01*
X11684286Y54782381D02*
X11874762Y54782381D01*
X11874762Y54782381D02*
X11970000Y54830000D01*
X11970000Y54830000D02*
X12017619Y54877620D01*
X12017619Y54877620D02*
X12065238Y54972858D01*
X12065238Y54972858D02*
X12065238Y55163334D01*
X12065238Y55163334D02*
X12017619Y55258572D01*
X12017619Y55258572D02*
X11970000Y55306191D01*
X11970000Y55306191D02*
X11874762Y55353810D01*
X12684286Y55782381D02*
X12779524Y55782381D01*
X12779524Y55782381D02*
X12874762Y55734762D01*
X12874762Y55734762D02*
X12922381Y55687143D01*
X12922381Y55687143D02*
X12970000Y55591905D01*
X12970000Y55591905D02*
X13017619Y55401429D01*
X13017619Y55401429D02*
X13017619Y55163334D01*
X13017619Y55163334D02*
X12970000Y54972858D01*
X12970000Y54972858D02*
X12922381Y54877620D01*
X12922381Y54877620D02*
X12874762Y54830000D01*
X12874762Y54830000D02*
X12779524Y54782381D01*
X12779524Y54782381D02*
X12684286Y54782381D01*
X12684286Y54782381D02*
X12589048Y54830000D01*
X12589048Y54830000D02*
X12541429Y54877620D01*
X12541429Y54877620D02*
X12493810Y54972858D01*
X12493810Y54972858D02*
X12446191Y55163334D01*
X12446191Y55163334D02*
X12446191Y55401429D01*
X12446191Y55401429D02*
X12493810Y55591905D01*
X12493810Y55591905D02*
X12541429Y55687143D01*
X12541429Y55687143D02*
X12589048Y55734762D01*
X12589048Y55734762D02*
X12684286Y55782381D01*
X13493810Y54782381D02*
X13684286Y54782381D01*
X13684286Y54782381D02*
X13779524Y54830000D01*
X13779524Y54830000D02*
X13827143Y54877620D01*
X13827143Y54877620D02*
X13922381Y55020477D01*
X13922381Y55020477D02*
X13970000Y55210953D01*
X13970000Y55210953D02*
X13970000Y55591905D01*
X13970000Y55591905D02*
X13922381Y55687143D01*
X13922381Y55687143D02*
X13874762Y55734762D01*
X13874762Y55734762D02*
X13779524Y55782381D01*
X13779524Y55782381D02*
X13589048Y55782381D01*
X13589048Y55782381D02*
X13493810Y55734762D01*
X13493810Y55734762D02*
X13446191Y55687143D01*
X13446191Y55687143D02*
X13398572Y55591905D01*
X13398572Y55591905D02*
X13398572Y55353810D01*
X13398572Y55353810D02*
X13446191Y55258572D01*
X13446191Y55258572D02*
X13493810Y55210953D01*
X13493810Y55210953D02*
X13589048Y55163334D01*
X13589048Y55163334D02*
X13779524Y55163334D01*
X13779524Y55163334D02*
X13874762Y55210953D01*
X13874762Y55210953D02*
X13922381Y55258572D01*
X13922381Y55258572D02*
X13970000Y55353810D01*
X14970000Y54782381D02*
X14636667Y55258572D01*
X14398572Y54782381D02*
X14398572Y55782381D01*
X14398572Y55782381D02*
X14779524Y55782381D01*
X14779524Y55782381D02*
X14874762Y55734762D01*
X14874762Y55734762D02*
X14922381Y55687143D01*
X14922381Y55687143D02*
X14970000Y55591905D01*
X14970000Y55591905D02*
X14970000Y55449048D01*
X14970000Y55449048D02*
X14922381Y55353810D01*
X14922381Y55353810D02*
X14874762Y55306191D01*
X14874762Y55306191D02*
X14779524Y55258572D01*
X14779524Y55258572D02*
X14398572Y55258572D01*
X15350953Y55068096D02*
X15827143Y55068096D01*
X15255715Y54782381D02*
X15589048Y55782381D01*
X15589048Y55782381D02*
X15922381Y54782381D01*
X16255715Y54782381D02*
X16255715Y55782381D01*
X16255715Y55782381D02*
X16589048Y55068096D01*
X16589048Y55068096D02*
X16922381Y55782381D01*
X16922381Y55782381D02*
X16922381Y54782381D01*
X17160477Y54687143D02*
X17922381Y54687143D01*
X18160477Y54782381D02*
X18160477Y55782381D01*
X18160477Y55782381D02*
X18731905Y54782381D01*
X18731905Y54782381D02*
X18731905Y55782381D01*
X19208096Y54782381D02*
X19208096Y55782381D01*
X19208096Y55782381D02*
X19541429Y55068096D01*
X19541429Y55068096D02*
X19874762Y55782381D01*
X19874762Y55782381D02*
X19874762Y54782381D01*
X20350953Y54782381D02*
X20350953Y55782381D01*
X31917143Y39907381D02*
X32488571Y39907381D01*
X32202857Y38907381D02*
X32202857Y39907381D01*
X33393333Y39002620D02*
X33345714Y38955000D01*
X33345714Y38955000D02*
X33202857Y38907381D01*
X33202857Y38907381D02*
X33107619Y38907381D01*
X33107619Y38907381D02*
X32964762Y38955000D01*
X32964762Y38955000D02*
X32869524Y39050239D01*
X32869524Y39050239D02*
X32821905Y39145477D01*
X32821905Y39145477D02*
X32774286Y39335953D01*
X32774286Y39335953D02*
X32774286Y39478810D01*
X32774286Y39478810D02*
X32821905Y39669286D01*
X32821905Y39669286D02*
X32869524Y39764524D01*
X32869524Y39764524D02*
X32964762Y39859762D01*
X32964762Y39859762D02*
X33107619Y39907381D01*
X33107619Y39907381D02*
X33202857Y39907381D01*
X33202857Y39907381D02*
X33345714Y39859762D01*
X33345714Y39859762D02*
X33393333Y39812143D01*
X34298095Y39907381D02*
X33821905Y39907381D01*
X33821905Y39907381D02*
X33774286Y39431191D01*
X33774286Y39431191D02*
X33821905Y39478810D01*
X33821905Y39478810D02*
X33917143Y39526429D01*
X33917143Y39526429D02*
X34155238Y39526429D01*
X34155238Y39526429D02*
X34250476Y39478810D01*
X34250476Y39478810D02*
X34298095Y39431191D01*
X34298095Y39431191D02*
X34345714Y39335953D01*
X34345714Y39335953D02*
X34345714Y39097858D01*
X34345714Y39097858D02*
X34298095Y39002620D01*
X34298095Y39002620D02*
X34250476Y38955000D01*
X34250476Y38955000D02*
X34155238Y38907381D01*
X34155238Y38907381D02*
X33917143Y38907381D01*
X33917143Y38907381D02*
X33821905Y38955000D01*
X33821905Y38955000D02*
X33774286Y39002620D01*
X35250476Y39907381D02*
X34774286Y39907381D01*
X34774286Y39907381D02*
X34726667Y39431191D01*
X34726667Y39431191D02*
X34774286Y39478810D01*
X34774286Y39478810D02*
X34869524Y39526429D01*
X34869524Y39526429D02*
X35107619Y39526429D01*
X35107619Y39526429D02*
X35202857Y39478810D01*
X35202857Y39478810D02*
X35250476Y39431191D01*
X35250476Y39431191D02*
X35298095Y39335953D01*
X35298095Y39335953D02*
X35298095Y39097858D01*
X35298095Y39097858D02*
X35250476Y39002620D01*
X35250476Y39002620D02*
X35202857Y38955000D01*
X35202857Y38955000D02*
X35107619Y38907381D01*
X35107619Y38907381D02*
X34869524Y38907381D01*
X34869524Y38907381D02*
X34774286Y38955000D01*
X34774286Y38955000D02*
X34726667Y39002620D01*
X36250476Y38907381D02*
X35679048Y38907381D01*
X35964762Y38907381D02*
X35964762Y39907381D01*
X35964762Y39907381D02*
X35869524Y39764524D01*
X35869524Y39764524D02*
X35774286Y39669286D01*
X35774286Y39669286D02*
X35679048Y39621667D01*
X36869524Y39907381D02*
X36964762Y39907381D01*
X36964762Y39907381D02*
X37060000Y39859762D01*
X37060000Y39859762D02*
X37107619Y39812143D01*
X37107619Y39812143D02*
X37155238Y39716905D01*
X37155238Y39716905D02*
X37202857Y39526429D01*
X37202857Y39526429D02*
X37202857Y39288334D01*
X37202857Y39288334D02*
X37155238Y39097858D01*
X37155238Y39097858D02*
X37107619Y39002620D01*
X37107619Y39002620D02*
X37060000Y38955000D01*
X37060000Y38955000D02*
X36964762Y38907381D01*
X36964762Y38907381D02*
X36869524Y38907381D01*
X36869524Y38907381D02*
X36774286Y38955000D01*
X36774286Y38955000D02*
X36726667Y39002620D01*
X36726667Y39002620D02*
X36679048Y39097858D01*
X36679048Y39097858D02*
X36631429Y39288334D01*
X36631429Y39288334D02*
X36631429Y39526429D01*
X36631429Y39526429D02*
X36679048Y39716905D01*
X36679048Y39716905D02*
X36726667Y39812143D01*
X36726667Y39812143D02*
X36774286Y39859762D01*
X36774286Y39859762D02*
X36869524Y39907381D01*
X37821905Y39907381D02*
X37917143Y39907381D01*
X37917143Y39907381D02*
X38012381Y39859762D01*
X38012381Y39859762D02*
X38060000Y39812143D01*
X38060000Y39812143D02*
X38107619Y39716905D01*
X38107619Y39716905D02*
X38155238Y39526429D01*
X38155238Y39526429D02*
X38155238Y39288334D01*
X38155238Y39288334D02*
X38107619Y39097858D01*
X38107619Y39097858D02*
X38060000Y39002620D01*
X38060000Y39002620D02*
X38012381Y38955000D01*
X38012381Y38955000D02*
X37917143Y38907381D01*
X37917143Y38907381D02*
X37821905Y38907381D01*
X37821905Y38907381D02*
X37726667Y38955000D01*
X37726667Y38955000D02*
X37679048Y39002620D01*
X37679048Y39002620D02*
X37631429Y39097858D01*
X37631429Y39097858D02*
X37583810Y39288334D01*
X37583810Y39288334D02*
X37583810Y39526429D01*
X37583810Y39526429D02*
X37631429Y39716905D01*
X37631429Y39716905D02*
X37679048Y39812143D01*
X37679048Y39812143D02*
X37726667Y39859762D01*
X37726667Y39859762D02*
X37821905Y39907381D01*
X39107619Y38907381D02*
X38536191Y38907381D01*
X38821905Y38907381D02*
X38821905Y39907381D01*
X38821905Y39907381D02*
X38726667Y39764524D01*
X38726667Y39764524D02*
X38631429Y39669286D01*
X38631429Y39669286D02*
X38536191Y39621667D01*
X11231905Y38907381D02*
X11231905Y39907381D01*
X11231905Y39907381D02*
X11565238Y39193096D01*
X11565238Y39193096D02*
X11898571Y39907381D01*
X11898571Y39907381D02*
X11898571Y38907381D01*
X12946190Y39002620D02*
X12898571Y38955000D01*
X12898571Y38955000D02*
X12755714Y38907381D01*
X12755714Y38907381D02*
X12660476Y38907381D01*
X12660476Y38907381D02*
X12517619Y38955000D01*
X12517619Y38955000D02*
X12422381Y39050239D01*
X12422381Y39050239D02*
X12374762Y39145477D01*
X12374762Y39145477D02*
X12327143Y39335953D01*
X12327143Y39335953D02*
X12327143Y39478810D01*
X12327143Y39478810D02*
X12374762Y39669286D01*
X12374762Y39669286D02*
X12422381Y39764524D01*
X12422381Y39764524D02*
X12517619Y39859762D01*
X12517619Y39859762D02*
X12660476Y39907381D01*
X12660476Y39907381D02*
X12755714Y39907381D01*
X12755714Y39907381D02*
X12898571Y39859762D01*
X12898571Y39859762D02*
X12946190Y39812143D01*
X13803333Y39907381D02*
X13612857Y39907381D01*
X13612857Y39907381D02*
X13517619Y39859762D01*
X13517619Y39859762D02*
X13470000Y39812143D01*
X13470000Y39812143D02*
X13374762Y39669286D01*
X13374762Y39669286D02*
X13327143Y39478810D01*
X13327143Y39478810D02*
X13327143Y39097858D01*
X13327143Y39097858D02*
X13374762Y39002620D01*
X13374762Y39002620D02*
X13422381Y38955000D01*
X13422381Y38955000D02*
X13517619Y38907381D01*
X13517619Y38907381D02*
X13708095Y38907381D01*
X13708095Y38907381D02*
X13803333Y38955000D01*
X13803333Y38955000D02*
X13850952Y39002620D01*
X13850952Y39002620D02*
X13898571Y39097858D01*
X13898571Y39097858D02*
X13898571Y39335953D01*
X13898571Y39335953D02*
X13850952Y39431191D01*
X13850952Y39431191D02*
X13803333Y39478810D01*
X13803333Y39478810D02*
X13708095Y39526429D01*
X13708095Y39526429D02*
X13517619Y39526429D01*
X13517619Y39526429D02*
X13422381Y39478810D01*
X13422381Y39478810D02*
X13374762Y39431191D01*
X13374762Y39431191D02*
X13327143Y39335953D01*
X14470000Y39478810D02*
X14374762Y39526429D01*
X14374762Y39526429D02*
X14327143Y39574048D01*
X14327143Y39574048D02*
X14279524Y39669286D01*
X14279524Y39669286D02*
X14279524Y39716905D01*
X14279524Y39716905D02*
X14327143Y39812143D01*
X14327143Y39812143D02*
X14374762Y39859762D01*
X14374762Y39859762D02*
X14470000Y39907381D01*
X14470000Y39907381D02*
X14660476Y39907381D01*
X14660476Y39907381D02*
X14755714Y39859762D01*
X14755714Y39859762D02*
X14803333Y39812143D01*
X14803333Y39812143D02*
X14850952Y39716905D01*
X14850952Y39716905D02*
X14850952Y39669286D01*
X14850952Y39669286D02*
X14803333Y39574048D01*
X14803333Y39574048D02*
X14755714Y39526429D01*
X14755714Y39526429D02*
X14660476Y39478810D01*
X14660476Y39478810D02*
X14470000Y39478810D01*
X14470000Y39478810D02*
X14374762Y39431191D01*
X14374762Y39431191D02*
X14327143Y39383572D01*
X14327143Y39383572D02*
X14279524Y39288334D01*
X14279524Y39288334D02*
X14279524Y39097858D01*
X14279524Y39097858D02*
X14327143Y39002620D01*
X14327143Y39002620D02*
X14374762Y38955000D01*
X14374762Y38955000D02*
X14470000Y38907381D01*
X14470000Y38907381D02*
X14660476Y38907381D01*
X14660476Y38907381D02*
X14755714Y38955000D01*
X14755714Y38955000D02*
X14803333Y39002620D01*
X14803333Y39002620D02*
X14850952Y39097858D01*
X14850952Y39097858D02*
X14850952Y39288334D01*
X14850952Y39288334D02*
X14803333Y39383572D01*
X14803333Y39383572D02*
X14755714Y39431191D01*
X14755714Y39431191D02*
X14660476Y39478810D01*
X15470000Y39907381D02*
X15565238Y39907381D01*
X15565238Y39907381D02*
X15660476Y39859762D01*
X15660476Y39859762D02*
X15708095Y39812143D01*
X15708095Y39812143D02*
X15755714Y39716905D01*
X15755714Y39716905D02*
X15803333Y39526429D01*
X15803333Y39526429D02*
X15803333Y39288334D01*
X15803333Y39288334D02*
X15755714Y39097858D01*
X15755714Y39097858D02*
X15708095Y39002620D01*
X15708095Y39002620D02*
X15660476Y38955000D01*
X15660476Y38955000D02*
X15565238Y38907381D01*
X15565238Y38907381D02*
X15470000Y38907381D01*
X15470000Y38907381D02*
X15374762Y38955000D01*
X15374762Y38955000D02*
X15327143Y39002620D01*
X15327143Y39002620D02*
X15279524Y39097858D01*
X15279524Y39097858D02*
X15231905Y39288334D01*
X15231905Y39288334D02*
X15231905Y39526429D01*
X15231905Y39526429D02*
X15279524Y39716905D01*
X15279524Y39716905D02*
X15327143Y39812143D01*
X15327143Y39812143D02*
X15374762Y39859762D01*
X15374762Y39859762D02*
X15470000Y39907381D01*
X16279524Y38907381D02*
X16470000Y38907381D01*
X16470000Y38907381D02*
X16565238Y38955000D01*
X16565238Y38955000D02*
X16612857Y39002620D01*
X16612857Y39002620D02*
X16708095Y39145477D01*
X16708095Y39145477D02*
X16755714Y39335953D01*
X16755714Y39335953D02*
X16755714Y39716905D01*
X16755714Y39716905D02*
X16708095Y39812143D01*
X16708095Y39812143D02*
X16660476Y39859762D01*
X16660476Y39859762D02*
X16565238Y39907381D01*
X16565238Y39907381D02*
X16374762Y39907381D01*
X16374762Y39907381D02*
X16279524Y39859762D01*
X16279524Y39859762D02*
X16231905Y39812143D01*
X16231905Y39812143D02*
X16184286Y39716905D01*
X16184286Y39716905D02*
X16184286Y39478810D01*
X16184286Y39478810D02*
X16231905Y39383572D01*
X16231905Y39383572D02*
X16279524Y39335953D01*
X16279524Y39335953D02*
X16374762Y39288334D01*
X16374762Y39288334D02*
X16565238Y39288334D01*
X16565238Y39288334D02*
X16660476Y39335953D01*
X16660476Y39335953D02*
X16708095Y39383572D01*
X16708095Y39383572D02*
X16755714Y39478810D01*
X9350951Y3712381D02*
X9350951Y2998096D01*
X9350951Y2998096D02*
X9303332Y2855239D01*
X9303332Y2855239D02*
X9208094Y2760000D01*
X9208094Y2760000D02*
X9065237Y2712381D01*
X9065237Y2712381D02*
X8969999Y2712381D01*
X10303332Y2712381D02*
X9827142Y2712381D01*
X9827142Y2712381D02*
X9827142Y3712381D01*
X11208094Y2807620D02*
X11160475Y2760000D01*
X11160475Y2760000D02*
X11017618Y2712381D01*
X11017618Y2712381D02*
X10922380Y2712381D01*
X10922380Y2712381D02*
X10779523Y2760000D01*
X10779523Y2760000D02*
X10684285Y2855239D01*
X10684285Y2855239D02*
X10636666Y2950477D01*
X10636666Y2950477D02*
X10589047Y3140953D01*
X10589047Y3140953D02*
X10589047Y3283810D01*
X10589047Y3283810D02*
X10636666Y3474286D01*
X10636666Y3474286D02*
X10684285Y3569524D01*
X10684285Y3569524D02*
X10779523Y3664762D01*
X10779523Y3664762D02*
X10922380Y3712381D01*
X10922380Y3712381D02*
X11017618Y3712381D01*
X11017618Y3712381D02*
X11160475Y3664762D01*
X11160475Y3664762D02*
X11208094Y3617143D01*
X11922380Y3712381D02*
X11922380Y2998096D01*
X11922380Y2998096D02*
X11874761Y2855239D01*
X11874761Y2855239D02*
X11779523Y2760000D01*
X11779523Y2760000D02*
X11636666Y2712381D01*
X11636666Y2712381D02*
X11541428Y2712381D01*
X12874761Y2712381D02*
X12398571Y2712381D01*
X12398571Y2712381D02*
X12398571Y3712381D01*
X13779523Y2807620D02*
X13731904Y2760000D01*
X13731904Y2760000D02*
X13589047Y2712381D01*
X13589047Y2712381D02*
X13493809Y2712381D01*
X13493809Y2712381D02*
X13350952Y2760000D01*
X13350952Y2760000D02*
X13255714Y2855239D01*
X13255714Y2855239D02*
X13208095Y2950477D01*
X13208095Y2950477D02*
X13160476Y3140953D01*
X13160476Y3140953D02*
X13160476Y3283810D01*
X13160476Y3283810D02*
X13208095Y3474286D01*
X13208095Y3474286D02*
X13255714Y3569524D01*
X13255714Y3569524D02*
X13350952Y3664762D01*
X13350952Y3664762D02*
X13493809Y3712381D01*
X13493809Y3712381D02*
X13589047Y3712381D01*
X13589047Y3712381D02*
X13731904Y3664762D01*
X13731904Y3664762D02*
X13779523Y3617143D01*
X14493809Y3712381D02*
X14493809Y2998096D01*
X14493809Y2998096D02*
X14446190Y2855239D01*
X14446190Y2855239D02*
X14350952Y2760000D01*
X14350952Y2760000D02*
X14208095Y2712381D01*
X14208095Y2712381D02*
X14112857Y2712381D01*
X15446190Y2712381D02*
X14970000Y2712381D01*
X14970000Y2712381D02*
X14970000Y3712381D01*
X16350952Y2807620D02*
X16303333Y2760000D01*
X16303333Y2760000D02*
X16160476Y2712381D01*
X16160476Y2712381D02*
X16065238Y2712381D01*
X16065238Y2712381D02*
X15922381Y2760000D01*
X15922381Y2760000D02*
X15827143Y2855239D01*
X15827143Y2855239D02*
X15779524Y2950477D01*
X15779524Y2950477D02*
X15731905Y3140953D01*
X15731905Y3140953D02*
X15731905Y3283810D01*
X15731905Y3283810D02*
X15779524Y3474286D01*
X15779524Y3474286D02*
X15827143Y3569524D01*
X15827143Y3569524D02*
X15922381Y3664762D01*
X15922381Y3664762D02*
X16065238Y3712381D01*
X16065238Y3712381D02*
X16160476Y3712381D01*
X16160476Y3712381D02*
X16303333Y3664762D01*
X16303333Y3664762D02*
X16350952Y3617143D01*
X17065238Y3712381D02*
X17065238Y2998096D01*
X17065238Y2998096D02*
X17017619Y2855239D01*
X17017619Y2855239D02*
X16922381Y2760000D01*
X16922381Y2760000D02*
X16779524Y2712381D01*
X16779524Y2712381D02*
X16684286Y2712381D01*
X18017619Y2712381D02*
X17541429Y2712381D01*
X17541429Y2712381D02*
X17541429Y3712381D01*
X18922381Y2807620D02*
X18874762Y2760000D01*
X18874762Y2760000D02*
X18731905Y2712381D01*
X18731905Y2712381D02*
X18636667Y2712381D01*
X18636667Y2712381D02*
X18493810Y2760000D01*
X18493810Y2760000D02*
X18398572Y2855239D01*
X18398572Y2855239D02*
X18350953Y2950477D01*
X18350953Y2950477D02*
X18303334Y3140953D01*
X18303334Y3140953D02*
X18303334Y3283810D01*
X18303334Y3283810D02*
X18350953Y3474286D01*
X18350953Y3474286D02*
X18398572Y3569524D01*
X18398572Y3569524D02*
X18493810Y3664762D01*
X18493810Y3664762D02*
X18636667Y3712381D01*
X18636667Y3712381D02*
X18731905Y3712381D01*
X18731905Y3712381D02*
X18874762Y3664762D01*
X18874762Y3664762D02*
X18922381Y3617143D01*
X13208095Y32922381D02*
X13208095Y32112858D01*
X13208095Y32112858D02*
X13255714Y32017620D01*
X13255714Y32017620D02*
X13303333Y31970000D01*
X13303333Y31970000D02*
X13398571Y31922381D01*
X13398571Y31922381D02*
X13589047Y31922381D01*
X13589047Y31922381D02*
X13684285Y31970000D01*
X13684285Y31970000D02*
X13731904Y32017620D01*
X13731904Y32017620D02*
X13779523Y32112858D01*
X13779523Y32112858D02*
X13779523Y32922381D01*
X14779523Y31922381D02*
X14208095Y31922381D01*
X14493809Y31922381D02*
X14493809Y32922381D01*
X14493809Y32922381D02*
X14398571Y32779524D01*
X14398571Y32779524D02*
X14303333Y32684286D01*
X14303333Y32684286D02*
X14208095Y32636667D01*
X34798095Y32922381D02*
X34798095Y32112858D01*
X34798095Y32112858D02*
X34845714Y32017620D01*
X34845714Y32017620D02*
X34893333Y31970000D01*
X34893333Y31970000D02*
X34988571Y31922381D01*
X34988571Y31922381D02*
X35179047Y31922381D01*
X35179047Y31922381D02*
X35274285Y31970000D01*
X35274285Y31970000D02*
X35321904Y32017620D01*
X35321904Y32017620D02*
X35369523Y32112858D01*
X35369523Y32112858D02*
X35369523Y32922381D01*
X35798095Y32827143D02*
X35845714Y32874762D01*
X35845714Y32874762D02*
X35940952Y32922381D01*
X35940952Y32922381D02*
X36179047Y32922381D01*
X36179047Y32922381D02*
X36274285Y32874762D01*
X36274285Y32874762D02*
X36321904Y32827143D01*
X36321904Y32827143D02*
X36369523Y32731905D01*
X36369523Y32731905D02*
X36369523Y32636667D01*
X36369523Y32636667D02*
X36321904Y32493810D01*
X36321904Y32493810D02*
X35750476Y31922381D01*
X35750476Y31922381D02*
X36369523Y31922381D01*
D11*
X7102500Y53825000D02*
X7102500Y54450000D01*
X7102500Y53825000D02*
X3062500Y53825000D01*
X7102500Y56040000D02*
X7102500Y56665000D01*
X7102500Y56665000D02*
X3062500Y56665000D01*
X3062500Y53825000D02*
X3062500Y54450000D01*
X3062500Y56040000D02*
X3062500Y56665000D01*
X7507500Y52765000D02*
X7507500Y1845000D01*
X7507500Y1845000D02*
X20427500Y1845000D01*
X12967500Y52765000D02*
X7507500Y52765000D01*
X20427500Y52765000D02*
X14967500Y52765000D01*
X20427500Y1845000D02*
X20427500Y52765000D01*
X12967500Y52765000D02*
G75*
G03*
X14967500Y52765000I1000000J0D01*
G01*
X28980000Y55245000D02*
X29750000Y55245000D01*
X29750000Y56615000D02*
X29750000Y53875000D01*
X29750000Y53875000D02*
X36290000Y53875000D01*
X36290000Y56615000D02*
X29750000Y56615000D01*
X36290000Y53875000D02*
X36290000Y56615000D01*
X37060000Y55245000D02*
X36290000Y55245000D01*
X39892500Y56665000D02*
X39892500Y56040000D01*
X39892500Y56665000D02*
X43932500Y56665000D01*
X39892500Y54450000D02*
X39892500Y53825000D01*
X39892500Y53825000D02*
X43932500Y53825000D01*
X43932500Y56665000D02*
X43932500Y56040000D01*
X43932500Y54450000D02*
X43932500Y53825000D01*
X29097500Y52770000D02*
X29097500Y12010000D01*
X29097500Y12010000D02*
X42017500Y12010000D01*
X34557500Y52770000D02*
X29097500Y52770000D01*
X42017500Y52770000D02*
X36557500Y52770000D01*
X42017500Y12010000D02*
X42017500Y52770000D01*
X34557500Y52770000D02*
G75*
G03*
X36557500Y52770000I1000000J0D01*
G01*
M02*
