G04 #@! TF.GenerationSoftware,KiCad,Pcbnew,7.0.2-0*
G04 #@! TF.CreationDate,2023-04-20T01:12:48+09:00*
G04 #@! TF.ProjectId,MEZ6809RAMI,4d455a36-3830-4395-9241-4d492e6b6963,A*
G04 #@! TF.SameCoordinates,PX5f5e100PY8f0d180*
G04 #@! TF.FileFunction,Legend,Bot*
G04 #@! TF.FilePolarity,Positive*
%FSLAX46Y46*%
G04 Gerber Fmt 4.6, Leading zero omitted, Abs format (unit mm)*
G04 Created by KiCad (PCBNEW 7.0.2-0) date 2023-04-20 01:12:48*
%MOMM*%
%LPD*%
G01*
G04 APERTURE LIST*
%ADD10C,0.150000*%
%ADD11C,0.120000*%
G04 APERTURE END LIST*
D10*
X19348690Y46892381D02*
X19539166Y46892381D01*
X19539166Y46892381D02*
X19634404Y46844762D01*
X19634404Y46844762D02*
X19682023Y46797143D01*
X19682023Y46797143D02*
X19777261Y46654286D01*
X19777261Y46654286D02*
X19824880Y46463810D01*
X19824880Y46463810D02*
X19824880Y46082858D01*
X19824880Y46082858D02*
X19777261Y45987620D01*
X19777261Y45987620D02*
X19729642Y45940000D01*
X19729642Y45940000D02*
X19634404Y45892381D01*
X19634404Y45892381D02*
X19443928Y45892381D01*
X19443928Y45892381D02*
X19348690Y45940000D01*
X19348690Y45940000D02*
X19301071Y45987620D01*
X19301071Y45987620D02*
X19253452Y46082858D01*
X19253452Y46082858D02*
X19253452Y46320953D01*
X19253452Y46320953D02*
X19301071Y46416191D01*
X19301071Y46416191D02*
X19348690Y46463810D01*
X19348690Y46463810D02*
X19443928Y46511429D01*
X19443928Y46511429D02*
X19634404Y46511429D01*
X19634404Y46511429D02*
X19729642Y46463810D01*
X19729642Y46463810D02*
X19777261Y46416191D01*
X19777261Y46416191D02*
X19824880Y46320953D01*
X18920118Y46892381D02*
X18301071Y46892381D01*
X18301071Y46892381D02*
X18634404Y46511429D01*
X18634404Y46511429D02*
X18491547Y46511429D01*
X18491547Y46511429D02*
X18396309Y46463810D01*
X18396309Y46463810D02*
X18348690Y46416191D01*
X18348690Y46416191D02*
X18301071Y46320953D01*
X18301071Y46320953D02*
X18301071Y46082858D01*
X18301071Y46082858D02*
X18348690Y45987620D01*
X18348690Y45987620D02*
X18396309Y45940000D01*
X18396309Y45940000D02*
X18491547Y45892381D01*
X18491547Y45892381D02*
X18777261Y45892381D01*
X18777261Y45892381D02*
X18872499Y45940000D01*
X18872499Y45940000D02*
X18920118Y45987620D01*
X17682023Y46892381D02*
X17586785Y46892381D01*
X17586785Y46892381D02*
X17491547Y46844762D01*
X17491547Y46844762D02*
X17443928Y46797143D01*
X17443928Y46797143D02*
X17396309Y46701905D01*
X17396309Y46701905D02*
X17348690Y46511429D01*
X17348690Y46511429D02*
X17348690Y46273334D01*
X17348690Y46273334D02*
X17396309Y46082858D01*
X17396309Y46082858D02*
X17443928Y45987620D01*
X17443928Y45987620D02*
X17491547Y45940000D01*
X17491547Y45940000D02*
X17586785Y45892381D01*
X17586785Y45892381D02*
X17682023Y45892381D01*
X17682023Y45892381D02*
X17777261Y45940000D01*
X17777261Y45940000D02*
X17824880Y45987620D01*
X17824880Y45987620D02*
X17872499Y46082858D01*
X17872499Y46082858D02*
X17920118Y46273334D01*
X17920118Y46273334D02*
X17920118Y46511429D01*
X17920118Y46511429D02*
X17872499Y46701905D01*
X17872499Y46701905D02*
X17824880Y46797143D01*
X17824880Y46797143D02*
X17777261Y46844762D01*
X17777261Y46844762D02*
X17682023Y46892381D01*
X16872499Y45892381D02*
X16682023Y45892381D01*
X16682023Y45892381D02*
X16586785Y45940000D01*
X16586785Y45940000D02*
X16539166Y45987620D01*
X16539166Y45987620D02*
X16443928Y46130477D01*
X16443928Y46130477D02*
X16396309Y46320953D01*
X16396309Y46320953D02*
X16396309Y46701905D01*
X16396309Y46701905D02*
X16443928Y46797143D01*
X16443928Y46797143D02*
X16491547Y46844762D01*
X16491547Y46844762D02*
X16586785Y46892381D01*
X16586785Y46892381D02*
X16777261Y46892381D01*
X16777261Y46892381D02*
X16872499Y46844762D01*
X16872499Y46844762D02*
X16920118Y46797143D01*
X16920118Y46797143D02*
X16967737Y46701905D01*
X16967737Y46701905D02*
X16967737Y46463810D01*
X16967737Y46463810D02*
X16920118Y46368572D01*
X16920118Y46368572D02*
X16872499Y46320953D01*
X16872499Y46320953D02*
X16777261Y46273334D01*
X16777261Y46273334D02*
X16586785Y46273334D01*
X16586785Y46273334D02*
X16491547Y46320953D01*
X16491547Y46320953D02*
X16443928Y46368572D01*
X16443928Y46368572D02*
X16396309Y46463810D01*
X15967737Y45987620D02*
X15920118Y45940000D01*
X15920118Y45940000D02*
X15967737Y45892381D01*
X15967737Y45892381D02*
X16015356Y45940000D01*
X16015356Y45940000D02*
X15967737Y45987620D01*
X15967737Y45987620D02*
X15967737Y45892381D01*
X15967737Y46511429D02*
X15920118Y46463810D01*
X15920118Y46463810D02*
X15967737Y46416191D01*
X15967737Y46416191D02*
X16015356Y46463810D01*
X16015356Y46463810D02*
X15967737Y46511429D01*
X15967737Y46511429D02*
X15967737Y46416191D01*
X15301071Y46892381D02*
X15110595Y46892381D01*
X15110595Y46892381D02*
X15015357Y46844762D01*
X15015357Y46844762D02*
X14920119Y46749524D01*
X14920119Y46749524D02*
X14872500Y46559048D01*
X14872500Y46559048D02*
X14872500Y46225715D01*
X14872500Y46225715D02*
X14920119Y46035239D01*
X14920119Y46035239D02*
X15015357Y45940000D01*
X15015357Y45940000D02*
X15110595Y45892381D01*
X15110595Y45892381D02*
X15301071Y45892381D01*
X15301071Y45892381D02*
X15396309Y45940000D01*
X15396309Y45940000D02*
X15491547Y46035239D01*
X15491547Y46035239D02*
X15539166Y46225715D01*
X15539166Y46225715D02*
X15539166Y46559048D01*
X15539166Y46559048D02*
X15491547Y46749524D01*
X15491547Y46749524D02*
X15396309Y46844762D01*
X15396309Y46844762D02*
X15301071Y46892381D01*
X14443928Y45892381D02*
X14443928Y46892381D01*
X14443928Y46892381D02*
X14062976Y46892381D01*
X14062976Y46892381D02*
X13967738Y46844762D01*
X13967738Y46844762D02*
X13920119Y46797143D01*
X13920119Y46797143D02*
X13872500Y46701905D01*
X13872500Y46701905D02*
X13872500Y46559048D01*
X13872500Y46559048D02*
X13920119Y46463810D01*
X13920119Y46463810D02*
X13967738Y46416191D01*
X13967738Y46416191D02*
X14062976Y46368572D01*
X14062976Y46368572D02*
X14443928Y46368572D01*
X13443928Y46416191D02*
X13110595Y46416191D01*
X12967738Y45892381D02*
X13443928Y45892381D01*
X13443928Y45892381D02*
X13443928Y46892381D01*
X13443928Y46892381D02*
X12967738Y46892381D01*
X12539166Y45892381D02*
X12539166Y46892381D01*
X12539166Y46892381D02*
X11967738Y45892381D01*
X11967738Y45892381D02*
X11967738Y46892381D01*
X34402619Y38765952D02*
X33402619Y38765952D01*
X33402619Y38765952D02*
X34116904Y38432619D01*
X34116904Y38432619D02*
X33402619Y38099286D01*
X33402619Y38099286D02*
X34402619Y38099286D01*
X33878809Y37623095D02*
X33878809Y37289762D01*
X34402619Y37146905D02*
X34402619Y37623095D01*
X34402619Y37623095D02*
X33402619Y37623095D01*
X33402619Y37623095D02*
X33402619Y37146905D01*
X33402619Y36813571D02*
X33402619Y36146905D01*
X33402619Y36146905D02*
X34402619Y36813571D01*
X34402619Y36813571D02*
X34402619Y36146905D01*
X33402619Y35337381D02*
X33402619Y35527857D01*
X33402619Y35527857D02*
X33450238Y35623095D01*
X33450238Y35623095D02*
X33497857Y35670714D01*
X33497857Y35670714D02*
X33640714Y35765952D01*
X33640714Y35765952D02*
X33831190Y35813571D01*
X33831190Y35813571D02*
X34212142Y35813571D01*
X34212142Y35813571D02*
X34307380Y35765952D01*
X34307380Y35765952D02*
X34355000Y35718333D01*
X34355000Y35718333D02*
X34402619Y35623095D01*
X34402619Y35623095D02*
X34402619Y35432619D01*
X34402619Y35432619D02*
X34355000Y35337381D01*
X34355000Y35337381D02*
X34307380Y35289762D01*
X34307380Y35289762D02*
X34212142Y35242143D01*
X34212142Y35242143D02*
X33974047Y35242143D01*
X33974047Y35242143D02*
X33878809Y35289762D01*
X33878809Y35289762D02*
X33831190Y35337381D01*
X33831190Y35337381D02*
X33783571Y35432619D01*
X33783571Y35432619D02*
X33783571Y35623095D01*
X33783571Y35623095D02*
X33831190Y35718333D01*
X33831190Y35718333D02*
X33878809Y35765952D01*
X33878809Y35765952D02*
X33974047Y35813571D01*
X33831190Y34670714D02*
X33783571Y34765952D01*
X33783571Y34765952D02*
X33735952Y34813571D01*
X33735952Y34813571D02*
X33640714Y34861190D01*
X33640714Y34861190D02*
X33593095Y34861190D01*
X33593095Y34861190D02*
X33497857Y34813571D01*
X33497857Y34813571D02*
X33450238Y34765952D01*
X33450238Y34765952D02*
X33402619Y34670714D01*
X33402619Y34670714D02*
X33402619Y34480238D01*
X33402619Y34480238D02*
X33450238Y34385000D01*
X33450238Y34385000D02*
X33497857Y34337381D01*
X33497857Y34337381D02*
X33593095Y34289762D01*
X33593095Y34289762D02*
X33640714Y34289762D01*
X33640714Y34289762D02*
X33735952Y34337381D01*
X33735952Y34337381D02*
X33783571Y34385000D01*
X33783571Y34385000D02*
X33831190Y34480238D01*
X33831190Y34480238D02*
X33831190Y34670714D01*
X33831190Y34670714D02*
X33878809Y34765952D01*
X33878809Y34765952D02*
X33926428Y34813571D01*
X33926428Y34813571D02*
X34021666Y34861190D01*
X34021666Y34861190D02*
X34212142Y34861190D01*
X34212142Y34861190D02*
X34307380Y34813571D01*
X34307380Y34813571D02*
X34355000Y34765952D01*
X34355000Y34765952D02*
X34402619Y34670714D01*
X34402619Y34670714D02*
X34402619Y34480238D01*
X34402619Y34480238D02*
X34355000Y34385000D01*
X34355000Y34385000D02*
X34307380Y34337381D01*
X34307380Y34337381D02*
X34212142Y34289762D01*
X34212142Y34289762D02*
X34021666Y34289762D01*
X34021666Y34289762D02*
X33926428Y34337381D01*
X33926428Y34337381D02*
X33878809Y34385000D01*
X33878809Y34385000D02*
X33831190Y34480238D01*
X33402619Y33670714D02*
X33402619Y33575476D01*
X33402619Y33575476D02*
X33450238Y33480238D01*
X33450238Y33480238D02*
X33497857Y33432619D01*
X33497857Y33432619D02*
X33593095Y33385000D01*
X33593095Y33385000D02*
X33783571Y33337381D01*
X33783571Y33337381D02*
X34021666Y33337381D01*
X34021666Y33337381D02*
X34212142Y33385000D01*
X34212142Y33385000D02*
X34307380Y33432619D01*
X34307380Y33432619D02*
X34355000Y33480238D01*
X34355000Y33480238D02*
X34402619Y33575476D01*
X34402619Y33575476D02*
X34402619Y33670714D01*
X34402619Y33670714D02*
X34355000Y33765952D01*
X34355000Y33765952D02*
X34307380Y33813571D01*
X34307380Y33813571D02*
X34212142Y33861190D01*
X34212142Y33861190D02*
X34021666Y33908809D01*
X34021666Y33908809D02*
X33783571Y33908809D01*
X33783571Y33908809D02*
X33593095Y33861190D01*
X33593095Y33861190D02*
X33497857Y33813571D01*
X33497857Y33813571D02*
X33450238Y33765952D01*
X33450238Y33765952D02*
X33402619Y33670714D01*
X34402619Y32861190D02*
X34402619Y32670714D01*
X34402619Y32670714D02*
X34355000Y32575476D01*
X34355000Y32575476D02*
X34307380Y32527857D01*
X34307380Y32527857D02*
X34164523Y32432619D01*
X34164523Y32432619D02*
X33974047Y32385000D01*
X33974047Y32385000D02*
X33593095Y32385000D01*
X33593095Y32385000D02*
X33497857Y32432619D01*
X33497857Y32432619D02*
X33450238Y32480238D01*
X33450238Y32480238D02*
X33402619Y32575476D01*
X33402619Y32575476D02*
X33402619Y32765952D01*
X33402619Y32765952D02*
X33450238Y32861190D01*
X33450238Y32861190D02*
X33497857Y32908809D01*
X33497857Y32908809D02*
X33593095Y32956428D01*
X33593095Y32956428D02*
X33831190Y32956428D01*
X33831190Y32956428D02*
X33926428Y32908809D01*
X33926428Y32908809D02*
X33974047Y32861190D01*
X33974047Y32861190D02*
X34021666Y32765952D01*
X34021666Y32765952D02*
X34021666Y32575476D01*
X34021666Y32575476D02*
X33974047Y32480238D01*
X33974047Y32480238D02*
X33926428Y32432619D01*
X33926428Y32432619D02*
X33831190Y32385000D01*
X34402619Y31385000D02*
X33926428Y31718333D01*
X34402619Y31956428D02*
X33402619Y31956428D01*
X33402619Y31956428D02*
X33402619Y31575476D01*
X33402619Y31575476D02*
X33450238Y31480238D01*
X33450238Y31480238D02*
X33497857Y31432619D01*
X33497857Y31432619D02*
X33593095Y31385000D01*
X33593095Y31385000D02*
X33735952Y31385000D01*
X33735952Y31385000D02*
X33831190Y31432619D01*
X33831190Y31432619D02*
X33878809Y31480238D01*
X33878809Y31480238D02*
X33926428Y31575476D01*
X33926428Y31575476D02*
X33926428Y31956428D01*
X34116904Y31004047D02*
X34116904Y30527857D01*
X34402619Y31099285D02*
X33402619Y30765952D01*
X33402619Y30765952D02*
X34402619Y30432619D01*
X34402619Y30099285D02*
X33402619Y30099285D01*
X33402619Y30099285D02*
X34116904Y29765952D01*
X34116904Y29765952D02*
X33402619Y29432619D01*
X33402619Y29432619D02*
X34402619Y29432619D01*
X34402619Y28194523D02*
X33402619Y28194523D01*
X33402619Y28194523D02*
X34402619Y27623095D01*
X34402619Y27623095D02*
X33402619Y27623095D01*
X34402619Y27146904D02*
X33402619Y27146904D01*
X33402619Y27146904D02*
X34116904Y26813571D01*
X34116904Y26813571D02*
X33402619Y26480238D01*
X33402619Y26480238D02*
X34402619Y26480238D01*
X34402619Y26004047D02*
X33402619Y26004047D01*
X36022619Y43265954D02*
X35022619Y43265954D01*
X35022619Y43265954D02*
X35736904Y42932621D01*
X35736904Y42932621D02*
X35022619Y42599288D01*
X35022619Y42599288D02*
X36022619Y42599288D01*
X35975000Y41742145D02*
X36022619Y41837383D01*
X36022619Y41837383D02*
X36022619Y42027859D01*
X36022619Y42027859D02*
X35975000Y42123097D01*
X35975000Y42123097D02*
X35879761Y42170716D01*
X35879761Y42170716D02*
X35498809Y42170716D01*
X35498809Y42170716D02*
X35403571Y42123097D01*
X35403571Y42123097D02*
X35355952Y42027859D01*
X35355952Y42027859D02*
X35355952Y41837383D01*
X35355952Y41837383D02*
X35403571Y41742145D01*
X35403571Y41742145D02*
X35498809Y41694526D01*
X35498809Y41694526D02*
X35594047Y41694526D01*
X35594047Y41694526D02*
X35689285Y42170716D01*
X35355952Y41361192D02*
X35355952Y40837383D01*
X35355952Y40837383D02*
X36022619Y41361192D01*
X36022619Y41361192D02*
X36022619Y40837383D01*
X35355952Y40551668D02*
X35355952Y40027859D01*
X35355952Y40027859D02*
X36022619Y40551668D01*
X36022619Y40551668D02*
X36022619Y40027859D01*
X36022619Y39218335D02*
X35498809Y39218335D01*
X35498809Y39218335D02*
X35403571Y39265954D01*
X35403571Y39265954D02*
X35355952Y39361192D01*
X35355952Y39361192D02*
X35355952Y39551668D01*
X35355952Y39551668D02*
X35403571Y39646906D01*
X35975000Y39218335D02*
X36022619Y39313573D01*
X36022619Y39313573D02*
X36022619Y39551668D01*
X36022619Y39551668D02*
X35975000Y39646906D01*
X35975000Y39646906D02*
X35879761Y39694525D01*
X35879761Y39694525D02*
X35784523Y39694525D01*
X35784523Y39694525D02*
X35689285Y39646906D01*
X35689285Y39646906D02*
X35641666Y39551668D01*
X35641666Y39551668D02*
X35641666Y39313573D01*
X35641666Y39313573D02*
X35594047Y39218335D01*
X35355952Y38742144D02*
X36022619Y38742144D01*
X35451190Y38742144D02*
X35403571Y38694525D01*
X35403571Y38694525D02*
X35355952Y38599287D01*
X35355952Y38599287D02*
X35355952Y38456430D01*
X35355952Y38456430D02*
X35403571Y38361192D01*
X35403571Y38361192D02*
X35498809Y38313573D01*
X35498809Y38313573D02*
X36022619Y38313573D01*
X36022619Y37837382D02*
X35355952Y37837382D01*
X35022619Y37837382D02*
X35070238Y37885001D01*
X35070238Y37885001D02*
X35117857Y37837382D01*
X35117857Y37837382D02*
X35070238Y37789763D01*
X35070238Y37789763D02*
X35022619Y37837382D01*
X35022619Y37837382D02*
X35117857Y37837382D01*
X35355952Y37361192D02*
X36022619Y37361192D01*
X35451190Y37361192D02*
X35403571Y37313573D01*
X35403571Y37313573D02*
X35355952Y37218335D01*
X35355952Y37218335D02*
X35355952Y37075478D01*
X35355952Y37075478D02*
X35403571Y36980240D01*
X35403571Y36980240D02*
X35498809Y36932621D01*
X35498809Y36932621D02*
X36022619Y36932621D01*
X35975000Y36075478D02*
X36022619Y36170716D01*
X36022619Y36170716D02*
X36022619Y36361192D01*
X36022619Y36361192D02*
X35975000Y36456430D01*
X35975000Y36456430D02*
X35879761Y36504049D01*
X35879761Y36504049D02*
X35498809Y36504049D01*
X35498809Y36504049D02*
X35403571Y36456430D01*
X35403571Y36456430D02*
X35355952Y36361192D01*
X35355952Y36361192D02*
X35355952Y36170716D01*
X35355952Y36170716D02*
X35403571Y36075478D01*
X35403571Y36075478D02*
X35498809Y36027859D01*
X35498809Y36027859D02*
X35594047Y36027859D01*
X35594047Y36027859D02*
X35689285Y36504049D01*
X36022619Y34837382D02*
X35022619Y34837382D01*
X35403571Y34837382D02*
X35355952Y34742144D01*
X35355952Y34742144D02*
X35355952Y34551668D01*
X35355952Y34551668D02*
X35403571Y34456430D01*
X35403571Y34456430D02*
X35451190Y34408811D01*
X35451190Y34408811D02*
X35546428Y34361192D01*
X35546428Y34361192D02*
X35832142Y34361192D01*
X35832142Y34361192D02*
X35927380Y34408811D01*
X35927380Y34408811D02*
X35975000Y34456430D01*
X35975000Y34456430D02*
X36022619Y34551668D01*
X36022619Y34551668D02*
X36022619Y34742144D01*
X36022619Y34742144D02*
X35975000Y34837382D01*
X36022619Y33789763D02*
X35975000Y33885001D01*
X35975000Y33885001D02*
X35927380Y33932620D01*
X35927380Y33932620D02*
X35832142Y33980239D01*
X35832142Y33980239D02*
X35546428Y33980239D01*
X35546428Y33980239D02*
X35451190Y33932620D01*
X35451190Y33932620D02*
X35403571Y33885001D01*
X35403571Y33885001D02*
X35355952Y33789763D01*
X35355952Y33789763D02*
X35355952Y33646906D01*
X35355952Y33646906D02*
X35403571Y33551668D01*
X35403571Y33551668D02*
X35451190Y33504049D01*
X35451190Y33504049D02*
X35546428Y33456430D01*
X35546428Y33456430D02*
X35832142Y33456430D01*
X35832142Y33456430D02*
X35927380Y33504049D01*
X35927380Y33504049D02*
X35975000Y33551668D01*
X35975000Y33551668D02*
X36022619Y33646906D01*
X36022619Y33646906D02*
X36022619Y33789763D01*
X36022619Y32599287D02*
X35498809Y32599287D01*
X35498809Y32599287D02*
X35403571Y32646906D01*
X35403571Y32646906D02*
X35355952Y32742144D01*
X35355952Y32742144D02*
X35355952Y32932620D01*
X35355952Y32932620D02*
X35403571Y33027858D01*
X35975000Y32599287D02*
X36022619Y32694525D01*
X36022619Y32694525D02*
X36022619Y32932620D01*
X36022619Y32932620D02*
X35975000Y33027858D01*
X35975000Y33027858D02*
X35879761Y33075477D01*
X35879761Y33075477D02*
X35784523Y33075477D01*
X35784523Y33075477D02*
X35689285Y33027858D01*
X35689285Y33027858D02*
X35641666Y32932620D01*
X35641666Y32932620D02*
X35641666Y32694525D01*
X35641666Y32694525D02*
X35594047Y32599287D01*
X36022619Y32123096D02*
X35355952Y32123096D01*
X35546428Y32123096D02*
X35451190Y32075477D01*
X35451190Y32075477D02*
X35403571Y32027858D01*
X35403571Y32027858D02*
X35355952Y31932620D01*
X35355952Y31932620D02*
X35355952Y31837382D01*
X36022619Y31075477D02*
X35022619Y31075477D01*
X35975000Y31075477D02*
X36022619Y31170715D01*
X36022619Y31170715D02*
X36022619Y31361191D01*
X36022619Y31361191D02*
X35975000Y31456429D01*
X35975000Y31456429D02*
X35927380Y31504048D01*
X35927380Y31504048D02*
X35832142Y31551667D01*
X35832142Y31551667D02*
X35546428Y31551667D01*
X35546428Y31551667D02*
X35451190Y31504048D01*
X35451190Y31504048D02*
X35403571Y31456429D01*
X35403571Y31456429D02*
X35355952Y31361191D01*
X35355952Y31361191D02*
X35355952Y31170715D01*
X35355952Y31170715D02*
X35403571Y31075477D01*
X35355952Y29980238D02*
X35355952Y29599286D01*
X36022619Y29837381D02*
X35165476Y29837381D01*
X35165476Y29837381D02*
X35070238Y29789762D01*
X35070238Y29789762D02*
X35022619Y29694524D01*
X35022619Y29694524D02*
X35022619Y29599286D01*
X36022619Y29123095D02*
X35975000Y29218333D01*
X35975000Y29218333D02*
X35927380Y29265952D01*
X35927380Y29265952D02*
X35832142Y29313571D01*
X35832142Y29313571D02*
X35546428Y29313571D01*
X35546428Y29313571D02*
X35451190Y29265952D01*
X35451190Y29265952D02*
X35403571Y29218333D01*
X35403571Y29218333D02*
X35355952Y29123095D01*
X35355952Y29123095D02*
X35355952Y28980238D01*
X35355952Y28980238D02*
X35403571Y28885000D01*
X35403571Y28885000D02*
X35451190Y28837381D01*
X35451190Y28837381D02*
X35546428Y28789762D01*
X35546428Y28789762D02*
X35832142Y28789762D01*
X35832142Y28789762D02*
X35927380Y28837381D01*
X35927380Y28837381D02*
X35975000Y28885000D01*
X35975000Y28885000D02*
X36022619Y28980238D01*
X36022619Y28980238D02*
X36022619Y29123095D01*
X36022619Y28361190D02*
X35355952Y28361190D01*
X35546428Y28361190D02*
X35451190Y28313571D01*
X35451190Y28313571D02*
X35403571Y28265952D01*
X35403571Y28265952D02*
X35355952Y28170714D01*
X35355952Y28170714D02*
X35355952Y28075476D01*
X35498809Y26980237D02*
X35498809Y26646904D01*
X36022619Y26504047D02*
X36022619Y26980237D01*
X36022619Y26980237D02*
X35022619Y26980237D01*
X35022619Y26980237D02*
X35022619Y26504047D01*
X36022619Y26075475D02*
X35022619Y26075475D01*
X35022619Y26075475D02*
X35736904Y25742142D01*
X35736904Y25742142D02*
X35022619Y25408809D01*
X35022619Y25408809D02*
X36022619Y25408809D01*
X35022619Y24932618D02*
X35832142Y24932618D01*
X35832142Y24932618D02*
X35927380Y24884999D01*
X35927380Y24884999D02*
X35975000Y24837380D01*
X35975000Y24837380D02*
X36022619Y24742142D01*
X36022619Y24742142D02*
X36022619Y24551666D01*
X36022619Y24551666D02*
X35975000Y24456428D01*
X35975000Y24456428D02*
X35927380Y24408809D01*
X35927380Y24408809D02*
X35832142Y24361190D01*
X35832142Y24361190D02*
X35022619Y24361190D01*
X35022619Y23980237D02*
X35022619Y23313571D01*
X35022619Y23313571D02*
X36022619Y23980237D01*
X36022619Y23980237D02*
X36022619Y23313571D01*
X35451190Y22789761D02*
X35403571Y22884999D01*
X35403571Y22884999D02*
X35355952Y22932618D01*
X35355952Y22932618D02*
X35260714Y22980237D01*
X35260714Y22980237D02*
X35213095Y22980237D01*
X35213095Y22980237D02*
X35117857Y22932618D01*
X35117857Y22932618D02*
X35070238Y22884999D01*
X35070238Y22884999D02*
X35022619Y22789761D01*
X35022619Y22789761D02*
X35022619Y22599285D01*
X35022619Y22599285D02*
X35070238Y22504047D01*
X35070238Y22504047D02*
X35117857Y22456428D01*
X35117857Y22456428D02*
X35213095Y22408809D01*
X35213095Y22408809D02*
X35260714Y22408809D01*
X35260714Y22408809D02*
X35355952Y22456428D01*
X35355952Y22456428D02*
X35403571Y22504047D01*
X35403571Y22504047D02*
X35451190Y22599285D01*
X35451190Y22599285D02*
X35451190Y22789761D01*
X35451190Y22789761D02*
X35498809Y22884999D01*
X35498809Y22884999D02*
X35546428Y22932618D01*
X35546428Y22932618D02*
X35641666Y22980237D01*
X35641666Y22980237D02*
X35832142Y22980237D01*
X35832142Y22980237D02*
X35927380Y22932618D01*
X35927380Y22932618D02*
X35975000Y22884999D01*
X35975000Y22884999D02*
X36022619Y22789761D01*
X36022619Y22789761D02*
X36022619Y22599285D01*
X36022619Y22599285D02*
X35975000Y22504047D01*
X35975000Y22504047D02*
X35927380Y22456428D01*
X35927380Y22456428D02*
X35832142Y22408809D01*
X35832142Y22408809D02*
X35641666Y22408809D01*
X35641666Y22408809D02*
X35546428Y22456428D01*
X35546428Y22456428D02*
X35498809Y22504047D01*
X35498809Y22504047D02*
X35451190Y22599285D01*
X35022619Y21789761D02*
X35022619Y21694523D01*
X35022619Y21694523D02*
X35070238Y21599285D01*
X35070238Y21599285D02*
X35117857Y21551666D01*
X35117857Y21551666D02*
X35213095Y21504047D01*
X35213095Y21504047D02*
X35403571Y21456428D01*
X35403571Y21456428D02*
X35641666Y21456428D01*
X35641666Y21456428D02*
X35832142Y21504047D01*
X35832142Y21504047D02*
X35927380Y21551666D01*
X35927380Y21551666D02*
X35975000Y21599285D01*
X35975000Y21599285D02*
X36022619Y21694523D01*
X36022619Y21694523D02*
X36022619Y21789761D01*
X36022619Y21789761D02*
X35975000Y21884999D01*
X35975000Y21884999D02*
X35927380Y21932618D01*
X35927380Y21932618D02*
X35832142Y21980237D01*
X35832142Y21980237D02*
X35641666Y22027856D01*
X35641666Y22027856D02*
X35403571Y22027856D01*
X35403571Y22027856D02*
X35213095Y21980237D01*
X35213095Y21980237D02*
X35117857Y21932618D01*
X35117857Y21932618D02*
X35070238Y21884999D01*
X35070238Y21884999D02*
X35022619Y21789761D01*
X37642619Y53623096D02*
X36642619Y53623096D01*
X37642619Y53194525D02*
X37118809Y53194525D01*
X37118809Y53194525D02*
X37023571Y53242144D01*
X37023571Y53242144D02*
X36975952Y53337382D01*
X36975952Y53337382D02*
X36975952Y53480239D01*
X36975952Y53480239D02*
X37023571Y53575477D01*
X37023571Y53575477D02*
X37071190Y53623096D01*
X36975952Y52861191D02*
X36975952Y52480239D01*
X36642619Y52718334D02*
X37499761Y52718334D01*
X37499761Y52718334D02*
X37595000Y52670715D01*
X37595000Y52670715D02*
X37642619Y52575477D01*
X37642619Y52575477D02*
X37642619Y52480239D01*
X36975952Y52289762D02*
X36975952Y51908810D01*
X36642619Y52146905D02*
X37499761Y52146905D01*
X37499761Y52146905D02*
X37595000Y52099286D01*
X37595000Y52099286D02*
X37642619Y52004048D01*
X37642619Y52004048D02*
X37642619Y51908810D01*
X36975952Y51575476D02*
X37975952Y51575476D01*
X37023571Y51575476D02*
X36975952Y51480238D01*
X36975952Y51480238D02*
X36975952Y51289762D01*
X36975952Y51289762D02*
X37023571Y51194524D01*
X37023571Y51194524D02*
X37071190Y51146905D01*
X37071190Y51146905D02*
X37166428Y51099286D01*
X37166428Y51099286D02*
X37452142Y51099286D01*
X37452142Y51099286D02*
X37547380Y51146905D01*
X37547380Y51146905D02*
X37595000Y51194524D01*
X37595000Y51194524D02*
X37642619Y51289762D01*
X37642619Y51289762D02*
X37642619Y51480238D01*
X37642619Y51480238D02*
X37595000Y51575476D01*
X37595000Y50718333D02*
X37642619Y50623095D01*
X37642619Y50623095D02*
X37642619Y50432619D01*
X37642619Y50432619D02*
X37595000Y50337381D01*
X37595000Y50337381D02*
X37499761Y50289762D01*
X37499761Y50289762D02*
X37452142Y50289762D01*
X37452142Y50289762D02*
X37356904Y50337381D01*
X37356904Y50337381D02*
X37309285Y50432619D01*
X37309285Y50432619D02*
X37309285Y50575476D01*
X37309285Y50575476D02*
X37261666Y50670714D01*
X37261666Y50670714D02*
X37166428Y50718333D01*
X37166428Y50718333D02*
X37118809Y50718333D01*
X37118809Y50718333D02*
X37023571Y50670714D01*
X37023571Y50670714D02*
X36975952Y50575476D01*
X36975952Y50575476D02*
X36975952Y50432619D01*
X36975952Y50432619D02*
X37023571Y50337381D01*
X37547380Y49861190D02*
X37595000Y49813571D01*
X37595000Y49813571D02*
X37642619Y49861190D01*
X37642619Y49861190D02*
X37595000Y49908809D01*
X37595000Y49908809D02*
X37547380Y49861190D01*
X37547380Y49861190D02*
X37642619Y49861190D01*
X37023571Y49861190D02*
X37071190Y49813571D01*
X37071190Y49813571D02*
X37118809Y49861190D01*
X37118809Y49861190D02*
X37071190Y49908809D01*
X37071190Y49908809D02*
X37023571Y49861190D01*
X37023571Y49861190D02*
X37118809Y49861190D01*
X36595000Y48670715D02*
X37880714Y49527857D01*
X36595000Y47623096D02*
X37880714Y48480238D01*
X36975952Y46861191D02*
X37785476Y46861191D01*
X37785476Y46861191D02*
X37880714Y46908810D01*
X37880714Y46908810D02*
X37928333Y46956429D01*
X37928333Y46956429D02*
X37975952Y47051667D01*
X37975952Y47051667D02*
X37975952Y47194524D01*
X37975952Y47194524D02*
X37928333Y47289762D01*
X37595000Y46861191D02*
X37642619Y46956429D01*
X37642619Y46956429D02*
X37642619Y47146905D01*
X37642619Y47146905D02*
X37595000Y47242143D01*
X37595000Y47242143D02*
X37547380Y47289762D01*
X37547380Y47289762D02*
X37452142Y47337381D01*
X37452142Y47337381D02*
X37166428Y47337381D01*
X37166428Y47337381D02*
X37071190Y47289762D01*
X37071190Y47289762D02*
X37023571Y47242143D01*
X37023571Y47242143D02*
X36975952Y47146905D01*
X36975952Y47146905D02*
X36975952Y46956429D01*
X36975952Y46956429D02*
X37023571Y46861191D01*
X37642619Y46385000D02*
X36975952Y46385000D01*
X36642619Y46385000D02*
X36690238Y46432619D01*
X36690238Y46432619D02*
X36737857Y46385000D01*
X36737857Y46385000D02*
X36690238Y46337381D01*
X36690238Y46337381D02*
X36642619Y46385000D01*
X36642619Y46385000D02*
X36737857Y46385000D01*
X36975952Y46051667D02*
X36975952Y45670715D01*
X36642619Y45908810D02*
X37499761Y45908810D01*
X37499761Y45908810D02*
X37595000Y45861191D01*
X37595000Y45861191D02*
X37642619Y45765953D01*
X37642619Y45765953D02*
X37642619Y45670715D01*
X37642619Y45337381D02*
X36642619Y45337381D01*
X37642619Y44908810D02*
X37118809Y44908810D01*
X37118809Y44908810D02*
X37023571Y44956429D01*
X37023571Y44956429D02*
X36975952Y45051667D01*
X36975952Y45051667D02*
X36975952Y45194524D01*
X36975952Y45194524D02*
X37023571Y45289762D01*
X37023571Y45289762D02*
X37071190Y45337381D01*
X36975952Y44004048D02*
X37642619Y44004048D01*
X36975952Y44432619D02*
X37499761Y44432619D01*
X37499761Y44432619D02*
X37595000Y44385000D01*
X37595000Y44385000D02*
X37642619Y44289762D01*
X37642619Y44289762D02*
X37642619Y44146905D01*
X37642619Y44146905D02*
X37595000Y44051667D01*
X37595000Y44051667D02*
X37547380Y44004048D01*
X37642619Y43527857D02*
X36642619Y43527857D01*
X37023571Y43527857D02*
X36975952Y43432619D01*
X36975952Y43432619D02*
X36975952Y43242143D01*
X36975952Y43242143D02*
X37023571Y43146905D01*
X37023571Y43146905D02*
X37071190Y43099286D01*
X37071190Y43099286D02*
X37166428Y43051667D01*
X37166428Y43051667D02*
X37452142Y43051667D01*
X37452142Y43051667D02*
X37547380Y43099286D01*
X37547380Y43099286D02*
X37595000Y43146905D01*
X37595000Y43146905D02*
X37642619Y43242143D01*
X37642619Y43242143D02*
X37642619Y43432619D01*
X37642619Y43432619D02*
X37595000Y43527857D01*
X37547380Y42623095D02*
X37595000Y42575476D01*
X37595000Y42575476D02*
X37642619Y42623095D01*
X37642619Y42623095D02*
X37595000Y42670714D01*
X37595000Y42670714D02*
X37547380Y42623095D01*
X37547380Y42623095D02*
X37642619Y42623095D01*
X37595000Y41718334D02*
X37642619Y41813572D01*
X37642619Y41813572D02*
X37642619Y42004048D01*
X37642619Y42004048D02*
X37595000Y42099286D01*
X37595000Y42099286D02*
X37547380Y42146905D01*
X37547380Y42146905D02*
X37452142Y42194524D01*
X37452142Y42194524D02*
X37166428Y42194524D01*
X37166428Y42194524D02*
X37071190Y42146905D01*
X37071190Y42146905D02*
X37023571Y42099286D01*
X37023571Y42099286D02*
X36975952Y42004048D01*
X36975952Y42004048D02*
X36975952Y41813572D01*
X36975952Y41813572D02*
X37023571Y41718334D01*
X37642619Y41146905D02*
X37595000Y41242143D01*
X37595000Y41242143D02*
X37547380Y41289762D01*
X37547380Y41289762D02*
X37452142Y41337381D01*
X37452142Y41337381D02*
X37166428Y41337381D01*
X37166428Y41337381D02*
X37071190Y41289762D01*
X37071190Y41289762D02*
X37023571Y41242143D01*
X37023571Y41242143D02*
X36975952Y41146905D01*
X36975952Y41146905D02*
X36975952Y41004048D01*
X36975952Y41004048D02*
X37023571Y40908810D01*
X37023571Y40908810D02*
X37071190Y40861191D01*
X37071190Y40861191D02*
X37166428Y40813572D01*
X37166428Y40813572D02*
X37452142Y40813572D01*
X37452142Y40813572D02*
X37547380Y40861191D01*
X37547380Y40861191D02*
X37595000Y40908810D01*
X37595000Y40908810D02*
X37642619Y41004048D01*
X37642619Y41004048D02*
X37642619Y41146905D01*
X37642619Y40385000D02*
X36975952Y40385000D01*
X37071190Y40385000D02*
X37023571Y40337381D01*
X37023571Y40337381D02*
X36975952Y40242143D01*
X36975952Y40242143D02*
X36975952Y40099286D01*
X36975952Y40099286D02*
X37023571Y40004048D01*
X37023571Y40004048D02*
X37118809Y39956429D01*
X37118809Y39956429D02*
X37642619Y39956429D01*
X37118809Y39956429D02*
X37023571Y39908810D01*
X37023571Y39908810D02*
X36975952Y39813572D01*
X36975952Y39813572D02*
X36975952Y39670715D01*
X36975952Y39670715D02*
X37023571Y39575476D01*
X37023571Y39575476D02*
X37118809Y39527857D01*
X37118809Y39527857D02*
X37642619Y39527857D01*
X36595000Y38337382D02*
X37880714Y39194524D01*
X37595000Y38051667D02*
X37642619Y37956429D01*
X37642619Y37956429D02*
X37642619Y37765953D01*
X37642619Y37765953D02*
X37595000Y37670715D01*
X37595000Y37670715D02*
X37499761Y37623096D01*
X37499761Y37623096D02*
X37452142Y37623096D01*
X37452142Y37623096D02*
X37356904Y37670715D01*
X37356904Y37670715D02*
X37309285Y37765953D01*
X37309285Y37765953D02*
X37309285Y37908810D01*
X37309285Y37908810D02*
X37261666Y38004048D01*
X37261666Y38004048D02*
X37166428Y38051667D01*
X37166428Y38051667D02*
X37118809Y38051667D01*
X37118809Y38051667D02*
X37023571Y38004048D01*
X37023571Y38004048D02*
X36975952Y37908810D01*
X36975952Y37908810D02*
X36975952Y37765953D01*
X36975952Y37765953D02*
X37023571Y37670715D01*
X37642619Y36765953D02*
X37118809Y36765953D01*
X37118809Y36765953D02*
X37023571Y36813572D01*
X37023571Y36813572D02*
X36975952Y36908810D01*
X36975952Y36908810D02*
X36975952Y37099286D01*
X36975952Y37099286D02*
X37023571Y37194524D01*
X37595000Y36765953D02*
X37642619Y36861191D01*
X37642619Y36861191D02*
X37642619Y37099286D01*
X37642619Y37099286D02*
X37595000Y37194524D01*
X37595000Y37194524D02*
X37499761Y37242143D01*
X37499761Y37242143D02*
X37404523Y37242143D01*
X37404523Y37242143D02*
X37309285Y37194524D01*
X37309285Y37194524D02*
X37261666Y37099286D01*
X37261666Y37099286D02*
X37261666Y36861191D01*
X37261666Y36861191D02*
X37214047Y36765953D01*
X36975952Y36432619D02*
X36975952Y36051667D01*
X36642619Y36289762D02*
X37499761Y36289762D01*
X37499761Y36289762D02*
X37595000Y36242143D01*
X37595000Y36242143D02*
X37642619Y36146905D01*
X37642619Y36146905D02*
X37642619Y36051667D01*
X37642619Y35575476D02*
X37595000Y35670714D01*
X37595000Y35670714D02*
X37547380Y35718333D01*
X37547380Y35718333D02*
X37452142Y35765952D01*
X37452142Y35765952D02*
X37166428Y35765952D01*
X37166428Y35765952D02*
X37071190Y35718333D01*
X37071190Y35718333D02*
X37023571Y35670714D01*
X37023571Y35670714D02*
X36975952Y35575476D01*
X36975952Y35575476D02*
X36975952Y35432619D01*
X36975952Y35432619D02*
X37023571Y35337381D01*
X37023571Y35337381D02*
X37071190Y35289762D01*
X37071190Y35289762D02*
X37166428Y35242143D01*
X37166428Y35242143D02*
X37452142Y35242143D01*
X37452142Y35242143D02*
X37547380Y35289762D01*
X37547380Y35289762D02*
X37595000Y35337381D01*
X37595000Y35337381D02*
X37642619Y35432619D01*
X37642619Y35432619D02*
X37642619Y35575476D01*
X37595000Y34861190D02*
X37642619Y34765952D01*
X37642619Y34765952D02*
X37642619Y34575476D01*
X37642619Y34575476D02*
X37595000Y34480238D01*
X37595000Y34480238D02*
X37499761Y34432619D01*
X37499761Y34432619D02*
X37452142Y34432619D01*
X37452142Y34432619D02*
X37356904Y34480238D01*
X37356904Y34480238D02*
X37309285Y34575476D01*
X37309285Y34575476D02*
X37309285Y34718333D01*
X37309285Y34718333D02*
X37261666Y34813571D01*
X37261666Y34813571D02*
X37166428Y34861190D01*
X37166428Y34861190D02*
X37118809Y34861190D01*
X37118809Y34861190D02*
X37023571Y34813571D01*
X37023571Y34813571D02*
X36975952Y34718333D01*
X36975952Y34718333D02*
X36975952Y34575476D01*
X36975952Y34575476D02*
X37023571Y34480238D01*
X37642619Y34004047D02*
X36642619Y34004047D01*
X37642619Y33575476D02*
X37118809Y33575476D01*
X37118809Y33575476D02*
X37023571Y33623095D01*
X37023571Y33623095D02*
X36975952Y33718333D01*
X36975952Y33718333D02*
X36975952Y33861190D01*
X36975952Y33861190D02*
X37023571Y33956428D01*
X37023571Y33956428D02*
X37071190Y34004047D01*
X37642619Y33099285D02*
X36975952Y33099285D01*
X36642619Y33099285D02*
X36690238Y33146904D01*
X36690238Y33146904D02*
X36737857Y33099285D01*
X36737857Y33099285D02*
X36690238Y33051666D01*
X36690238Y33051666D02*
X36642619Y33099285D01*
X36642619Y33099285D02*
X36737857Y33099285D01*
X37642619Y32480238D02*
X37595000Y32575476D01*
X37595000Y32575476D02*
X37547380Y32623095D01*
X37547380Y32623095D02*
X37452142Y32670714D01*
X37452142Y32670714D02*
X37166428Y32670714D01*
X37166428Y32670714D02*
X37071190Y32623095D01*
X37071190Y32623095D02*
X37023571Y32575476D01*
X37023571Y32575476D02*
X36975952Y32480238D01*
X36975952Y32480238D02*
X36975952Y32337381D01*
X36975952Y32337381D02*
X37023571Y32242143D01*
X37023571Y32242143D02*
X37071190Y32194524D01*
X37071190Y32194524D02*
X37166428Y32146905D01*
X37166428Y32146905D02*
X37452142Y32146905D01*
X37452142Y32146905D02*
X37547380Y32194524D01*
X37547380Y32194524D02*
X37595000Y32242143D01*
X37595000Y32242143D02*
X37642619Y32337381D01*
X37642619Y32337381D02*
X37642619Y32480238D01*
X37642619Y31718333D02*
X36642619Y31718333D01*
X37261666Y31623095D02*
X37642619Y31337381D01*
X36975952Y31337381D02*
X37356904Y31718333D01*
X36975952Y30480238D02*
X37642619Y30480238D01*
X36975952Y30908809D02*
X37499761Y30908809D01*
X37499761Y30908809D02*
X37595000Y30861190D01*
X37595000Y30861190D02*
X37642619Y30765952D01*
X37642619Y30765952D02*
X37642619Y30623095D01*
X37642619Y30623095D02*
X37595000Y30527857D01*
X37595000Y30527857D02*
X37547380Y30480238D01*
X37595000Y29623095D02*
X37642619Y29718333D01*
X37642619Y29718333D02*
X37642619Y29908809D01*
X37642619Y29908809D02*
X37595000Y30004047D01*
X37595000Y30004047D02*
X37499761Y30051666D01*
X37499761Y30051666D02*
X37118809Y30051666D01*
X37118809Y30051666D02*
X37023571Y30004047D01*
X37023571Y30004047D02*
X36975952Y29908809D01*
X36975952Y29908809D02*
X36975952Y29718333D01*
X36975952Y29718333D02*
X37023571Y29623095D01*
X37023571Y29623095D02*
X37118809Y29575476D01*
X37118809Y29575476D02*
X37214047Y29575476D01*
X37214047Y29575476D02*
X37309285Y30051666D01*
X36595000Y28432619D02*
X37880714Y29289761D01*
X37118809Y28099285D02*
X37118809Y27765952D01*
X37642619Y27623095D02*
X37642619Y28099285D01*
X37642619Y28099285D02*
X36642619Y28099285D01*
X36642619Y28099285D02*
X36642619Y27623095D01*
X37642619Y27194523D02*
X36642619Y27194523D01*
X36642619Y27194523D02*
X37356904Y26861190D01*
X37356904Y26861190D02*
X36642619Y26527857D01*
X36642619Y26527857D02*
X37642619Y26527857D01*
X36642619Y26051666D02*
X37452142Y26051666D01*
X37452142Y26051666D02*
X37547380Y26004047D01*
X37547380Y26004047D02*
X37595000Y25956428D01*
X37595000Y25956428D02*
X37642619Y25861190D01*
X37642619Y25861190D02*
X37642619Y25670714D01*
X37642619Y25670714D02*
X37595000Y25575476D01*
X37595000Y25575476D02*
X37547380Y25527857D01*
X37547380Y25527857D02*
X37452142Y25480238D01*
X37452142Y25480238D02*
X36642619Y25480238D01*
X36642619Y25099285D02*
X36642619Y24432619D01*
X36642619Y24432619D02*
X37642619Y25099285D01*
X37642619Y25099285D02*
X37642619Y24432619D01*
X37071190Y23908809D02*
X37023571Y24004047D01*
X37023571Y24004047D02*
X36975952Y24051666D01*
X36975952Y24051666D02*
X36880714Y24099285D01*
X36880714Y24099285D02*
X36833095Y24099285D01*
X36833095Y24099285D02*
X36737857Y24051666D01*
X36737857Y24051666D02*
X36690238Y24004047D01*
X36690238Y24004047D02*
X36642619Y23908809D01*
X36642619Y23908809D02*
X36642619Y23718333D01*
X36642619Y23718333D02*
X36690238Y23623095D01*
X36690238Y23623095D02*
X36737857Y23575476D01*
X36737857Y23575476D02*
X36833095Y23527857D01*
X36833095Y23527857D02*
X36880714Y23527857D01*
X36880714Y23527857D02*
X36975952Y23575476D01*
X36975952Y23575476D02*
X37023571Y23623095D01*
X37023571Y23623095D02*
X37071190Y23718333D01*
X37071190Y23718333D02*
X37071190Y23908809D01*
X37071190Y23908809D02*
X37118809Y24004047D01*
X37118809Y24004047D02*
X37166428Y24051666D01*
X37166428Y24051666D02*
X37261666Y24099285D01*
X37261666Y24099285D02*
X37452142Y24099285D01*
X37452142Y24099285D02*
X37547380Y24051666D01*
X37547380Y24051666D02*
X37595000Y24004047D01*
X37595000Y24004047D02*
X37642619Y23908809D01*
X37642619Y23908809D02*
X37642619Y23718333D01*
X37642619Y23718333D02*
X37595000Y23623095D01*
X37595000Y23623095D02*
X37547380Y23575476D01*
X37547380Y23575476D02*
X37452142Y23527857D01*
X37452142Y23527857D02*
X37261666Y23527857D01*
X37261666Y23527857D02*
X37166428Y23575476D01*
X37166428Y23575476D02*
X37118809Y23623095D01*
X37118809Y23623095D02*
X37071190Y23718333D01*
X36642619Y22908809D02*
X36642619Y22813571D01*
X36642619Y22813571D02*
X36690238Y22718333D01*
X36690238Y22718333D02*
X36737857Y22670714D01*
X36737857Y22670714D02*
X36833095Y22623095D01*
X36833095Y22623095D02*
X37023571Y22575476D01*
X37023571Y22575476D02*
X37261666Y22575476D01*
X37261666Y22575476D02*
X37452142Y22623095D01*
X37452142Y22623095D02*
X37547380Y22670714D01*
X37547380Y22670714D02*
X37595000Y22718333D01*
X37595000Y22718333D02*
X37642619Y22813571D01*
X37642619Y22813571D02*
X37642619Y22908809D01*
X37642619Y22908809D02*
X37595000Y23004047D01*
X37595000Y23004047D02*
X37547380Y23051666D01*
X37547380Y23051666D02*
X37452142Y23099285D01*
X37452142Y23099285D02*
X37261666Y23146904D01*
X37261666Y23146904D02*
X37023571Y23146904D01*
X37023571Y23146904D02*
X36833095Y23099285D01*
X36833095Y23099285D02*
X36737857Y23051666D01*
X36737857Y23051666D02*
X36690238Y23004047D01*
X36690238Y23004047D02*
X36642619Y22908809D01*
X37261666Y22146904D02*
X37261666Y21384999D01*
X36642619Y20480238D02*
X36642619Y20670714D01*
X36642619Y20670714D02*
X36690238Y20765952D01*
X36690238Y20765952D02*
X36737857Y20813571D01*
X36737857Y20813571D02*
X36880714Y20908809D01*
X36880714Y20908809D02*
X37071190Y20956428D01*
X37071190Y20956428D02*
X37452142Y20956428D01*
X37452142Y20956428D02*
X37547380Y20908809D01*
X37547380Y20908809D02*
X37595000Y20861190D01*
X37595000Y20861190D02*
X37642619Y20765952D01*
X37642619Y20765952D02*
X37642619Y20575476D01*
X37642619Y20575476D02*
X37595000Y20480238D01*
X37595000Y20480238D02*
X37547380Y20432619D01*
X37547380Y20432619D02*
X37452142Y20385000D01*
X37452142Y20385000D02*
X37214047Y20385000D01*
X37214047Y20385000D02*
X37118809Y20432619D01*
X37118809Y20432619D02*
X37071190Y20480238D01*
X37071190Y20480238D02*
X37023571Y20575476D01*
X37023571Y20575476D02*
X37023571Y20765952D01*
X37023571Y20765952D02*
X37071190Y20861190D01*
X37071190Y20861190D02*
X37118809Y20908809D01*
X37118809Y20908809D02*
X37214047Y20956428D01*
X37071190Y19813571D02*
X37023571Y19908809D01*
X37023571Y19908809D02*
X36975952Y19956428D01*
X36975952Y19956428D02*
X36880714Y20004047D01*
X36880714Y20004047D02*
X36833095Y20004047D01*
X36833095Y20004047D02*
X36737857Y19956428D01*
X36737857Y19956428D02*
X36690238Y19908809D01*
X36690238Y19908809D02*
X36642619Y19813571D01*
X36642619Y19813571D02*
X36642619Y19623095D01*
X36642619Y19623095D02*
X36690238Y19527857D01*
X36690238Y19527857D02*
X36737857Y19480238D01*
X36737857Y19480238D02*
X36833095Y19432619D01*
X36833095Y19432619D02*
X36880714Y19432619D01*
X36880714Y19432619D02*
X36975952Y19480238D01*
X36975952Y19480238D02*
X37023571Y19527857D01*
X37023571Y19527857D02*
X37071190Y19623095D01*
X37071190Y19623095D02*
X37071190Y19813571D01*
X37071190Y19813571D02*
X37118809Y19908809D01*
X37118809Y19908809D02*
X37166428Y19956428D01*
X37166428Y19956428D02*
X37261666Y20004047D01*
X37261666Y20004047D02*
X37452142Y20004047D01*
X37452142Y20004047D02*
X37547380Y19956428D01*
X37547380Y19956428D02*
X37595000Y19908809D01*
X37595000Y19908809D02*
X37642619Y19813571D01*
X37642619Y19813571D02*
X37642619Y19623095D01*
X37642619Y19623095D02*
X37595000Y19527857D01*
X37595000Y19527857D02*
X37547380Y19480238D01*
X37547380Y19480238D02*
X37452142Y19432619D01*
X37452142Y19432619D02*
X37261666Y19432619D01*
X37261666Y19432619D02*
X37166428Y19480238D01*
X37166428Y19480238D02*
X37118809Y19527857D01*
X37118809Y19527857D02*
X37071190Y19623095D01*
X36642619Y18813571D02*
X36642619Y18718333D01*
X36642619Y18718333D02*
X36690238Y18623095D01*
X36690238Y18623095D02*
X36737857Y18575476D01*
X36737857Y18575476D02*
X36833095Y18527857D01*
X36833095Y18527857D02*
X37023571Y18480238D01*
X37023571Y18480238D02*
X37261666Y18480238D01*
X37261666Y18480238D02*
X37452142Y18527857D01*
X37452142Y18527857D02*
X37547380Y18575476D01*
X37547380Y18575476D02*
X37595000Y18623095D01*
X37595000Y18623095D02*
X37642619Y18718333D01*
X37642619Y18718333D02*
X37642619Y18813571D01*
X37642619Y18813571D02*
X37595000Y18908809D01*
X37595000Y18908809D02*
X37547380Y18956428D01*
X37547380Y18956428D02*
X37452142Y19004047D01*
X37452142Y19004047D02*
X37261666Y19051666D01*
X37261666Y19051666D02*
X37023571Y19051666D01*
X37023571Y19051666D02*
X36833095Y19004047D01*
X36833095Y19004047D02*
X36737857Y18956428D01*
X36737857Y18956428D02*
X36690238Y18908809D01*
X36690238Y18908809D02*
X36642619Y18813571D01*
X37642619Y18004047D02*
X37642619Y17813571D01*
X37642619Y17813571D02*
X37595000Y17718333D01*
X37595000Y17718333D02*
X37547380Y17670714D01*
X37547380Y17670714D02*
X37404523Y17575476D01*
X37404523Y17575476D02*
X37214047Y17527857D01*
X37214047Y17527857D02*
X36833095Y17527857D01*
X36833095Y17527857D02*
X36737857Y17575476D01*
X36737857Y17575476D02*
X36690238Y17623095D01*
X36690238Y17623095D02*
X36642619Y17718333D01*
X36642619Y17718333D02*
X36642619Y17908809D01*
X36642619Y17908809D02*
X36690238Y18004047D01*
X36690238Y18004047D02*
X36737857Y18051666D01*
X36737857Y18051666D02*
X36833095Y18099285D01*
X36833095Y18099285D02*
X37071190Y18099285D01*
X37071190Y18099285D02*
X37166428Y18051666D01*
X37166428Y18051666D02*
X37214047Y18004047D01*
X37214047Y18004047D02*
X37261666Y17908809D01*
X37261666Y17908809D02*
X37261666Y17718333D01*
X37261666Y17718333D02*
X37214047Y17623095D01*
X37214047Y17623095D02*
X37166428Y17575476D01*
X37166428Y17575476D02*
X37071190Y17527857D01*
X37642619Y16527857D02*
X37166428Y16861190D01*
X37642619Y17099285D02*
X36642619Y17099285D01*
X36642619Y17099285D02*
X36642619Y16718333D01*
X36642619Y16718333D02*
X36690238Y16623095D01*
X36690238Y16623095D02*
X36737857Y16575476D01*
X36737857Y16575476D02*
X36833095Y16527857D01*
X36833095Y16527857D02*
X36975952Y16527857D01*
X36975952Y16527857D02*
X37071190Y16575476D01*
X37071190Y16575476D02*
X37118809Y16623095D01*
X37118809Y16623095D02*
X37166428Y16718333D01*
X37166428Y16718333D02*
X37166428Y17099285D01*
X37356904Y16146904D02*
X37356904Y15670714D01*
X37642619Y16242142D02*
X36642619Y15908809D01*
X36642619Y15908809D02*
X37642619Y15575476D01*
X37642619Y15242142D02*
X36642619Y15242142D01*
X36642619Y15242142D02*
X37356904Y14908809D01*
X37356904Y14908809D02*
X36642619Y14575476D01*
X36642619Y14575476D02*
X37642619Y14575476D01*
X37737857Y14337380D02*
X37737857Y13575476D01*
X37642619Y13337380D02*
X36642619Y13337380D01*
X36642619Y13337380D02*
X37642619Y12765952D01*
X37642619Y12765952D02*
X36642619Y12765952D01*
X37642619Y12289761D02*
X36642619Y12289761D01*
X36642619Y12289761D02*
X37356904Y11956428D01*
X37356904Y11956428D02*
X36642619Y11623095D01*
X36642619Y11623095D02*
X37642619Y11623095D01*
X37642619Y11146904D02*
X36642619Y11146904D01*
X16070833Y49432381D02*
X16070833Y48718096D01*
X16070833Y48718096D02*
X16118452Y48575239D01*
X16118452Y48575239D02*
X16213690Y48480000D01*
X16213690Y48480000D02*
X16356547Y48432381D01*
X16356547Y48432381D02*
X16451785Y48432381D01*
X15594642Y48432381D02*
X15594642Y49432381D01*
X15594642Y49432381D02*
X15213690Y49432381D01*
X15213690Y49432381D02*
X15118452Y49384762D01*
X15118452Y49384762D02*
X15070833Y49337143D01*
X15070833Y49337143D02*
X15023214Y49241905D01*
X15023214Y49241905D02*
X15023214Y49099048D01*
X15023214Y49099048D02*
X15070833Y49003810D01*
X15070833Y49003810D02*
X15118452Y48956191D01*
X15118452Y48956191D02*
X15213690Y48908572D01*
X15213690Y48908572D02*
X15594642Y48908572D01*
X14070833Y48432381D02*
X14642261Y48432381D01*
X14356547Y48432381D02*
X14356547Y49432381D01*
X14356547Y49432381D02*
X14451785Y49289524D01*
X14451785Y49289524D02*
X14547023Y49194286D01*
X14547023Y49194286D02*
X14642261Y49146667D01*
X24465833Y54307381D02*
X24465833Y53593096D01*
X24465833Y53593096D02*
X24513452Y53450239D01*
X24513452Y53450239D02*
X24608690Y53355000D01*
X24608690Y53355000D02*
X24751547Y53307381D01*
X24751547Y53307381D02*
X24846785Y53307381D01*
X24037261Y54212143D02*
X23989642Y54259762D01*
X23989642Y54259762D02*
X23894404Y54307381D01*
X23894404Y54307381D02*
X23656309Y54307381D01*
X23656309Y54307381D02*
X23561071Y54259762D01*
X23561071Y54259762D02*
X23513452Y54212143D01*
X23513452Y54212143D02*
X23465833Y54116905D01*
X23465833Y54116905D02*
X23465833Y54021667D01*
X23465833Y54021667D02*
X23513452Y53878810D01*
X23513452Y53878810D02*
X24084880Y53307381D01*
X24084880Y53307381D02*
X23465833Y53307381D01*
X4145833Y54307381D02*
X4145833Y53593096D01*
X4145833Y53593096D02*
X4193452Y53450239D01*
X4193452Y53450239D02*
X4288690Y53355000D01*
X4288690Y53355000D02*
X4431547Y53307381D01*
X4431547Y53307381D02*
X4526785Y53307381D01*
X3145833Y53307381D02*
X3717261Y53307381D01*
X3431547Y53307381D02*
X3431547Y54307381D01*
X3431547Y54307381D02*
X3526785Y54164524D01*
X3526785Y54164524D02*
X3622023Y54069286D01*
X3622023Y54069286D02*
X3717261Y54021667D01*
D11*
X19815000Y48595000D02*
X19815000Y49195000D01*
X19115000Y49895000D02*
X17715000Y49895000D01*
X17715000Y47895000D02*
X19115000Y47895000D01*
X17015000Y49195000D02*
X17015000Y48595000D01*
X19115000Y47895000D02*
G75*
G03*
X19815000Y48595000I1J699999D01*
G01*
X19815000Y49195000D02*
G75*
G03*
X19115000Y49895000I-699999J1D01*
G01*
X17015000Y48595000D02*
G75*
G03*
X17715000Y47895000I700000J0D01*
G01*
X17715000Y49895000D02*
G75*
G03*
X17015000Y49195000I0J-700000D01*
G01*
X25462500Y1850000D02*
X22802500Y1850000D01*
X25462500Y50170000D02*
X25462500Y1850000D01*
X25462500Y50170000D02*
X22802500Y50170000D01*
X25462500Y51440000D02*
X25462500Y52770000D01*
X25462500Y52770000D02*
X24132500Y52770000D01*
X22802500Y50170000D02*
X22802500Y1850000D01*
X5142500Y1850000D02*
X2482500Y1850000D01*
X5142500Y50170000D02*
X5142500Y1850000D01*
X5142500Y50170000D02*
X2482500Y50170000D01*
X5142500Y51440000D02*
X5142500Y52770000D01*
X5142500Y52770000D02*
X3812500Y52770000D01*
X2482500Y50170000D02*
X2482500Y1850000D01*
M02*
